<svg width="56" height="56" viewBox="0 0 56 56" fill="none" xmlns="http://www.w3.org/2000/svg">
<path d="M33.2489 4.66666H19.8192C19.4004 4.66666 19.191 4.66666 19.0062 4.73043C18.8427 4.78682 18.6938 4.87884 18.5703 4.99984C18.4306 5.13667 18.3369 5.32396 18.1496 5.69853L8.34963 25.2985C7.90237 26.193 7.67875 26.6403 7.73246 27.0039C7.77937 27.3213 7.95496 27.6054 8.21794 27.7894C8.51909 28 9.01914 28 10.0192 28H24.4989L17.4989 51.3333L45.9495 21.829C46.9093 20.8336 47.3892 20.3359 47.4173 19.9101C47.4417 19.5404 47.289 19.1811 47.006 18.9421C46.68 18.6667 45.9886 18.6667 44.6057 18.6667H27.9989L33.2489 4.66666Z" stroke="#D58CF7" stroke-width="3" stroke-linecap="round" stroke-linejoin="round"/>
</svg>
