<svg width="56" height="56" viewBox="0 0 56 56" fill="none" xmlns="http://www.w3.org/2000/svg">
<path d="M7 51.3333H28M25.6667 14.5881C27.1582 14.2042 28.7219 14 30.3333 14C40.6426 14 49 22.3573 49 32.6667C49 40.5005 44.1743 47.2073 37.3333 49.9765M12.8333 30.3333H22.1667C23.2509 30.3333 23.793 30.3333 24.2438 30.423C26.095 30.7912 27.5421 32.2384 27.9103 34.0896C28 34.5404 28 35.0825 28 36.1667C28 37.2509 28 37.793 27.9103 38.2438C27.5421 40.095 26.095 41.5421 24.2438 41.9103C23.793 42 23.2509 42 22.1667 42H12.8333C11.7491 42 11.207 42 10.7562 41.9103C8.90502 41.5421 7.4579 40.095 7.08967 38.2438C7 37.793 7 37.2509 7 36.1667C7 35.0825 7 34.5404 7.08967 34.0896C7.4579 32.2384 8.90502 30.7912 10.7562 30.423C11.207 30.3333 11.7491 30.3333 12.8333 30.3333ZM9.33333 12.8333V30.3333H25.6667V12.8333C25.6667 8.32301 22.0103 4.66666 17.5 4.66666C12.9897 4.66666 9.33333 8.32301 9.33333 12.8333Z" stroke="#FAC017" stroke-width="3" stroke-linecap="round" stroke-linejoin="round"/>
</svg>
