<svg width="20" height="20" viewBox="0 0 20 20" fill="none" xmlns="http://www.w3.org/2000/svg">
<path d="M9.99967 18.1667C13.513 18.1667 16.483 15.3833 17.4555 12.1875C17.6738 11.4692 19.1663 11.4692 19.1663 9.91667C19.1663 8.36417 17.6597 8.27501 17.4159 7.52001C16.4047 4.38959 13.4663 1.66667 9.99967 1.66667C6.53092 1.66667 3.59134 4.39167 2.58176 7.52501C2.33926 8.27917 0.833008 8.33751 0.833008 9.91667C0.833008 11.4958 2.32967 11.4958 2.55592 12.2258C3.54009 15.4017 6.50051 18.1667 9.99967 18.1667Z" stroke="#05203E" stroke-width="1.5"/>
<path d="M17.4163 7.52001C16.405 4.38959 13.4667 1.66667 10 1.66667" stroke="#05203E" stroke-width="1.5" stroke-linecap="round"/>
<path d="M7.95866 9C7.95866 9.34416 7.86533 9.64666 7.72533 9.85666C7.58408 10.0683 7.41199 10.1667 7.25033 10.1667C7.08866 10.1667 6.91699 10.0683 6.77533 9.85666C6.63533 9.64666 6.54199 9.34416 6.54199 9C6.54199 8.65541 6.63533 8.35333 6.77533 8.14333C6.91699 7.93166 7.08866 7.83333 7.25033 7.83333C7.41241 7.83333 7.58408 7.93166 7.72533 8.14333C7.86533 8.35333 7.95866 8.65583 7.95866 9ZM13.4587 9C13.4587 9.34416 13.3653 9.64666 13.2253 9.85666C13.0841 10.0683 12.912 10.1667 12.7503 10.1667C12.5887 10.1667 12.4166 10.0683 12.2753 9.85666C12.1353 9.64666 12.042 9.34416 12.042 9C12.042 8.65541 12.1353 8.35333 12.2753 8.14333C12.4166 7.93166 12.5887 7.83333 12.7503 7.83333C12.912 7.83333 13.0841 7.93166 13.2253 8.14333C13.3653 8.35333 13.4587 8.65583 13.4587 9Z" fill="#05203E" stroke="#05203E" stroke-width="0.5"/>
<path fill-rule="evenodd" clip-rule="evenodd" d="M7.70703 13.2292C8.5112 13.7708 9.27703 14.0417 10.0033 14.0417C10.7291 14.0417 11.4487 13.7713 12.1616 13.2313" fill="#05203E"/>
<path d="M7.70703 13.2292C8.5112 13.7708 9.27703 14.0417 10.0033 14.0417C10.7291 14.0417 11.4487 13.7712 12.1616 13.2312M13.2195 2.58333C13.3312 3.38916 13.0858 3.97791 12.4824 4.34958C11.8795 4.72125 10.8995 4.89541 9.54286 4.87208" stroke="#05203E" stroke-width="1.5" stroke-linecap="round"/>
</svg>
