<svg width="20" height="21" viewBox="0 0 20 21" fill="none" xmlns="http://www.w3.org/2000/svg">
<path d="M13.3332 6.33333C13.3332 5.55836 13.3332 5.17087 13.248 4.85295C13.0168 3.99022 12.3429 3.31635 11.4802 3.08519C11.1623 3 10.7748 3 9.99984 3C9.22486 3 8.83737 3 8.51946 3.08519C7.65673 3.31635 6.98286 3.99022 6.75169 4.85295C6.6665 5.17087 6.6665 5.55836 6.6665 6.33333M4.33317 18H15.6665C16.5999 18 17.0666 18 17.4232 17.8183C17.7368 17.6586 17.9917 17.4036 18.1515 17.09C18.3332 16.7335 18.3332 16.2668 18.3332 15.3333V9C18.3332 8.06658 18.3332 7.59987 18.1515 7.24335C17.9917 6.92975 17.7368 6.67478 17.4232 6.51499C17.0666 6.33333 16.5999 6.33333 15.6665 6.33333H4.33317C3.39975 6.33333 2.93304 6.33333 2.57652 6.51499C2.26292 6.67478 2.00795 6.92975 1.84816 7.24335C1.6665 7.59987 1.6665 8.06658 1.6665 9V15.3333C1.6665 16.2668 1.6665 16.7335 1.84816 17.09C2.00795 17.4036 2.26292 17.6586 2.57652 17.8183C2.93304 18 3.39975 18 4.33317 18Z" stroke="#05203E" stroke-width="1.5" stroke-linecap="round" stroke-linejoin="round"/>
</svg>
