<svg width="20" height="21" viewBox="0 0 20 21" fill="none" xmlns="http://www.w3.org/2000/svg">
<path d="M8.33317 12.6123C9.36112 12.0181 10.6385 12.0181 11.6664 12.6123M1.6665 13L2.25108 7.15426C2.27324 6.93262 2.28432 6.8218 2.30132 6.72673C2.50169 5.60584 3.43417 4.76196 4.56944 4.67412C4.66573 4.66666 4.7771 4.66666 4.99984 4.66666M18.3332 13L17.7486 7.15426C17.7264 6.93263 17.7154 6.8218 17.6984 6.72673C17.498 5.60584 16.5655 4.76196 15.4302 4.67412C15.3339 4.66666 15.2226 4.66666 14.9998 4.66666M7.35686 10.643C8.65861 11.9447 8.65861 14.0553 7.35686 15.357C6.05512 16.6588 3.94457 16.6588 2.64281 15.357C1.34107 14.0553 1.34107 11.9447 2.64281 10.643C3.94456 9.34123 6.05511 9.34123 7.35686 10.643ZM17.3569 10.643C18.6586 11.9447 18.6586 14.0553 17.3569 15.357C16.0551 16.6588 13.9446 16.6588 12.6428 15.357C11.3411 14.0553 11.3411 11.9447 12.6428 10.643C13.9446 9.34123 16.0551 9.34123 17.3569 10.643Z" stroke="#05203E" stroke-width="1.5" stroke-linecap="round" stroke-linejoin="round"/>
</svg>
