<svg width="20" height="21" viewBox="0 0 20 21" fill="none" xmlns="http://www.w3.org/2000/svg">
<path d="M7.57484 8C7.77076 7.44306 8.15746 6.97343 8.66647 6.67428C9.17547 6.37514 9.77392 6.26579 10.3558 6.3656C10.9377 6.46541 11.4655 6.76794 11.8457 7.21961C12.226 7.67128 12.434 8.24294 12.4332 8.83334C12.4332 10.5 9.93317 11.3333 9.93317 11.3333M9.99984 14.6667H10.0082M18.3332 10.5C18.3332 15.1024 14.6022 18.8333 9.99984 18.8333C5.39746 18.8333 1.6665 15.1024 1.6665 10.5C1.6665 5.89763 5.39746 2.16667 9.99984 2.16667C14.6022 2.16667 18.3332 5.89763 18.3332 10.5Z" stroke="#05203E" stroke-width="1.5" stroke-linecap="round" stroke-linejoin="round"/>
</svg>
