<svg width="20" height="20" viewBox="0 0 20 20" fill="none" xmlns="http://www.w3.org/2000/svg">
<path fill-rule="evenodd" clip-rule="evenodd" d="M15.4023 16.4917V16.49L15.4173 16.4542L17.9165 3.85417V3.81417C17.9165 3.5 17.7998 3.22584 17.5481 3.06167C17.3273 2.9175 17.0731 2.9075 16.8948 2.92084C16.7288 2.93585 16.565 2.96939 16.4065 3.02084C16.3389 3.04263 16.2722 3.06709 16.2065 3.09417L16.1956 3.09834L2.26231 8.56417L2.25815 8.56584C2.21579 8.5803 2.17432 8.59727 2.13398 8.61667C2.03489 8.66119 1.93981 8.71416 1.84981 8.775C1.67065 8.89834 1.32981 9.18833 1.38731 9.64833C1.43481 10.03 1.69731 10.2717 1.87481 10.3975C1.97958 10.4709 2.09223 10.5324 2.21065 10.5808L2.23731 10.5925L2.24565 10.595L2.25148 10.5975L4.68981 11.4183C4.68148 11.5708 4.69648 11.7267 4.73731 11.8808L5.95815 16.5133C6.02484 16.7659 6.16895 16.9911 6.37025 17.1575C6.57154 17.324 6.81991 17.4231 7.08046 17.4412C7.34101 17.4592 7.60066 17.3951 7.82295 17.258C8.04524 17.1209 8.21899 16.9176 8.31981 16.6767L10.2265 14.6383L13.5006 17.1483L13.5473 17.1683C13.8448 17.2983 14.1223 17.3392 14.3765 17.305C14.6306 17.27 14.8323 17.1633 14.984 17.0425C15.1594 16.9003 15.2992 16.7191 15.3923 16.5133L15.399 16.4992L15.4015 16.4942L15.4023 16.4917ZM5.94565 11.5625C5.93213 11.5111 5.93534 11.4567 5.95482 11.4073C5.9743 11.3578 6.00904 11.3159 6.05398 11.2875L14.3215 6.0375C14.3215 6.0375 14.8081 5.74167 14.7906 6.0375C14.7906 6.0375 14.8773 6.08917 14.6165 6.33167C14.3698 6.5625 8.72398 12.0133 8.15231 12.565C8.12053 12.5959 8.09826 12.6352 8.08815 12.6783L7.16648 16.195L5.94565 11.5617V11.5625Z" fill="#05203E"/>
</svg>
