<svg width="20" height="21" viewBox="0 0 20 21" fill="none" xmlns="http://www.w3.org/2000/svg">
<path d="M4.1665 12.4053C2.6237 13.0859 1.6665 14.0343 1.6665 15.0833C1.6665 17.1544 5.39746 18.8333 9.99984 18.8333C14.6022 18.8333 18.3332 17.1544 18.3332 15.0833C18.3332 14.0343 17.376 13.0859 15.8332 12.4053M14.9998 7.16667C14.9998 10.5531 11.2498 12.1667 9.99984 14.6667C8.74984 12.1667 4.99984 10.5531 4.99984 7.16667C4.99984 4.40524 7.23841 2.16667 9.99984 2.16667C12.7613 2.16667 14.9998 4.40524 14.9998 7.16667ZM10.8332 7.16667C10.8332 7.62691 10.4601 8 9.99984 8C9.5396 8 9.1665 7.62691 9.1665 7.16667C9.1665 6.70643 9.5396 6.33333 9.99984 6.33333C10.4601 6.33333 10.8332 6.70643 10.8332 7.16667Z" stroke="#05203E" stroke-width="1.5" stroke-linecap="round" stroke-linejoin="round"/>
</svg>
