<svg width="51" height="68" viewBox="0 0 51 68" fill="none" xmlns="http://www.w3.org/2000/svg">
<path d="M31.0157 27.2826C31.2582 27.0646 31.5629 26.9282 31.8868 26.8924C32.0358 27.0362 32.1285 27.2286 32.148 27.4349C31.9531 27.6651 31.7466 27.872 31.7251 28.1998C31.7251 28.3363 31.6277 28.5158 31.499 28.5119C31.3041 28.5119 31.3041 28.2973 31.2807 28.1412C31.2573 27.9852 31.3645 27.7353 31.0429 27.7509C30.9533 27.5988 31.1988 27.4271 31.0137 27.2826" fill="#B8ABB2"/>
<path d="M32.1493 27.4272C32.0446 27.3875 31.959 27.3091 31.9105 27.2083C31.8619 27.1073 31.8539 26.9915 31.8881 26.8848C32.3052 26.7483 32.7066 26.4556 33.1744 26.717L32.1493 27.4272Z" fill="#AFB0AE"/>
<path d="M50.7253 8.96153C51.1149 10.2103 50.9786 11.4844 50.7253 12.7175C50.6085 13.3029 50.0534 13.8492 50.2073 14.4735C50.4021 15.254 49.8723 15.4296 49.5061 15.8783C49.0154 16.4637 48.5518 16.9652 47.804 17.1584C47.804 17.1817 47.8137 17.2032 47.8235 17.2227C47.843 17.2871 47.8916 17.3534 47.7845 17.4178C47.2275 16.8071 46.4718 16.6374 45.6869 16.5085C46.3141 16.7661 46.2225 17.5661 46.7386 17.8881C46.7581 17.8881 46.762 17.931 46.7581 17.9524C46.7192 18.8032 46.8029 19.1232 47.2722 19.9582C47.279 19.9769 47.2823 19.9968 47.282 20.0167C47.1378 20.1455 46.873 19.8743 46.799 20.1436C46.7484 20.3386 46.9548 20.3972 47.0776 20.5026C47.4028 20.7855 47.4475 21.1504 47.5293 21.5757C47.7008 22.4655 48.1234 23.3005 48.396 24.1746C48.6025 24.838 48.9999 25.3999 48.9667 26.2039C48.9472 26.6721 49.1945 27.4623 49.8198 27.8193C49.8814 27.8529 49.9468 27.879 50.0145 27.8974C49.4497 28.9803 50.0417 29.7413 50.7662 30.6291L49.9872 30.2388C49.9483 30.7559 50.2073 31.1871 50.2736 31.6475C49.9756 31.7256 49.9035 31.388 49.6502 31.4329C49.5373 31.8563 49.9522 32.1158 50.0398 32.4826C49.7477 32.6328 49.5802 32.3499 49.3153 32.3577C49.2763 33.0836 49.5491 33.7236 49.7905 34.3948C49.9463 34.8376 50.4683 35.3411 49.7515 35.7801C49.738 35.7801 49.7515 35.823 49.7515 35.8464C49.6737 36.7713 49.2939 37.6805 49.5763 38.623C49.6581 38.896 49.4906 38.9019 49.3524 38.9507C48.8401 39.1341 48.5596 39.4287 48.5149 40.0316C48.4642 40.7145 47.9305 41.2277 47.6111 41.8131C47.5722 41.891 47.3073 41.6043 47.1671 41.9164C46.9489 42.4042 46.8614 42.8101 47.4943 43.0734C47.1827 43.3564 46.8165 43.1457 46.4582 43.3466C47.0424 43.6237 46.0356 44.412 46.9938 44.5446C46.6821 44.8373 46.3374 44.7671 45.9264 44.8178C46.4328 45.2276 45.9264 45.891 46.4991 46.3065C46.3932 46.3507 46.2818 46.3801 46.168 46.3943C45.4669 46.3592 45.3403 46.6948 45.5837 47.2821C45.6421 47.4245 45.6421 47.6489 45.4766 47.5943C44.7365 47.3485 44.5417 48.3982 43.8055 48.2713C43.6692 48.2479 43.3673 48.8839 43.0693 49.163C42.7713 49.442 43.6653 49.163 43.2408 49.5044C43.052 49.6453 42.8497 49.7669 42.6369 49.8674C42.2864 50.0489 43.1901 50.1132 42.6721 50.2771C42.4425 50.3224 42.2086 50.342 41.9748 50.3357C42.1306 50.921 41.2153 50.3689 41.3573 50.9288C41.2464 50.6693 40.9387 50.7337 40.7731 50.5971C40.6621 50.4898 40.6368 50.4527 40.5317 50.5717C40.3369 50.8059 40.2667 51.3522 39.7525 50.9268C39.5306 51.5317 38.7944 51.3951 38.436 51.8322L38.323 51.2468C38.1127 51.8516 37.9919 52.4078 37.1992 52.4175C37.1701 52.398 37.355 52.197 37.1992 52.0273C37.1019 52.1932 37.0046 52.3394 36.9344 52.4878C36.6656 53.0029 36.4806 53.0731 35.9956 52.6946C35.8729 52.601 35.7658 52.5658 35.7269 52.6517C35.4269 53.3072 34.5583 53.6077 34.5778 54.4409C34.5973 55.0555 33.8182 54.8038 33.7676 55.2798C33.7208 55.7092 33.7344 56.1695 33.0762 56.0213C32.9457 55.992 32.8035 56.0544 32.8172 56.1891C32.9107 57.192 32.0381 56.9773 31.6096 56.9832C31.2414 56.9839 30.8844 57.1098 30.5969 57.3402C30.1197 57.6856 29.6367 57.9997 29.0193 58.0271C28.8558 58.0271 28.6824 58.1929 28.7505 57.8183C28.7817 57.6349 28.5247 57.7675 28.4486 57.8378C28.2247 58.0564 28.0279 58.2983 27.8488 58.4973C27.2996 58.1461 26.6666 58.1578 26.0337 58.2242C25.7279 58.2534 25.4006 58.3296 25.1475 58.1539C25.0364 58.0759 25.1085 57.8027 24.8105 57.992C24.4794 58.2066 24.125 58.152 23.7784 57.9275C23.194 57.551 22.563 57.2291 21.9729 56.8545C21.5678 56.5949 21.1471 56.6983 20.7361 56.7373C19.8599 56.8539 18.9712 56.6458 18.2374 56.152C17.7505 55.836 17.3474 55.7149 17.0182 55.1179C16.8234 54.7511 16.5468 54.3569 16.3034 53.9706C16.0223 53.5058 15.6854 53.0773 15.3004 52.6946C15.1953 52.597 15.0783 52.4878 14.9829 52.7063C14.8875 52.9248 14.7434 52.9502 14.6947 52.7063C14.5505 51.9648 14.1922 52.4721 13.9604 52.5951C13.7656 52.6985 13.6488 52.9267 13.4053 53.1941C13.6118 52.4137 13.0899 52.1756 12.5485 51.9161C12.2134 52.1443 12.1589 52.6283 11.9641 53.0634C11.9446 52.1424 11.3799 51.5337 10.8735 50.8917C10.63 51.0635 10.8735 51.2565 10.7566 51.4673C10.4509 51.1668 10.3671 50.7064 9.92305 50.5152L9.85293 51.0186C9.78282 50.9717 9.68933 50.9444 9.67765 50.8956C9.56469 50.4 8.87329 50.3689 8.83238 49.7874C8.80707 49.4244 8.22474 49.8147 8.11761 49.3055C8.00076 48.7474 7.65409 49.3796 7.39701 49.2917C7.27626 49.1239 7.38142 48.9366 7.36389 48.7611C7.36143 48.6248 7.34313 48.4893 7.30936 48.3572C6.65497 48.326 6.32388 47.6353 5.70649 47.5767C5.5312 47.5612 5.2897 47.6118 5.38123 47.3972C5.78244 46.4762 5.26048 46.3299 4.36068 46.3631C5.15336 45.9534 4.4386 45.1924 5.13973 44.8471C4.69177 44.7359 4.36068 44.8471 4.05492 44.5836C4.795 44.369 4.10166 43.7057 4.48339 43.3408C4.28863 43.1457 4.03154 43.2901 3.82509 43.2082C3.54659 43.0988 3.03047 43.095 3.5388 42.5915C3.67124 42.4608 3.73356 42.1662 3.42195 42.2013C3.11032 42.2364 3.19407 41.8345 2.94868 41.8559C3.09279 41.2199 2.58253 41.2218 2.20858 41.0911C2.53384 40.6267 1.58536 40.5253 1.9106 40.057C1.91549 40.0372 1.91538 40.0164 1.91028 39.9967C1.90518 39.977 1.89525 39.9588 1.88139 39.9438C1.29711 39.6824 1.49186 39.0073 1.16077 38.6171C0.913427 38.3244 1.3828 38.3107 1.35553 37.9731C1.27763 37.0952 0.897846 36.2756 0.92706 35.3879C0.92706 35.0835 0.342779 35.2845 0.393416 34.8494C0.5687 34.7128 0.794623 35.2259 0.93485 34.8494C0.956386 34.7998 0.96618 34.7458 0.963469 34.6918C0.960756 34.6376 0.945611 34.5849 0.919215 34.5378C0.892819 34.4906 0.855887 34.4501 0.811301 34.4195C0.766715 34.3889 0.715682 34.3691 0.662185 34.3616C0.56091 34.3382 0.451844 34.2173 0.603757 34.1079C1.05171 33.7957 0.876422 33.4563 0.564806 33.2338C0.206446 33.0095 0.436264 32.5782 0 32.305C1.02444 32.3871 0.701138 31.6417 0.876422 31.2397C0.921121 31.0749 0.921121 30.9011 0.876422 30.7364C0.646605 30.0867 1.26595 29.5521 1.07118 28.9218C1.02249 28.7657 1.09066 28.6954 1.30489 28.5979C1.69442 28.4281 1.75285 27.9287 1.72947 27.5404C1.67884 26.6507 2.02161 25.8351 2.13458 24.9766C2.15023 24.7202 2.2189 24.4698 2.33625 24.2415C2.45359 24.013 2.61705 23.8116 2.81624 23.6498C3.10449 23.4157 3.17849 22.6606 3.44921 22.1787C3.50763 22.0771 3.53101 21.9309 3.6167 21.8723C4.23994 21.4431 3.96727 20.7016 4.24383 20.1397C4.24383 20.0013 4.24383 19.9791 3.97967 19.8154L4.24383 19.4962C4.38093 19.3296 4.24383 19.4399 4.24383 19.3658C4.51455 18.9366 4.54571 18.8402 4.51455 18.7036C4.3529 17.9914 5.2001 17.7281 5.09883 17.09C5.06377 16.8442 4.87486 16.9339 4.82032 16.813C4.60609 17.0784 4.15813 16.9242 4.07245 17.0081C3.55633 17.5544 3.18823 17.0276 2.81819 16.8715C2.36814 16.6673 1.99104 16.3303 1.73726 15.9057C1.15298 15.0218 0.997174 13.9545 0.364202 13.1078C0.196708 12.8853 0.434316 12.6395 0.43042 12.38C0.426526 11.1078 -0.0350569 9.86882 0.192813 8.58497C0.22787 8.38985 0.161651 8.16156 0.259032 7.9606C0.668029 7.9606 0.714771 8.28839 0.687504 8.54595C0.558962 9.79273 0.987436 10.9829 0.987436 12.2063C0.975589 12.3258 0.995252 12.4464 1.04446 12.556C1.09368 12.6655 1.17072 12.7603 1.2679 12.8306C1.76258 13.1273 1.85218 13.5878 1.87164 14.1067C1.87164 14.5828 1.9924 14.9906 2.50268 15.1837C2.69011 15.2866 2.82993 15.4589 2.89219 15.6637C2.96347 15.8403 3.08022 15.9948 3.23052 16.1114C3.38083 16.228 3.55931 16.3027 3.74778 16.3276C3.93626 16.3526 4.12797 16.3271 4.30338 16.2537C4.4788 16.1802 4.63163 16.0615 4.74631 15.9096C5.00535 15.5974 5.37539 15.5193 5.6539 15.3242C6.18364 14.9496 6.94905 14.9926 7.30936 14.3486C7.42622 14.134 7.65993 14.1535 7.86249 14.0853C8.37275 13.9233 8.51493 13.533 8.15852 13.1253C7.83131 12.7506 7.86249 12.4306 8.19747 12.1497C8.53246 11.8687 8.51687 11.6073 8.44092 11.2619C8.36497 10.9166 8.24616 10.5712 8.31238 10.2083C8.3786 9.8454 8.5344 9.61517 8.88497 9.57615C9.03892 9.55502 9.19546 9.58723 9.32865 9.66743C9.46183 9.74762 9.56366 9.871 9.61728 10.0171C10.0263 10.8678 10.0302 10.8483 10.9806 10.6649C11.6818 10.5283 12.3946 10.6259 13.1035 10.6005C13.2203 10.5935 13.3373 10.5935 13.454 10.6005C13.6488 10.62 13.9371 10.4756 14.013 10.7449C14.089 11.0141 13.8065 11.1488 13.5962 11.2288C13.1607 11.4057 12.7012 11.5163 12.2329 11.5566C11.894 11.576 11.6097 11.7068 11.5122 12.0249C11.3448 12.5516 10.9825 12.9868 10.8365 13.494C10.7887 13.6859 10.6984 13.8643 10.5723 14.0164C10.4462 14.1683 10.2875 14.2899 10.1081 14.3721C9.32903 14.7037 8.78369 15.3477 8.08645 15.7769C7.78151 15.9581 7.52236 16.2072 7.32916 16.505C7.13594 16.8028 7.01388 17.1411 6.97243 17.4939C6.92179 17.8646 6.68028 18.0792 6.42125 18.2744C6.25376 18.4051 5.98889 18.5163 6.03173 18.7368C6.15833 19.5172 5.58378 19.9934 5.27995 20.5845C5.17284 20.7953 5.05794 21.0001 4.94886 21.2088C4.76713 21.5174 4.66579 21.8667 4.65422 22.2248C4.64265 22.5828 4.7212 22.938 4.88265 23.2576C4.721 24.0576 4.12308 24.6039 3.71408 25.2537C4.05297 25.9521 3.71408 26.4517 3.27392 26.9706C2.42671 27.9755 2.32349 29.2106 2.35465 30.4534C2.37024 31.0817 2.34102 31.7275 2.63706 32.3266C2.69959 32.428 2.72594 32.5476 2.71179 32.666C2.69764 32.7845 2.64383 32.8945 2.55915 32.9782C2.25727 33.2943 2.36439 33.5909 2.70522 33.7977C3.04605 34.0046 2.94868 34.1743 2.70522 34.383C2.03525 35.0016 2.14821 35.6416 2.98957 35.9869C3.25445 36.0962 3.23303 36.182 3.07916 36.3927C2.40529 37.2942 2.43061 37.618 3.25055 38.4103C3.31661 38.4749 3.36454 38.5558 3.3895 38.6448C3.41446 38.7339 3.41557 38.8279 3.39272 38.9176C3.33355 39.282 3.37989 39.6558 3.52624 39.9947C3.67259 40.3336 3.91284 40.6233 4.21851 40.8297C4.5165 41.0443 4.69957 41.3916 4.99755 41.6218C5.05758 41.6646 5.10202 41.7259 5.12416 41.7963C5.14632 41.8668 5.14493 41.9425 5.12026 42.0121C4.8028 42.6208 5.18842 43.2179 5.12026 43.8188C5.09913 43.9127 5.1101 44.0109 5.15142 44.0979C5.90514 45.2392 6.24208 46.6148 7.18471 47.6294C7.69499 48.1758 8.39223 48.4293 8.94925 48.8977C9.92305 48.5952 10.258 49.4401 10.7917 49.9279C10.9087 50.114 11.0762 50.2629 11.2747 50.3571C11.5961 50.5249 11.9057 50.72 12.1901 50.279C12.3186 50.084 12.4529 50.1952 12.5796 50.3376C12.9691 50.7864 13.3781 51.2117 14.0598 51.1181C14.1552 51.1261 14.2448 51.1676 14.3129 51.2351C15.1894 51.8888 16.1593 52.441 16.6248 53.5102C16.6443 53.5531 16.6638 53.6214 16.6949 53.6312C17.2986 53.795 17.6687 54.3569 18.2686 54.5169C18.5899 54.6047 18.7515 54.2828 18.9502 54.0877C19.0671 53.9745 19.1703 53.8048 19.3592 53.8926C19.4351 53.9314 19.495 53.9955 19.5288 54.0739C19.5626 54.1522 19.568 54.2399 19.5442 54.3219C19.3611 55.155 19.9533 55.2662 20.518 55.434C20.7459 55.4984 20.9523 55.6292 21.1802 55.434C21.4529 55.1998 21.7294 54.9268 22.0702 55.356C22.083 55.3708 22.0993 55.3823 22.1176 55.3892C22.1359 55.3961 22.1557 55.3983 22.1751 55.3956C22.1945 55.3929 22.2129 55.3853 22.2286 55.3736C22.2443 55.362 22.2568 55.3465 22.265 55.3287C22.7266 54.7238 22.8882 55.1335 23.1278 55.5433C23.2953 55.832 23.7784 56.0447 23.977 55.9335C24.7268 55.5081 25.4415 55.9335 26.166 55.8867C26.319 55.8738 26.4671 55.8269 26.5995 55.7492C26.732 55.6715 26.8454 55.5651 26.9314 55.4379C27.3112 54.8233 27.5664 54.9189 27.8663 55.594C28.0611 55.0535 28.2559 54.7804 28.696 55.2916C28.9375 55.5745 29.1985 54.872 29.5373 55.2252C29.7652 55.4593 30.0282 55.6876 30.408 55.4476C30.5638 55.3501 30.7722 55.3619 30.9241 55.233C31.1188 55.0633 31.2669 55.1744 31.407 55.3306C31.4655 55.1706 31.407 55.0125 31.407 54.8545C31.4363 54.5306 31.2864 54.0936 31.5823 53.9218C31.9193 53.7268 32.0615 54.1892 32.2738 54.3745C32.3496 54.439 32.4374 54.4874 32.5323 54.517C32.6272 54.5467 32.727 54.5569 32.8258 54.5471C32.9247 54.5373 33.0206 54.5076 33.1077 54.4598C33.195 54.4121 33.2717 54.3473 33.3333 54.2692C33.8591 53.5667 34.531 52.9697 34.9186 52.1678C35.127 51.7346 35.6976 51.6313 35.8145 51.1219C36.3015 51.3834 36.7182 50.8098 37.2013 51.0088C37.3317 51.0615 37.5129 51.1122 37.581 50.9503C37.9237 50.1503 38.8606 50.2089 39.3825 49.6742C39.6221 49.4303 39.8947 49.4206 40.2201 49.4517C40.7127 49.5006 41.1275 49.2566 41.5307 48.9914C41.6865 48.8938 41.8151 48.7377 42.0273 48.7493C42.0975 48.7493 42.0956 48.9055 42.1676 48.8177C42.5318 48.3806 42.6428 47.7289 43.3362 47.5689C43.5855 47.5104 43.6244 47.1943 43.5465 46.9562C43.4297 46.5856 43.5153 46.371 43.9166 46.2967C44.3178 46.2226 44.4229 45.9905 44.2671 45.6217C44.1113 45.2529 44.1756 45.0597 44.6137 45.0909C44.5943 44.9856 44.5164 45.0129 44.4696 44.9935C44.275 44.9017 43.9204 44.966 43.9439 44.6481C43.9632 44.3671 44.2671 44.3593 44.5008 44.3163C44.724 44.2784 44.9343 44.1857 45.1131 44.0465C45.2918 43.9075 45.4335 43.7262 45.5254 43.519C45.6174 43.3118 45.6568 43.085 45.6401 42.8588C45.6234 42.6328 45.5512 42.4142 45.4298 42.2228C45.1845 41.8462 45.2662 41.7096 45.4883 41.4032C45.7609 41.0326 45.8972 40.5838 46.4621 40.5156C46.6899 40.4882 46.8029 40.2619 46.6471 40.018C46.6079 39.9648 46.5798 39.9042 46.5647 39.8397C46.5495 39.7753 46.5477 39.7085 46.5592 39.6433C46.5706 39.5782 46.5952 39.516 46.6315 39.4607C46.6677 39.4054 46.7147 39.358 46.7698 39.3214C47.0172 39.1263 47.1593 38.9506 47.0074 38.6073C46.91 38.3868 47.1476 38.3107 47.319 38.2171C47.4807 38.1459 47.6122 38.0197 47.6898 37.8607C47.7675 37.7018 47.7865 37.5205 47.7436 37.3488C47.654 36.9312 47.5021 36.5683 46.9841 36.5683C46.8172 36.5742 46.6509 36.5436 46.4971 36.4786C46.3881 36.4259 46.2634 36.2678 46.39 36.225C46.7795 36.0786 46.7406 35.4094 47.3054 35.503C47.444 35.5408 47.592 35.5222 47.7171 35.4514C47.8422 35.3805 47.9343 35.263 47.9734 35.1245C48.1156 34.7811 47.9617 34.5938 47.7436 34.387C47.432 34.0903 47.3152 33.8211 47.8351 33.6065C48.1701 33.466 48.2578 33.1831 48.3123 32.8144C48.4486 31.8856 48.6765 30.9724 48.5889 30.0203C48.5822 29.6648 48.5082 29.3139 48.3708 28.9862C48.176 28.5765 47.6949 28.2389 48.0397 27.6789C48.0747 27.6165 47.9032 27.4974 47.8176 27.4194C47.6676 27.3048 47.5041 27.2092 47.3307 27.1345C46.9139 26.9531 46.688 26.7931 47.2762 26.4907C47.5644 26.3423 47.7747 25.2029 47.5839 24.9415C46.9763 24.0927 46.54 23.0742 45.4415 22.6898C45.274 22.6313 44.7988 22.5533 45.2468 22.1884C45.4026 22.0596 45.2662 21.9387 45.2039 21.8215C45.0832 21.5991 44.9234 21.4158 45.1065 21.1153C45.2896 20.8148 44.9448 20.6548 44.7754 20.5104C44.3859 20.1923 44.534 19.9934 44.8611 19.7885C44.8806 19.1835 44.3645 18.9748 44.012 18.6568C43.6595 18.3387 43.6575 18.3641 44.012 18.091C44.1094 18.0168 44.012 17.453 43.8367 17.3105C43.4744 17.0179 43.2972 16.7134 43.6497 16.2959C44.6956 16.1983 44.7988 16.0618 44.6858 14.9496C44.6469 14.5594 44.5203 14.0911 45.1046 13.9897C45.6305 13.8999 46.0784 14.3467 46.0784 14.9379C46.0733 15.1272 46.0583 15.3161 46.0336 15.5037C46.022 15.6598 45.9557 15.855 46.1778 15.9233C46.259 15.9474 46.346 15.9432 46.4246 15.9113C46.5032 15.8793 46.5686 15.8217 46.61 15.7477C46.9548 15.1526 47.4573 15.211 48.0318 15.3145C49.0173 15.4959 49.2783 15.2462 49.2004 14.2453C49.1696 14.0586 49.1875 13.8669 49.2523 13.6893C49.3171 13.5115 49.4267 13.3535 49.5705 13.2306C50.2248 12.6902 50.3495 11.9722 50.3008 11.1878C50.2689 10.6445 50.2689 10.0999 50.3008 9.55663C50.3164 9.28348 50.3203 8.97129 50.7293 8.96153H50.7253ZM13.1522 10.8015C12.2485 10.8756 11.3351 10.661 10.4255 11.0395C9.98537 11.2249 9.61922 10.8717 9.53547 10.3761C9.46147 9.95272 9.26671 9.61517 8.81487 9.74784C8.39223 9.86882 8.42534 10.2942 8.48961 10.6551C8.53935 10.9555 8.60436 11.2531 8.68437 11.5468C8.71189 11.6108 8.72646 11.6796 8.72724 11.7493C8.72802 11.819 8.71499 11.8882 8.68891 11.9528C8.66283 12.0174 8.6242 12.0762 8.57528 12.1257C8.52636 12.1752 8.46811 12.2146 8.40391 12.2414C8.05919 12.4365 7.65993 12.776 8.41754 13.0219C8.56362 13.0726 8.7428 13.1975 8.61231 13.3965C8.41755 13.6931 8.63179 14.255 8.02803 14.2843C7.63851 14.3038 7.29184 14.3564 7.24898 14.8599C7.24898 14.934 7.11655 15.0745 7.0776 15.055C6.5868 14.9262 6.33361 15.3399 6.00252 15.4647C5.4903 15.6598 5.04429 15.7242 4.70347 16.2452C4.46196 16.6198 3.92442 16.4403 3.50569 16.4871C2.94088 16.5457 2.74612 16.292 2.72664 15.7593C2.7185 15.6783 2.69085 15.6005 2.64607 15.5325C2.60129 15.4645 2.54073 15.4085 2.46957 15.3691C1.49576 15.1583 1.67884 14.3702 1.63988 13.7106C1.6204 13.418 1.55808 13.2033 1.27373 13.1057C0.798518 12.936 0.753724 12.5205 0.738142 12.1302C0.689452 10.8678 0.348621 9.62687 0.484954 8.35277C0.486789 8.269 0.462939 8.18667 0.416623 8.1169C0.370306 8.04712 0.303748 7.99325 0.225923 7.96255C0.582334 6.03677 1.58924 4.38805 2.47151 2.69445C2.56305 2.51884 2.75392 2.52469 2.8513 2.46031C3.38299 2.12081 3.68097 1.58229 4.09776 1.06133C4.26915 1.08085 4.16398 1.34815 4.22825 1.52961C4.75994 0.475989 5.75128 0.534524 6.69781 0.417456C8.51631 0.175129 10.3664 0.420195 12.0595 1.12767C12.1725 1.17645 12.2543 1.33255 12.338 1.06524C12.4218 0.797929 12.5192 0.93646 12.564 1.10426C12.5916 1.27027 12.673 1.42261 12.7954 1.53785C12.9179 1.65311 13.0747 1.72493 13.2418 1.74229C14.0734 1.83985 14.1844 2.54225 14.4299 3.13736C14.5077 3.73636 14.2896 4.18708 13.7287 4.41926C13.6272 4.446 13.5391 4.50946 13.4817 4.59737C13.4241 4.68529 13.4011 4.79144 13.4171 4.89534C13.4288 5.16265 13.5729 5.22314 13.8065 5.28557C14.5272 5.48069 14.5545 5.62702 14.4492 6.40943C14.3675 7.02014 14.3227 7.61524 13.68 8.02889C14.1533 8.224 14.6732 7.76743 14.9323 8.24351C15.1766 8.66839 15.2725 9.16272 15.2049 9.64835C15.1756 9.68954 15.1367 9.72296 15.0916 9.74574C15.0464 9.76851 14.9964 9.77994 14.9459 9.77907C15.3499 9.89417 14.6517 9.30488 14.905 9.64054C15.0296 9.92931 15.1855 10.2396 14.6207 10.06C14.2603 9.58786 14.7881 10.5927 14.3246 10.5771C13.9231 10.5583 13.5228 10.6345 13.156 10.7995L13.1522 10.8015ZM50.7253 8.96153C50.4059 9.12738 50.48 9.42982 50.4566 9.70883C50.3787 10.5829 50.5735 11.4551 50.4118 12.3429C50.3567 12.6292 50.197 12.8844 49.9639 13.0589C49.512 13.4492 49.2666 13.8531 49.3796 14.5107C49.5198 15.291 49.101 15.654 48.3084 15.5564C48.0978 15.5438 47.8898 15.5045 47.6891 15.4393C47.284 15.2794 46.9996 15.3496 46.836 15.771C46.8044 15.8524 46.7568 15.9265 46.6959 15.989C46.6352 16.0516 46.5626 16.1012 46.4822 16.135C46.402 16.1688 46.3157 16.1862 46.2286 16.1861C46.1415 16.1858 46.0553 16.1682 45.9752 16.1339C45.6733 16.0286 45.8486 15.6715 45.8817 15.4159C45.9499 14.8755 46.096 14.3232 45.2973 14.1613C44.863 14.0735 44.7911 14.2589 44.8105 14.5984C44.8219 14.8037 44.8447 15.0083 44.8787 15.211C45.0423 16.2061 44.6294 16.5866 43.6439 16.3485C43.5153 16.3623 43.4492 16.2803 43.4199 16.1769C43.4199 15.4608 43.2836 14.8228 42.5941 14.4208C42.2884 14.2394 42.2299 13.8862 42.1852 13.5487C42.1131 13.0024 42.0332 12.4795 41.4567 12.1829C41.1782 12.0385 41.1354 11.7224 41.2619 11.4278C41.5249 10.8424 41.1879 10.7839 40.7361 10.8073C40.5944 10.8114 40.4538 10.833 40.3174 10.8717C39.3533 11.1644 39.3533 11.1644 38.8567 10.2942C38.8242 10.2172 38.7763 10.1478 38.716 10.0901C38.6557 10.0324 38.5843 9.98762 38.5061 9.95858C37.8478 9.80248 37.7855 9.3264 37.7777 8.76251C37.7777 8.26693 37.6413 7.78694 37.6335 7.27964C37.6335 7.10989 37.5674 6.90893 37.3745 6.90308C37.1369 6.89332 37.1797 7.12746 37.1603 7.27379C37.1462 7.43934 37.1462 7.60579 37.1603 7.77134C37.1603 8.20059 37.0862 8.60057 36.5624 8.66886C36.1048 8.7274 35.6334 8.75667 35.4717 8.16742C35.3939 7.88645 35.1446 7.77718 34.9653 7.59378C34.5914 7.20355 34.642 6.91478 35.1465 6.68845C35.6022 6.49333 35.8827 6.05432 36.3345 5.82995C36.6072 5.69336 36.5293 5.31679 36.5293 5.03778C36.5293 4.45243 36.5877 3.8905 37.2499 3.64465C37.3363 3.60555 37.4057 3.53617 37.4446 3.44954C37.6199 3.08663 37.7524 2.66908 38.2431 2.63592C39.0378 2.57738 39.8363 2.4408 40.6349 2.63592C40.8802 2.68859 40.927 2.86224 40.8295 3.06517C40.5803 3.60563 40.8744 3.62319 41.2776 3.55685C41.4886 3.52733 41.7035 3.55427 41.9008 3.6349C42.0508 3.69343 42.228 3.8144 42.3234 3.58027C42.36 3.4911 42.3623 3.39152 42.3299 3.30073C42.2976 3.20994 42.2328 3.13436 42.1481 3.08858C42.088 3.05025 42.0222 3.0213 41.9534 3.00273C41.1413 2.72957 41.0224 2.57347 41.0692 1.85155C41.1197 1.07109 41.4586 0.647691 42.1754 0.520866C42.4091 0.481843 42.635 0.423309 42.8707 0.395992C43.6984 0.29063 43.8055 0.35697 43.8445 1.17645C43.86 1.49839 43.9711 1.6096 44.2827 1.52181C44.3723 1.49449 44.2574 1.52181 44.3509 1.5023C45.866 1.27401 46.3861 1.69741 46.4309 3.2193C46.6647 3.26808 46.6647 3.0398 46.7679 2.93248C47.2859 2.39202 47.989 2.46421 48.3259 3.14321C48.4795 3.46474 48.7358 3.72569 49.0544 3.88464C49.2381 3.96696 49.3909 4.10609 49.49 4.28164C49.5892 4.4572 49.6297 4.65996 49.6055 4.86022C49.5763 5.35776 49.2413 5.40069 48.8848 5.47288C48.5285 5.54507 48.4662 5.79092 48.4759 6.11677C48.4954 6.7021 48.6415 7.28745 48.5538 7.87279C48.5538 7.9645 48.6979 7.8845 48.6044 7.89816C48.5849 7.89816 48.5849 7.87865 48.5849 7.83963C48.5594 7.6614 48.5995 7.47997 48.6977 7.32918C48.7959 7.17839 48.9455 7.06853 49.1186 7.02014C49.4847 6.90308 49.8041 7.03965 50.0924 7.28355C50.4819 7.6094 50.4955 8.12645 50.741 8.52252C50.741 8.66497 50.7215 8.80545 50.7156 8.94788L50.7253 8.96153ZM50.7488 8.53228C50.4118 8.52058 50.4235 8.21424 50.3592 8.01523C50.278 7.76866 50.1352 7.54702 49.9444 7.37135C49.8371 7.24624 49.6906 7.16145 49.5288 7.13096C49.367 7.10045 49.1996 7.12606 49.0544 7.20355C48.7564 7.3655 48.5675 7.66012 48.7914 8.03865C48.8848 8.20059 48.918 8.38399 48.6979 8.42887C48.6628 8.43208 48.6274 8.42807 48.5939 8.41708C48.5603 8.4061 48.5294 8.38838 48.503 8.36499C48.4766 8.3416 48.4552 8.31306 48.4401 8.28109C48.425 8.24914 48.4166 8.21443 48.4155 8.17913C48.4505 7.37915 48.2947 6.5987 48.25 5.81238C48.2305 5.43581 48.5889 5.28557 48.9511 5.25825C49.1459 5.24265 49.4711 5.3363 49.4224 5.00851C49.3796 4.71584 49.6367 4.31195 49.1887 4.13049C48.6629 3.91977 48.2032 3.67392 48.098 3.01834C48.0851 2.95944 48.0586 2.90436 48.0209 2.85742C47.983 2.81049 47.9349 2.77297 47.8801 2.74783C47.8254 2.72269 47.7656 2.71059 47.7054 2.7125C47.6452 2.71441 47.5863 2.73027 47.5333 2.75883C47.3073 2.89542 46.8555 2.67298 46.8594 3.18808C46.8594 3.57831 46.5672 3.59782 46.3101 3.50417C46.0531 3.41052 46.0492 3.19589 46.1738 2.91883C46.3802 2.46617 45.9323 1.70912 45.4395 1.6701C45.0501 1.64083 44.6605 1.48863 44.271 1.69351C43.7568 1.96666 43.601 1.73838 43.6321 1.22523C43.6751 0.511111 43.5193 0.386236 42.7947 0.503306C41.5735 0.69842 41.1392 1.15108 41.2367 2.16959C41.2678 2.52079 41.2698 2.91102 41.8501 2.75494C42.1462 2.67689 42.4345 2.93053 42.5356 3.14516C42.6369 3.35978 42.5356 3.69538 42.4617 3.95294C42.3993 4.14806 42.2338 4.01733 42.1208 3.93732C41.8991 3.75793 41.6186 3.66753 41.334 3.68368C41.0574 3.70905 40.7693 4.00367 40.5043 3.62514C40.2394 3.24662 40.742 3.11784 40.7575 2.83688C40.0116 2.53641 39.2501 2.81737 38.5022 2.75883C38.0426 2.72371 37.7232 2.90517 37.6842 3.41637C37.6725 3.56466 37.6199 3.73246 37.4758 3.75587C36.5605 3.90221 36.6968 4.61438 36.6968 5.21923C36.7085 5.72653 36.6383 6.11091 36.0482 6.1948C35.573 6.26309 35.4834 6.92844 34.9108 6.92844C34.7803 6.92844 34.8523 7.34988 35.0939 7.48841C35.2384 7.56001 35.3642 7.66427 35.4615 7.79293C35.5588 7.92161 35.625 8.07118 35.6548 8.22986C35.7678 8.70594 36.2391 8.50301 36.5663 8.50887C36.8935 8.51473 36.9558 8.25521 36.987 7.96841C37.026 7.64451 36.7922 7.2816 37.0201 7.02014C37.1409 6.88747 36.8526 6.48357 37.2869 6.61431C37.5284 6.68455 37.8459 6.73137 37.8166 7.07868C37.7582 7.72256 37.9978 8.34107 37.9667 8.97715C37.9472 9.36737 37.986 9.64833 38.473 9.72638C38.6419 9.74033 38.7996 9.81644 38.9157 9.94003C39.032 10.0636 39.0983 10.2259 39.102 10.3956C39.1215 11.1254 39.733 11.0122 39.9785 10.8054C40.368 10.4737 40.7809 10.6688 41.1627 10.5947C41.5444 10.5205 41.8092 10.8678 41.5385 11.2385C41.149 11.7809 41.3632 12.019 41.8637 12.2531C42.4714 12.5302 42.2378 13.1584 42.3468 13.6189C42.3878 13.9213 42.5449 14.1958 42.785 14.3838C43.4549 14.858 43.6945 15.4413 43.5056 16.1885C42.9214 16.1593 42.4383 15.7593 41.8404 15.7204C41.5716 15.7066 41.6223 15.4588 41.782 15.3028C41.9394 15.1319 42.1546 15.0255 42.3857 15.0042C41.8043 14.5518 41.3286 13.9779 40.9912 13.3224C40.9367 13.2189 40.9406 13.0492 40.8549 13.0005C40.1226 12.5906 39.8324 11.6873 39.0339 11.3536C38.6231 11.1908 38.2796 10.8929 38.0601 10.5088C37.6901 9.90785 36.9071 9.76151 36.3072 9.40445C35.4445 8.89129 34.5545 8.42887 33.7753 7.76939C33.713 7.43769 33.6429 7.12161 33.2106 7.4533C32.2036 7.2855 31.2727 6.87966 30.3222 6.53626C30.1801 6.48748 29.9854 6.1948 29.8802 6.61821C29.8296 6.81333 29.588 6.76455 29.4576 6.66113C28.7272 6.07578 27.8488 6.23969 27.0191 6.15774C26.5244 6.15774 26.0297 6.13823 25.5273 6.16944C25.4065 6.36455 25.8272 6.54406 25.5468 6.70406C25.3325 6.82503 25.1377 6.68845 24.9624 6.55967C24.8223 6.45626 24.7677 6.0914 24.4892 6.42895C24.4503 6.47967 24.2944 6.45236 24.2165 6.40943C23.0869 5.82409 21.971 6.28066 20.8745 6.51284C20.076 6.68259 19.332 7.09819 18.5257 7.27964C17.6842 7.5294 16.9792 8.04449 16.2274 8.46985C15.8574 8.67862 15.7405 9.08641 15.6042 9.44542C15.501 9.73224 15.4094 9.86102 15.1251 9.64054C15.1835 9.23665 14.8233 8.93422 14.905 8.4835C14.9556 8.20645 14.6071 8.09327 14.2623 8.21034C14.0091 8.304 13.6586 8.57521 13.4735 8.13815C13.3275 7.79085 13.6683 7.74793 13.8884 7.61134C14.1084 7.47476 14.4571 5.92749 14.3481 5.72458C14.2311 5.48459 13.7968 5.38703 13.2573 5.48069C13.1151 5.26606 13.3313 5.05143 13.2437 4.8134C13.1327 4.51096 13.1619 4.27097 13.6333 4.22805C14.2565 4.18512 14.159 3.49637 14.4123 3.1159C15.2108 3.31101 14.7122 3.95489 14.8019 4.37243C15.0491 5.42216 15.3276 6.47578 15.3861 7.49427C16.3599 7.84158 16.7825 6.95965 17.4155 6.46016C17.7408 6.20652 18.3892 6.30993 18.3114 5.62117C18.9891 6.12456 19.4936 5.35386 20.1091 5.37338C21.0984 5.40459 22.0099 4.99875 22.9681 4.84071C23.2213 4.79778 23.6303 5.07094 23.825 4.87388C24.5145 4.22025 25.3715 5.25435 25.9167 4.51291C25.9942 4.45614 26.0834 4.41747 26.1778 4.39975C26.5673 4.28268 26.5829 4.77632 26.8691 4.77438C26.8789 4.77438 26.9042 4.94997 27.0639 4.96948C28.1078 5.05534 29.1576 5.13339 30.1957 5.27582C30.8714 5.36947 31.594 5.4163 32.1316 5.91384C32.5211 6.26504 32.9554 5.97238 33.3703 6.12847C33.9378 6.31547 34.5268 6.42955 35.1232 6.46797C35.275 6.48748 35.6236 6.51675 35.5438 6.03872C35.4717 5.60166 35.8418 5.18021 35.9664 4.7256C36.2294 3.75002 37.135 3.03199 37.1097 1.91009C37.1097 1.71497 38.7846 0.985239 39.0378 0.934509C39.7779 0.790124 40.5102 0.634032 41.2445 0.479891C41.9183 0.343311 42.6467 0.444771 43.2699 0.03503C43.4647 -0.0859413 43.6925 0.144294 43.938 0.156001C44.7754 0.191122 45.5739 0.351116 46.0998 1.14133C46.54 1.79887 47.4437 1.84374 47.9559 2.42323C48.3785 2.90322 49.0894 3.12565 49.2277 3.85538C50.6183 4.51877 50.1294 5.9236 50.4157 7.00063C50.5521 7.49622 50.9688 7.9645 50.741 8.54204L50.7488 8.53228ZM10.0905 11.7946C10.5696 11.8141 10.706 12.1419 10.7216 12.5106C10.7371 12.8795 10.3983 13.057 10.1042 13.0375C9.69518 13.0219 9.51989 12.6473 9.48873 12.2882C9.43809 11.859 9.80814 11.8433 10.0925 11.7927L10.0905 11.7946ZM10.7255 50.0489C10.9981 49.9357 11.1539 50.2049 11.3759 50.2576C11.4149 50.2576 11.5707 50.359 11.4149 50.439C11.3292 50.465 11.2394 50.4749 11.15 50.4684C10.965 50.3708 10.741 50.3162 10.7255 50.0508V50.0489ZM49.8529 5.8397C49.9305 5.84542 50.0032 5.87967 50.0571 5.93584C50.111 5.99202 50.1424 6.06618 50.145 6.14407C50.1566 6.32749 50.032 6.37822 49.8781 6.37822C49.6737 6.37822 49.4887 6.29627 49.5218 6.05823C49.5373 5.91384 49.6776 5.83774 49.8529 5.83774V5.8397ZM33.8591 7.68158C33.6466 7.6315 33.4515 7.52501 33.2943 7.3733C33.4209 7.21721 33.4423 6.85625 33.6683 6.93039C34.0052 7.04161 33.8162 7.41817 33.863 7.67768L33.8591 7.68158ZM20.0156 44.7651C19.8208 44.5307 19.6773 44.258 19.5941 43.9646C19.5109 43.6712 19.4899 43.3637 19.5325 43.0618C19.6183 42.0175 19.8942 40.9978 20.3467 40.053C20.335 40.8335 19.9844 41.5653 20.0544 42.3515C20.0896 42.652 19.9221 42.9525 20.0351 43.2959C20.3662 43.2179 20.7166 43.3212 21.0088 43.2101C21.7158 42.9447 22.3566 43.331 23.0304 43.3603C23.3225 43.3739 23.6147 43.5047 23.9147 43.3603C24.1483 43.2549 24.3041 43.3798 24.4717 43.5398C24.8942 43.9457 25.3539 44.1836 25.9188 43.7817C26.0656 43.7039 26.2339 43.6765 26.3979 43.7037C26.9084 43.6879 27.4127 43.5863 27.8897 43.4033C28.4408 43.2217 29.0583 42.9779 29.6893 43.1496C29.8256 43.1893 29.9651 43.2174 30.106 43.2334C30.9299 43.3076 30.9339 43.3115 30.9942 42.4882C30.9948 42.2735 31.057 42.0635 31.1734 41.8832C31.2081 41.8761 31.2441 41.8777 31.2781 41.8879C31.3121 41.8982 31.343 41.9166 31.3682 41.9418C31.9056 43.0969 31.7187 44.252 30.8423 45.1319C30.3696 45.595 29.8659 46.0253 29.3348 46.4197C28.6922 46.927 27.9715 47.3407 27.3873 47.9318C27.2033 48.0818 26.9828 48.1802 26.7484 48.2167C26.633 48.2453 26.532 48.3154 26.4646 48.4135C26.3971 48.5116 26.3678 48.6312 26.3822 48.7493C26.3668 48.8778 26.389 49.0079 26.446 49.1241C26.5031 49.2401 26.5925 49.337 26.7036 49.403C27.3502 49.7933 28.1292 49.6176 28.7914 49.9239C29.1362 49.3855 29.7886 49.9239 30.2287 49.4947C30.4235 49.3114 30.9182 49.5298 31.2902 49.3582C31.8589 49.0947 32.5114 48.9874 32.7587 48.2888C32.788 48.2109 32.9145 48.1991 33.0119 48.1855C34.2584 47.8285 35.3159 47.2567 35.6996 45.8773C35.8691 45.2724 36.1164 44.6871 36.1943 43.9925C36.8078 44.5778 36.763 45.1046 36.1164 46.0353C35.7035 46.3475 36.4164 46.9212 35.8477 47.1962L35.2186 48.0313C34.7122 48.0469 34.4396 48.4215 34.1278 48.7455C33.2846 49.122 32.3751 49.3991 31.6096 49.9162C30.7468 50.4859 29.7789 50.6108 28.8401 50.8332C28.4272 50.9308 27.9793 50.8683 27.6014 51.1454C27.5816 51.1648 27.5578 51.1797 27.5316 51.1891C27.5056 51.1985 27.4777 51.2023 27.4501 51.2C27.4224 51.1978 27.3955 51.1897 27.3713 51.1762C27.3471 51.1628 27.3259 51.1442 27.3093 51.1219C26.6666 50.4625 25.8798 50.7317 25.1202 50.8254C24.3607 50.919 23.6751 50.7708 22.9486 50.6498C22.3351 50.5522 21.7022 50.3962 21.0692 50.4235C19.9007 50.4741 19.0768 49.7952 18.2004 49.2001C18.2299 49.1378 18.2748 49.084 18.3309 49.0439C18.882 48.7436 19.2307 49.3308 19.7098 49.3639C20.333 49.4089 20.9211 49.7738 21.5756 49.6117C21.6223 49.6001 21.673 49.5786 21.7119 49.6001C22.6701 50.1464 23.5524 49.686 24.4385 49.3855C24.5996 49.3428 24.7417 49.2471 24.8418 49.1136C24.9418 48.9801 24.9939 48.8168 24.9898 48.6498C24.9898 48.3533 24.834 48.0645 24.5476 48.1387C23.9185 48.2947 23.6381 47.8264 23.2135 47.5534C22.201 46.9104 21.2635 46.1558 20.4187 45.3036C20.257 45.1436 20.0292 45.0305 20.0039 44.7573L20.0156 44.7651ZM10.3087 34.6816C10.484 34.424 10.6008 34.1548 10.2249 33.9889C10.073 33.9206 9.80424 34.0025 9.83541 33.7352C9.85488 33.5246 10.1198 33.5284 10.2834 33.4465C10.3451 33.4106 10.4049 33.3715 10.4625 33.3295C10.2288 33.1031 9.84904 33.2046 9.66402 32.9001C9.8354 32.7285 10.0808 32.9295 10.2931 32.8222C10.0847 32.588 9.72439 32.5061 9.76335 32.1275C10.3087 32.0377 10.5424 32.4455 10.8014 32.7909C11.1909 33.3411 11.4363 33.9811 11.7168 34.5919C12.1081 35.5869 12.7751 36.4493 13.6391 37.0776C13.8339 37.2259 14.1221 37.3078 14.1357 37.6278C13.7345 37.7801 13.3294 37.9752 13.0918 37.382C13.0723 37.3293 12.8425 37.2942 12.7666 37.3429C12.3283 37.6161 12.1628 37.2396 11.968 37.0112C11.709 36.6991 11.2124 36.2425 10.9553 36.1567L10.819 36.1177C11.1345 35.4659 9.98148 35.3372 10.3126 34.6816H10.3087ZM40.9601 32.8709C41.0243 32.906 41.2327 32.7499 41.1549 32.9606C41.0633 33.2006 40.7556 33.1558 40.5374 33.2768C40.6154 33.4992 40.8335 33.4563 40.9737 33.5422C41.2074 33.6846 41.2776 33.8816 40.9406 33.9441C40.4479 34.0357 40.5005 34.2797 40.6192 34.6562C40.7167 34.9567 40.4537 35.2494 40.3856 35.4952C40.1226 36.3927 38.9404 36.4181 38.8275 37.3625C38.7885 37.6688 38.6424 37.3625 38.547 37.3761C38.2821 37.4112 37.9374 37.0561 37.7679 37.6415C37.7193 37.8171 37.133 37.7976 36.7941 37.6161C36.7831 37.5477 36.7991 37.4776 36.839 37.421C37.6647 36.8025 38.5042 36.2015 39.0008 35.2435C39.2158 34.8271 39.4031 34.3969 39.5617 33.9557C39.6162 33.7704 39.7565 33.6338 39.8149 33.4484C39.9804 32.8436 40.3797 32.6914 40.9484 32.8631L40.9601 32.8709ZM41.338 31.868C41.7274 31.4388 42.2669 31.3412 42.8065 31.2729C43.0596 31.2397 43.3517 31.3002 43.3673 30.912C43.673 31.2866 43.6887 31.5363 43.1024 31.5285C42.5766 31.5285 42.1286 31.7626 41.6691 31.989C41.5521 31.9695 41.3418 32.2095 41.338 31.872V31.868ZM35.1971 38.4493L35.8651 38.102C36.0404 38.4219 35.5925 38.74 35.8651 39.0619C35.9352 39.2317 35.8456 39.257 35.7093 39.2297C35.7328 38.9644 35.5691 38.8531 35.349 38.8141C35.088 38.7673 35.1543 38.6073 35.2029 38.4493H35.1971ZM15.1407 38.1176C15.4367 38.0552 15.54 38.3712 15.7697 38.4376C15.7931 38.783 15.4134 38.9604 15.3102 38.8863C15.194 38.7976 15.1132 38.6702 15.0822 38.5273C15.0511 38.3843 15.0719 38.2349 15.1407 38.1058V38.1176ZM14.7375 40.3302C14.8602 39.9205 15.1855 39.7448 14.9713 39.4365C14.8992 39.3292 14.9713 39.1341 15.0491 39.1244C15.2082 39.1144 15.3656 39.1614 15.4932 39.257C15.6296 39.3702 15.392 39.4268 15.388 39.5106C15.3725 39.8911 15.0569 39.9906 14.7375 40.3302ZM35.7035 39.2297L35.8593 39.0619C36.2722 39.2376 35.7678 39.5829 35.9956 39.7936L36.2294 40.1838C35.7502 40.0941 35.6256 39.6706 35.4405 39.3643C35.3199 39.1692 35.5963 39.2551 35.7035 39.2376V39.2297ZM14.9556 26.4517C14.4765 26.8965 13.8748 27.0917 13.2709 27.2809C13.4171 26.2234 13.8358 26.0185 14.9556 26.4496V26.4517ZM13.2846 27.2672C13.0742 27.8136 12.6477 28.1452 12.1589 28.4184C11.9641 28.0867 11.8045 27.8468 12.3088 27.5345C12.6023 27.3562 12.9395 27.2637 13.2827 27.2672H13.2846ZM39.0826 29.2925L38.5645 28.434C39.0125 28.434 39.4293 28.434 39.3922 29.1032C39.3728 29.4427 39.587 29.6886 40.0077 29.3413L39.6766 29.8876L39.0806 29.2905L39.0826 29.2925ZM31.1597 41.9359C31.1185 41.9419 31.0763 41.9351 31.039 41.9164C30.9806 41.4832 30.9884 41.0033 30.6222 40.7067C30.4275 40.5467 30.4858 40.3887 30.4703 40.2229C30.4703 40.1838 30.5521 40.0862 30.591 40.0902C30.8326 40.1097 30.8248 40.336 30.9027 40.4921C30.9374 40.5497 30.9764 40.6045 31.0195 40.656L31.2824 41.9399H31.2241L31.1617 41.9282L31.1597 41.9359ZM38.5373 28.4067C38.1945 28.2935 38.0464 27.9871 37.8595 27.7179C38.4126 27.6204 38.658 27.835 38.5373 28.4067ZM11.8745 28.5374C12.1706 28.8203 12.1316 28.9276 11.598 29.2594C11.8122 29.0643 11.3409 28.6096 11.8706 28.5374H11.8745ZM16.9675 47.9182C17.2499 48.1563 17.4194 48.6401 17.9413 48.3415C18.0524 48.2791 18.1887 48.3064 18.214 48.5211C18.2615 48.7434 18.3313 48.9605 18.4224 49.1689L18.2023 49.202C17.5265 49.0342 16.7513 49.0498 16.4495 48.2264C15.799 48.4079 15.6704 47.6158 15.1563 47.5045C15.0516 47.4138 14.973 47.2967 14.9284 47.1653C14.8839 47.0339 14.8752 46.8931 14.903 46.7572C14.9511 46.5853 14.9624 46.4053 14.9362 46.2289C14.9101 46.0523 14.847 45.8833 14.7512 45.7329C14.6181 45.5022 14.536 45.2455 14.5104 44.9802C14.4849 44.7149 14.5165 44.4473 14.6031 44.1954C15.0316 45.2763 14.8505 46.7045 16.2197 47.368C16.3404 47.7191 16.7183 47.7328 16.9597 47.928L16.9675 47.9182ZM14.4259 37.2396C14.8875 37.0444 15.2498 37.5244 15.6958 37.4347C15.8204 37.5712 16.28 37.5166 15.9723 37.9068C15.388 37.86 14.9089 37.5361 14.4259 37.2434" fill="#000105"/>
<path d="M32.6752 30.6774C32.7004 29.6667 33.7522 29.2453 35.8225 29.3975C34.7513 30.0336 33.349 29.4364 32.6771 30.6793L32.6752 30.6774ZM34.7007 31.5593C34.2371 32.0413 33.3062 32.133 32.8641 31.7038C32.8 31.7179 32.7349 31.7258 32.6693 31.7271C32.5135 31.7135 32.3305 31.7115 32.3227 31.489C32.3257 31.4568 32.3362 31.4256 32.353 31.3979C32.3699 31.3702 32.3928 31.3466 32.42 31.3291C32.5758 31.2452 32.6693 31.3935 32.7706 31.4617C32.8329 31.5008 32.8446 31.614 32.8797 31.696L32.87 31.7038L32.8816 31.6939C33.2127 31.6939 33.5438 31.7213 33.8671 31.6939C34.4514 31.6354 34.8662 31.3038 34.911 30.7184C34.95 30.2501 35.17 30.2052 35.5479 30.1915C35.2654 30.6793 35.0708 31.1671 34.6988 31.5574L34.7007 31.5593ZM39.4002 31.2471C39.4002 31.013 39.0341 30.9838 39.1081 30.7106C39.0893 30.618 39.0496 30.5309 38.9923 30.4559C38.935 30.3809 38.8613 30.3198 38.777 30.2774C38.5822 30.1409 38.9133 30.1994 38.8355 30.1018C38.8277 29.975 38.816 29.8482 38.8063 29.7116C38.1012 27.9087 36.736 26.9176 34.8857 26.5273C34.7106 26.5423 34.5374 26.5763 34.3696 26.6287C33.9703 26.3225 33.5633 26.4727 33.1563 26.5703C32.7004 26.6873 32.4005 27.0308 32.0656 27.3214C31.8371 27.5073 31.6607 27.7494 31.5534 28.0238C31.3586 27.9732 31.4093 27.4697 31.0411 27.7468L31.0216 27.9965C30.9142 28.7066 30.8751 29.4253 30.9048 30.1428C30.9048 30.3691 31.0996 30.5915 30.9827 30.8647C30.7451 31.3798 30.8932 31.8403 31.2749 32.2111C31.462 32.3907 31.5805 32.6302 31.6098 32.8881C31.685 33.5633 31.9391 34.206 32.346 34.7494C32.7529 35.293 33.2976 35.7174 33.9236 35.9787C34.5195 36.246 35.1077 36.322 35.1954 37.1065C35.209 37.2235 35.3902 37.3016 35.507 37.3796C36.0251 37.5006 36.4223 37.1571 36.8704 37.0187C37.6337 36.1855 38.6621 35.565 38.9835 34.3788C38.9745 34.0603 39.0555 33.7458 39.2172 33.4715C39.3419 32.8354 39.0886 32.1641 39.373 31.5398H39.3964C39.4338 31.4991 39.4545 31.4459 39.4545 31.3906C39.4545 31.3353 39.4338 31.282 39.3964 31.2414L39.4002 31.2471ZM18.6622 31.5554C18.5336 31.7857 18.3311 31.7506 18.1266 31.692V31.6998H18.1013C17.6865 32.129 16.7905 32.0374 16.2997 31.5496C15.9102 31.1593 15.7271 30.6793 15.4388 30.1604C15.6804 30.2774 15.9394 30.1409 16.0524 30.4588C16.4808 31.6784 16.623 31.7662 17.9162 31.692C17.9779 31.6882 18.0396 31.6882 18.1013 31.692L18.1149 31.6784H18.1266C18.1422 31.3915 18.3213 31.2881 18.5745 31.3155C18.6622 31.3349 18.7109 31.4657 18.6622 31.5554ZM15.3278 29.3896C15.8537 29.4813 16.3679 29.3702 16.8859 29.3896C17.6649 29.417 18.3603 30.0472 18.3233 30.8198C17.6416 29.4228 16.253 30.0199 15.3298 29.3877L15.3278 29.3896ZM19.3594 32.3613C19.641 32.1837 19.9111 31.9882 20.1676 31.7759C20.6292 31.3525 20.5572 31.1906 19.9729 30.9271C19.9145 30.9018 19.5191 30.6501 19.6281 30.5369C19.9709 30.1818 20.0567 29.8637 19.5853 29.3858L20.0741 29.6433C19.3263 29.1126 20.2203 28.3321 19.8015 27.737C19.6165 28.0161 19.8463 28.381 19.4119 28.5624C19.2873 27.6454 18.594 27.1965 17.9241 26.7244C17.917 26.7285 17.9093 26.7309 17.9013 26.7319C17.8934 26.7328 17.8853 26.732 17.8776 26.7296C17.8699 26.7272 17.8628 26.7232 17.8568 26.718C17.8506 26.7127 17.8457 26.7062 17.8423 26.699C17.6085 26.699 17.369 26.699 17.1333 26.699C16.382 26.7128 15.6412 26.8775 14.9547 27.1832C14.268 27.4889 13.6497 27.9295 13.1362 28.479C12.6225 29.0284 12.2242 29.6754 11.9648 30.3818C11.7053 31.0883 11.5899 31.8396 11.6254 32.5916C11.6746 33.1093 11.7527 33.6239 11.8592 34.1329L11.8981 34.3631C12.572 35.4753 13.1485 36.6714 14.43 37.247C14.7086 37.4089 15.063 37.3503 15.3298 37.5787C15.3595 37.6078 15.3969 37.6277 15.4377 37.6363C15.4784 37.6448 15.5207 37.6414 15.5596 37.6267C15.5985 37.612 15.6324 37.5864 15.6572 37.5529C15.682 37.5195 15.6969 37.4797 15.6998 37.4381C15.6103 37.3523 15.2675 37.3543 15.544 37.1396C15.7057 37.0167 15.8946 36.9445 15.7875 36.722C15.5149 36.1368 16.1771 36.0274 16.3212 36.0196C17.5091 35.9494 18.185 35.1318 18.6914 34.2637C18.8432 34.01 19.4314 33.8148 19.1646 33.3192C19.8657 33.251 19.9904 32.6032 20.3585 32.1486C19.9963 32.1486 19.7256 32.49 19.3653 32.3632L19.3594 32.3613Z" fill="#000105"/>
<path d="M39.687 34.014C39.6235 33.9526 39.5861 33.8691 39.5825 33.7808C39.5788 33.6925 39.6093 33.6062 39.6676 33.5398C39.7844 32.8765 40.6277 31.9906 41.2685 31.8618C40.7485 32.012 40.0122 33.5203 39.687 34.0081V34.014ZM24.3594 31.8188C24.2094 31.4715 23.8842 31.0618 24.5288 31.0774C25.0606 31.0891 25.6195 30.7263 26.0869 31.2726C25.7832 31.145 25.4442 31.129 25.1298 31.2276C24.8155 31.3262 24.546 31.5328 24.3692 31.8111L24.3594 31.8188ZM39.6442 29.8872C39.8195 30.3361 40.3454 30.4472 40.5635 30.8823C40.6667 31.0891 40.8946 30.8687 41.0582 30.7985C41.4159 30.6232 41.8121 30.5416 42.2098 30.561C42.6076 30.5805 42.9939 30.7004 43.333 30.9096C43.4556 31.1964 43.3563 31.3936 43.0505 31.3915C42.4229 31.394 41.8094 31.5784 41.284 31.9223C41.284 31.9223 40.2051 32.9838 39.6832 33.6062C39.542 33.5871 39.4127 33.5171 39.3195 33.4094C39.2262 33.3016 39.1755 33.1634 39.1768 33.0208C39.1573 32.6208 39.0599 32.215 39.1027 31.815C39.1103 31.7376 39.13 31.6619 39.1612 31.5906C39.0872 30.7907 39.3112 31.5282 39.1514 31.2394C39.0872 30.9916 38.7619 30.3302 38.6976 30.0883C38.6484 29.9459 38.6267 29.7957 38.6334 29.6453C38.6588 29.4073 38.7249 29.2005 39.0229 29.1711C39.4124 29.2434 39.463 29.6258 39.6578 29.8736L39.6442 29.8872ZM22.3962 35.8442C21.7439 36.7582 20.8634 37.4849 19.8428 37.9512C18.8222 38.4175 17.6974 38.6073 16.5806 38.5016C16.5625 38.4625 16.543 38.4261 16.5222 38.3923C16.8611 38.0177 17.3987 38.3338 17.7589 38.0352C17.9583 37.9549 18.1634 37.8897 18.3725 37.8401C20.4369 37.3406 21.8002 36.0704 22.5209 34.0822C22.6274 33.6339 22.6926 33.1767 22.7156 32.7165C23.1305 32.1604 23.5609 31.9633 24.2406 31.6042C24.5756 31.6472 24.227 32.1057 24.1471 32.2774C23.6349 33.3662 22.5228 35.7699 22.3943 35.8597L22.3962 35.8442ZM36.8104 37.5358C36.8104 37.5747 35.6088 38.2382 35.155 38.2909C33.9532 38.3787 32.8179 38.5601 31.6493 38.1114C31.1509 37.8861 30.6692 37.6253 30.208 37.3309C29.9549 37.1885 29.5186 36.6207 29.6355 36.369C30.1808 36.7885 31.2169 37.4538 31.8615 37.6763C32.8362 37.9674 33.8745 37.9674 34.8492 37.6763C35.3108 37.5396 35.7841 37.2996 36.306 37.3387C36.5008 37.3504 36.8065 37.2763 36.8065 37.5338L36.8104 37.5358ZM18.1894 37.8889C17.8388 38.4235 17.0091 38.3377 16.5806 38.5016C16.3275 38.486 15.3342 38.2538 15.1394 38.1114L14.1325 37.6196C13.0107 36.8782 12.0485 36.0002 11.6006 34.6813C11.698 34.5583 11.8538 33.4832 12.0407 33.6354C12.1552 34.1887 12.3521 34.7215 12.6251 35.2159C13.0581 36.0274 13.719 36.6942 14.5259 37.1339C15.0174 37.4337 15.5448 37.6697 16.0957 37.8363C16.7287 38.0762 17.7356 37.9338 18.1874 37.8831L18.1894 37.8889ZM24.0964 31.7896C23.6329 32.336 23.4537 33.0617 22.9571 33.5847C22.5482 33.0638 22.7818 32.4491 22.7235 31.8774C22.7016 31.6171 22.7101 31.3553 22.7487 31.0969C23.0019 30.5234 23.0019 30.5234 23.5082 30.9955C23.781 31.1769 23.8335 30.9291 23.9815 30.7867C24.3224 30.4629 24.6242 30.3809 25.228 30.3067C25.2552 30.3262 26.2875 30.137 26.9808 30.7126C27.4035 31.058 27.4522 31.0501 27.6781 30.6989C27.9255 30.8063 27.904 31.0189 27.9001 31.2315C27.8806 32.1798 27.8359 33.132 28.1455 34.051C28.1455 34.2266 28.1455 34.4022 27.904 34.4022C27.6761 33.8441 27.4405 33.29 27.2224 32.7281C27.0071 32.1339 26.6035 31.6268 26.0732 31.2842C25.1774 30.9136 24.6204 31.0891 24.1841 31.694C24.1548 31.7278 24.1221 31.7586 24.0867 31.7857L24.0964 31.7896ZM11.8947 34.3554C11.8656 34.531 11.8071 34.6832 11.5909 34.687C11.3143 34.1505 11.0456 33.6081 10.7593 33.0754C10.548 32.6486 10.1906 32.3121 9.75235 32.1272C9.33946 31.6842 8.59352 31.8677 8.23322 31.3194C8.21583 31.3088 8.19632 31.3024 8.17611 31.3003C8.15589 31.2983 8.13547 31.3008 8.11636 31.3077C7.85732 31.7369 7.60998 31.5028 7.54571 31.2296C7.46781 30.9058 7.76774 30.7282 8.05987 30.6755C8.7026 30.5273 9.37419 30.566 9.99579 30.7867C10.1321 30.8413 10.2743 31.0599 10.4282 30.8843C10.582 30.7087 10.9462 30.0726 11.2306 29.8462C11.4936 29.6667 11.6201 29.8189 11.6922 30.0413C11.7844 30.2876 11.7913 30.5577 11.7117 30.8082C11.2695 31.9125 11.4936 32.9662 11.9063 34.014C11.9314 34.067 11.9427 34.1256 11.9393 34.1842C11.9359 34.2429 11.9179 34.2996 11.887 34.3495L11.8947 34.3554ZM11.8616 34.131C11.4195 33.8246 11.3864 33.2803 11.3514 32.8686C11.2929 32.1993 10.7339 30.6834 11.1118 30.0004C11.2286 29.7858 11.4468 29.7331 11.6026 29.2648C11.8168 29.0697 12.0623 28.457 12.1596 28.4259C12.4517 27.9576 12.89 27.6454 13.2853 27.2708L13.2717 27.2844C13.7391 26.8239 14.3759 26.699 14.9563 26.4571C15.4371 26.2584 15.9563 26.1703 16.4754 26.1996C17.119 26.1962 17.7621 26.2386 18.3997 26.3264C18.3471 26.6933 18.1855 26.6581 17.9986 26.8454C16.7949 26.9039 15.4082 27.0854 14.3331 27.743C12.6056 28.7965 11.3592 31.5906 11.9843 33.4832C12.07 33.7408 12.1168 33.893 11.8597 34.131H11.8616ZM17.8349 26.6971L18.3997 26.3264C20.3473 26.6542 21.7398 27.743 22.6845 29.4365C22.9727 29.9478 23.2297 30.4765 23.4985 30.9975C23.3038 31.1594 22.8598 30.8023 22.7059 31.454C22.691 31.1046 22.6132 30.761 22.4761 30.4394C22.0145 29.2981 21.2073 28.3305 20.1681 27.6727C19.5046 27.2445 18.7577 26.9625 17.9771 26.8454C17.9133 26.8153 17.8603 26.7662 17.8252 26.7049L17.8349 26.6971ZM38.7133 30.0492C38.6022 29.3858 38.0082 28.5429 37.4784 28.0435C36.7247 27.3352 36.3878 26.7752 35.1667 26.6581C35.1082 26.5996 34.5823 26.6581 34.3428 26.6112C34.1033 26.5644 34.148 26.3128 34.1772 26.182C34.6529 26.128 35.1331 26.128 35.6088 26.182C35.9854 26.2798 36.3562 26.3997 36.7189 26.541C37.1937 26.8533 37.6449 27.2002 38.0685 27.579C38.3426 27.7633 38.5588 28.0218 38.6918 28.3244C38.6918 28.3244 39.0034 28.8317 39.2761 29.3C38.984 29.3137 38.7366 29.8853 38.6918 30.0551L38.7133 30.0492ZM28.0599 34.1115C27.5574 33.013 27.9001 31.8228 27.6898 30.697C28.0794 29.7883 28.5977 28.9407 29.2284 28.18C29.3101 28.0824 29.9958 27.4347 30.1711 27.5752C30.3464 27.7157 29.653 28.3049 29.5127 28.4532C28.9665 29.0259 28.553 29.7122 28.3019 30.4632C28.0508 31.2143 27.9681 32.0116 28.0599 32.7984C28.0987 33.2393 28.2195 33.6764 28.3033 34.1115C28.29 34.1316 28.2719 34.1481 28.2506 34.1596C28.2294 34.1709 28.2057 34.1769 28.1816 34.1769C28.1574 34.1769 28.1338 34.1709 28.1125 34.1596C28.0913 34.1481 28.0731 34.1316 28.0599 34.1115ZM35.0166 26.2874C34.7888 26.3303 35.2231 26.6191 34.8939 26.6328C34.5045 26.6523 33.5502 26.6717 33.219 26.7888C32.8295 26.8084 32.366 26.9566 31.9472 27.0034C31.646 27.1246 31.3344 27.218 31.0162 27.2825C30.6989 27.4776 30.3152 27.7936 29.9977 27.979C29.8536 27.7449 29.6081 27.823 29.8029 27.6961C30.8293 26.9644 32.3836 26.2718 33.6319 26.1937C33.9532 26.1742 35.0283 26.0845 35.0225 26.2912L35.0166 26.2874ZM28.0599 34.1115H28.3033C28.5468 35.1729 29.8283 36.3553 30.1476 37.2918C29.242 36.648 28.278 35.4226 27.9177 34.3944L28.0599 34.1095V34.1115ZM39.1027 33.532C39.1164 33.0638 39.1222 32.5955 39.1457 32.1272C39.1554 31.9087 39.0482 31.6336 39.3793 31.5418C39.3793 32.0296 39.3793 32.5174 39.3988 33.0052C39.3988 33.2198 39.3015 33.5047 39.6676 33.5417C39.674 33.6978 39.6806 33.8552 39.687 34.014C39.4962 34.7709 39.1446 35.4778 38.6563 36.0862C38.1679 36.6947 37.5542 37.1904 36.8571 37.5396L36.2729 37.5201C36.195 37.0753 36.7092 37.1768 36.8319 36.9153C37.0072 36.5485 37.3577 36.3436 37.6304 36.0724C38.1437 35.6072 38.5532 35.0388 38.832 34.4041C38.9472 34.1209 39.0429 33.8302 39.1183 33.534L39.1027 33.532ZM39.4047 31.5477C39.4047 31.4501 39.4047 31.3526 39.4047 31.2472C39.6228 31.2785 39.8214 31.4111 40.0669 31.3447C40.0051 31.4578 39.9012 31.5418 39.7778 31.5783C39.6545 31.6149 39.5217 31.6011 39.4085 31.5399L39.4047 31.5477ZM36.9409 36.7182C36.9078 37.0617 36.3566 37.2255 36.2651 37.5182C35.7665 37.4323 35.3965 37.9728 34.8823 37.8011C34.9251 37.7114 35.0089 37.6919 35.0518 37.606C35.2271 37.5085 35.4412 37.4753 35.6165 37.3777C36.0684 37.3777 36.526 37.0207 36.9409 36.728V36.7182ZM39.1027 33.532C39.13 33.8637 39.1164 34.1759 38.8203 34.4022C38.908 34.1095 39.0969 33.934 39.1047 33.53L39.1027 33.532ZM30.5196 67.3824C30.991 67.402 31.4545 67.2927 31.9141 67.6166C32.3232 67.9054 33.5833 67.4215 33.9981 66.5376C33.9529 66.4416 33.9438 66.3326 33.9725 66.2305C34.0011 66.1283 34.0655 66.0399 34.1539 65.9816C34.8122 65.2947 35.0109 64.4206 35.1277 63.5231C35.2718 62.3524 35.0304 61.2071 34.8608 60.0579C35.6068 61.5349 35.5756 63.0919 35.2504 64.649C35.0607 65.4589 34.7183 66.2251 34.2415 66.9064C33.4625 68.0771 32.9249 68.202 31.583 67.6869C31.2519 67.562 30.8176 67.6869 30.5177 67.3746L30.5196 67.3824ZM25.7773 64.8225C26.1141 64.8089 25.9973 64.4401 26.1667 64.3231C26.2934 64.2333 26.342 63.9192 26.5816 64.089C26.7646 64.2177 26.6205 64.3544 26.5348 64.4987C26.4759 64.6393 26.4379 64.7879 26.4219 64.9396C26.2603 64.9787 26.0518 65.006 26.0032 65.166C25.7402 65.9933 25.1774 65.7319 24.7255 65.4665C24.2736 65.2011 23.9913 65.3182 23.6349 65.6362C22.8898 66.3222 21.9987 66.8294 21.029 67.1191C20.8926 67.1581 20.7563 67.1932 20.6395 67.0742C21.1342 66.567 21.8314 66.407 22.4215 66.0596C22.7487 65.8645 23.0934 65.7084 23.3174 65.4119C23.742 64.846 24.2367 64.729 24.784 65.1582C25.3313 65.5874 25.563 65.2557 25.7773 64.8206V64.8225ZM20.6395 67.0742L21.029 67.1171C20.264 67.593 19.3526 67.7746 18.464 67.6283C18.1018 67.5815 17.7005 67.5367 17.5486 67.0957C17.6187 67.0957 17.7044 67.08 17.7531 67.1113C18.2555 67.4176 18.2362 66.8342 18.9217 66.9064C19.1422 66.914 19.3609 66.9502 19.5722 67.0137C19.6823 67.035 19.7901 67.0678 19.8935 67.1113L20.6395 67.0722" fill="#249B46"/>
<path d="M33.5944 63.1489C33.5065 63.1489 33.4207 63.1227 33.3477 63.0739C33.2747 63.025 33.2178 62.9556 33.1841 62.8742C33.1505 62.793 33.1418 62.7035 33.1589 62.6172C33.176 62.5309 33.2183 62.4517 33.2803 62.3894C33.3426 62.3271 33.4216 62.2848 33.5078 62.2677C33.5939 62.2504 33.6832 62.2593 33.7643 62.2929C33.8454 62.3267 33.9148 62.3837 33.9636 62.4568C34.0124 62.53 34.0385 62.616 34.0385 62.704C34.0385 62.822 33.9917 62.9352 33.9084 63.0186C33.8251 63.102 33.7122 63.1489 33.5944 63.1489ZM32.5485 59.4963C32.5485 59.4083 32.5745 59.3223 32.6234 59.2491C32.6722 59.176 32.7416 59.119 32.8227 59.0852C32.9038 59.0516 32.9931 59.0429 33.0792 59.06C33.1653 59.0771 33.2444 59.1195 33.3065 59.1817C33.3687 59.244 33.411 59.3232 33.4281 59.4095C33.4452 59.4958 33.4365 59.5853 33.4028 59.6665C33.3692 59.7478 33.3123 59.8173 33.2393 59.8662C33.1662 59.915 33.0804 59.9412 32.9925 59.9412C32.8748 59.9412 32.7618 59.8943 32.6786 59.8109C32.5953 59.7274 32.5485 59.6143 32.5485 59.4963ZM32.2116 67.0473C32.1239 67.0472 32.0382 67.0212 31.9653 66.9725C31.8924 66.9238 31.8354 66.8546 31.8018 66.7735C31.768 66.6924 31.7589 66.6032 31.7758 66.517C31.7926 66.4308 31.8345 66.3516 31.8963 66.2891C31.9579 66.2268 32.0368 66.1841 32.1226 66.1665C32.2084 66.149 32.2976 66.1572 32.3789 66.1902C32.4601 66.2233 32.5297 66.2797 32.579 66.3524C32.6281 66.425 32.6549 66.5107 32.6557 66.5985C32.6561 66.6572 32.645 66.7155 32.6229 66.7699C32.6008 66.8243 32.5683 66.8738 32.527 66.9155C32.4857 66.9573 32.4365 66.9904 32.3825 67.013C32.3283 67.0356 32.2702 67.0473 32.2116 67.0473ZM31.3254 63.9449C31.2375 63.9449 31.1516 63.9188 31.0785 63.8697C31.0054 63.8208 30.9485 63.7512 30.915 63.6699C30.8815 63.5884 30.8727 63.4989 30.8901 63.4125C30.9073 63.3262 30.9498 63.2469 31.0121 63.1848C31.0744 63.1227 31.1538 63.0804 31.24 63.0635C31.3263 63.0466 31.4156 63.0556 31.4967 63.0896C31.5779 63.1236 31.647 63.1809 31.6956 63.2544C31.7442 63.3277 31.7699 63.4139 31.7695 63.5019C31.77 63.5608 31.7589 63.619 31.7368 63.6734C31.7147 63.7279 31.6821 63.7774 31.6408 63.8191C31.5995 63.8608 31.5505 63.8939 31.4963 63.9165C31.4421 63.9391 31.3841 63.9508 31.3254 63.9508V63.9449ZM30.6477 66.0385C30.5598 66.0388 30.4737 66.0131 30.4005 65.9645C30.3272 65.9158 30.2699 65.8464 30.2361 65.7652C30.2021 65.6839 30.193 65.5944 30.21 65.5081C30.2269 65.4216 30.269 65.3422 30.331 65.2798C30.3931 65.2173 30.4722 65.1747 30.5584 65.1575C30.6445 65.1402 30.7339 65.1488 30.8152 65.1824C30.8964 65.2161 30.9659 65.2731 31.0148 65.3463C31.0637 65.4195 31.0897 65.5056 31.0897 65.5936C31.0903 65.6523 31.0792 65.7107 31.0571 65.7651C31.035 65.8195 31.0024 65.869 30.9611 65.9107C30.9198 65.9525 30.8707 65.9856 30.8165 66.0081C30.7624 66.0308 30.7044 66.0423 30.6457 66.0423L30.6477 66.0385ZM28.8753 62.0444C28.7877 62.0438 28.7022 62.017 28.6297 61.9676C28.5573 61.9183 28.5009 61.8485 28.4679 61.7672C28.4349 61.6858 28.4266 61.5965 28.4442 61.5105C28.4617 61.4244 28.5043 61.3455 28.5667 61.2837C28.6289 61.2219 28.708 61.1799 28.7941 61.163C28.8801 61.1462 28.9691 61.1552 29.05 61.1891C29.1309 61.2228 29.2001 61.2798 29.2487 61.3529C29.2974 61.426 29.3233 61.5118 29.3233 61.5996C29.3238 61.6587 29.3126 61.7173 29.2903 61.7719C29.2679 61.8267 29.235 61.8763 29.1933 61.9181C29.1516 61.9599 29.1019 61.9929 29.0474 62.0153C28.9928 62.0376 28.9344 62.0489 28.8753 62.0484V62.0444ZM28.8753 64.7761C28.7877 64.7753 28.7022 64.7486 28.6297 64.6993C28.5573 64.6499 28.5009 64.5802 28.4679 64.4988C28.4349 64.4175 28.4266 64.3281 28.4442 64.2421C28.4617 64.1561 28.5043 64.0771 28.5667 64.0153C28.6289 63.9535 28.708 63.9116 28.7941 63.8947C28.8801 63.8778 28.9691 63.8869 29.05 63.9206C29.1309 63.9544 29.2001 64.0114 29.2487 64.0845C29.2974 64.1576 29.3233 64.2434 29.3233 64.3313C29.3203 64.4479 29.2716 64.5586 29.1878 64.6396C29.104 64.7206 28.9918 64.7655 28.8753 64.7644V64.7761ZM26.9784 62.2669C26.8906 62.2669 26.8047 62.2408 26.7317 62.192C26.6586 62.143 26.6018 62.0736 26.5681 61.9923C26.5346 61.911 26.5257 61.8216 26.5428 61.7352C26.56 61.649 26.6023 61.5697 26.6644 61.5075C26.7265 61.4453 26.8056 61.4029 26.8917 61.3858C26.9778 61.3685 27.0671 61.3774 27.1484 61.411C27.2295 61.4447 27.2988 61.5018 27.3476 61.5749C27.3964 61.6481 27.4225 61.7341 27.4225 61.822C27.4209 61.9391 27.3734 62.0507 27.2903 62.1328C27.2072 62.215 27.0951 62.2611 26.9784 62.2611V62.2669ZM26.9784 64.6415C26.8906 64.6415 26.8047 64.6153 26.7317 64.5665C26.6586 64.5177 26.6018 64.4481 26.5681 64.3668C26.5346 64.2856 26.5257 64.1961 26.5428 64.1098C26.56 64.0235 26.6023 63.9443 26.6644 63.882C26.7265 63.8198 26.8056 63.7775 26.8917 63.7603C26.9778 63.7432 27.0671 63.7519 27.1484 63.7856C27.2295 63.8193 27.2988 63.8763 27.3476 63.9494C27.3964 64.0226 27.4225 64.1086 27.4225 64.1966C27.4209 64.3136 27.3734 64.4252 27.2903 64.5073C27.2072 64.5896 27.0951 64.6356 26.9784 64.6356V64.6415ZM30.8735 60.7118C30.9615 60.7118 31.0472 60.738 31.1203 60.7868C31.1933 60.8358 31.2502 60.9052 31.2838 60.9865C31.3175 61.0677 31.3262 61.1572 31.3091 61.2435C31.292 61.3298 31.2497 61.4091 31.1876 61.4713C31.1255 61.5335 31.0463 61.5759 30.9602 61.593C30.8741 61.6102 30.7848 61.6014 30.7037 61.5677C30.6226 61.5341 30.5532 61.477 30.5044 61.4039C30.4555 61.3307 30.4296 61.2447 30.4296 61.1568C30.429 61.0976 30.4402 61.039 30.4626 60.9843C30.4849 60.9297 30.5179 60.88 30.5596 60.8383C30.6013 60.7964 30.6509 60.7634 30.7055 60.741C30.76 60.7187 30.8185 60.7074 30.8775 60.708L30.8735 60.7118ZM24.6413 62.2728C24.5535 62.2728 24.4676 62.2467 24.3946 62.1977C24.3215 62.1489 24.2646 62.0795 24.231 61.9981C24.1974 61.9169 24.1886 61.8275 24.2057 61.7411C24.2228 61.6549 24.2652 61.5756 24.3273 61.5134C24.3894 61.4512 24.4685 61.4088 24.5546 61.3916C24.6407 61.3744 24.73 61.3833 24.8111 61.4169C24.8924 61.4506 24.9617 61.5076 25.0104 61.5808C25.0593 61.6539 25.0853 61.74 25.0853 61.8279C25.0823 61.9445 25.0336 62.0553 24.9498 62.1363C24.866 62.2174 24.7538 62.2621 24.6373 62.2611L24.6413 62.2728ZM24.6413 64.6473C24.5535 64.6473 24.4676 64.6212 24.3946 64.5724C24.3215 64.5234 24.2646 64.454 24.231 64.3727C24.1974 64.2914 24.1886 64.202 24.2057 64.1156C24.2228 64.0294 24.2652 63.9501 24.3273 63.8879C24.3894 63.8257 24.4685 63.7833 24.5546 63.7662C24.6407 63.749 24.73 63.7578 24.8111 63.7915C24.8924 63.8251 24.9617 63.8821 25.0104 63.9553C25.0593 64.0285 25.0853 64.1145 25.0853 64.2024C25.0827 64.3195 25.0344 64.4306 24.9505 64.5121C24.8667 64.5936 24.7541 64.6387 24.6373 64.6375L24.6413 64.6473ZM22.5145 64.7839C22.4268 64.7839 22.3411 64.7579 22.2681 64.7091C22.1953 64.6605 22.1383 64.5912 22.1046 64.5102C22.0708 64.4292 22.0619 64.3399 22.0787 64.2536C22.0956 64.1675 22.1374 64.0882 22.1991 64.0259C22.2609 63.9635 22.3396 63.9208 22.4255 63.9032C22.5114 63.8856 22.6005 63.8939 22.6817 63.927C22.7629 63.9601 22.8325 64.0164 22.8818 64.089C22.9311 64.1617 22.9577 64.2473 22.9585 64.3351C22.9544 64.451 22.9054 64.5608 22.8216 64.641C22.738 64.7212 22.6264 64.7655 22.5106 64.7644L22.5145 64.7839ZM21.8056 61.6152C21.8056 61.5273 21.8315 61.4413 21.8804 61.3681C21.9292 61.2949 21.9986 61.2379 22.0797 61.2042C22.1608 61.1706 22.2501 61.1618 22.3362 61.1789C22.4223 61.1961 22.5015 61.2385 22.5636 61.3007C22.6257 61.3629 22.668 61.4422 22.6851 61.5284C22.7022 61.6148 22.6935 61.7042 22.6598 61.7855C22.6262 61.8668 22.5693 61.9362 22.4963 61.9851C22.4232 62.034 22.3375 62.0601 22.2495 62.0601C22.1899 62.0606 22.1308 62.0492 22.0757 62.0263C22.0207 62.0034 21.9707 61.9697 21.9289 61.9271C21.8871 61.8844 21.8542 61.8339 21.8323 61.7783C21.8106 61.7226 21.8 61.6633 21.8016 61.6036L21.8056 61.6152ZM20.4422 66.0521C20.3544 66.0521 20.2685 66.026 20.1955 65.9772C20.1225 65.9282 20.0656 65.8588 20.032 65.7775C19.9983 65.6962 19.9896 65.6068 20.0067 65.5204C20.0238 65.4342 20.0662 65.3549 20.1283 65.2927C20.1904 65.2305 20.2695 65.1881 20.3556 65.171C20.4417 65.1538 20.531 65.1626 20.6121 65.1963C20.6933 65.2299 20.7627 65.287 20.8114 65.3601C20.8602 65.4333 20.8863 65.5193 20.8863 65.6072C20.8832 65.7239 20.8345 65.8347 20.7508 65.9157C20.6669 65.9967 20.5548 66.0416 20.4383 66.0404L20.4422 66.0521ZM19.5561 63.5157C19.5561 63.4277 19.5821 63.3416 19.6308 63.2685C19.6797 63.1953 19.749 63.1383 19.8302 63.1047C19.9113 63.071 20.0006 63.0622 20.0867 63.0793C20.1729 63.0965 20.252 63.1389 20.3141 63.2011C20.3762 63.2633 20.4185 63.3425 20.4357 63.4289C20.4528 63.5152 20.4439 63.6046 20.4104 63.6858C20.3768 63.7672 20.3199 63.8367 20.2468 63.8855C20.1738 63.9344 20.0879 63.9605 20.0001 63.9605C19.9406 63.9611 19.8817 63.9496 19.8266 63.9269C19.7717 63.9042 19.7218 63.8705 19.6801 63.8282C19.6383 63.7858 19.6055 63.7354 19.5835 63.6801C19.5615 63.6247 19.5508 63.5655 19.5522 63.5059L19.5561 63.5157ZM18.6699 59.9529C18.582 59.9556 18.4954 59.932 18.4209 59.8853C18.3464 59.8386 18.2873 59.7708 18.2514 59.6904C18.2154 59.6101 18.2039 59.5209 18.2185 59.4341C18.2332 59.3473 18.2733 59.2668 18.3336 59.2027C18.394 59.1387 18.4719 59.0941 18.5576 59.0745C18.6432 59.0549 18.7329 59.0612 18.8149 59.0926C18.897 59.1241 18.968 59.1792 19.0187 59.251C19.0696 59.323 19.0979 59.4083 19.1003 59.4963C19.1003 59.6126 19.0549 59.7243 18.9738 59.8075C18.8925 59.8906 18.782 59.9386 18.666 59.9412L18.6699 59.9529ZM18.403 66.4971C18.3152 66.4971 18.2294 66.4709 18.1563 66.422C18.0834 66.3732 18.0264 66.3036 17.9928 66.2224C17.9592 66.1412 17.9505 66.0516 17.9676 65.9654C17.9847 65.8791 18.0269 65.7998 18.089 65.7375C18.1511 65.6753 18.2303 65.633 18.3164 65.6159C18.4026 65.5986 18.4918 65.6075 18.573 65.6411C18.6541 65.6748 18.7235 65.7319 18.7723 65.805C18.8211 65.8782 18.8471 65.9642 18.8471 66.0521C18.844 66.1688 18.7954 66.2795 18.7116 66.3605C18.6278 66.4415 18.5156 66.4864 18.3992 66.4853L18.403 66.4971ZM17.6532 63.1605C17.5654 63.1605 17.4795 63.1345 17.4066 63.0855C17.3335 63.0367 17.2766 62.9672 17.243 62.8859C17.2094 62.8046 17.2006 62.7152 17.2177 62.6289C17.2349 62.5426 17.2772 62.4633 17.3393 62.4011C17.4014 62.3389 17.4804 62.2966 17.5666 62.2793C17.6528 62.2622 17.7421 62.2711 17.8232 62.3047C17.9043 62.3384 17.9737 62.3954 18.0224 62.4686C18.0712 62.5416 18.0973 62.6276 18.0973 62.7157C18.0942 62.8323 18.0455 62.9431 17.9618 63.0241C17.8781 63.1051 17.7658 63.1499 17.6494 63.1489L17.6532 63.1605ZM20.1968 60.7177C20.2846 60.7177 20.3705 60.7438 20.4435 60.7927C20.5166 60.8415 20.5735 60.911 20.6071 60.9924C20.6407 61.0736 20.6495 61.163 20.6324 61.2493C20.6152 61.3357 20.5729 61.4149 20.5108 61.4771C20.4487 61.5393 20.3696 61.5817 20.2835 61.5989C20.1973 61.616 20.108 61.6073 20.0269 61.5735C19.9457 61.5399 19.8764 61.4829 19.8275 61.4097C19.7788 61.3366 19.7528 61.2506 19.7528 61.1625C19.7512 61.1036 19.7614 61.045 19.7826 60.9901C19.8039 60.9351 19.8358 60.8849 19.8766 60.8425C19.9174 60.8 19.9661 60.7661 20.0201 60.7426C20.0741 60.7192 20.1321 60.7067 20.1909 60.706L20.1968 60.7177ZM34.8623 60.0699C34.7747 59.6797 34.4962 59.4261 34.2586 59.1334C34.1144 58.9539 33.4794 58.3919 33.2964 58.2319C33.1882 58.1567 33.0578 58.1202 32.9264 58.1286C32.6908 58.1787 32.461 58.2532 32.2408 58.351C30.7295 58.9364 29.2707 59.6115 28.0086 60.6533C28.0086 60.6533 28.0086 60.6728 28.0086 60.6787C27.6035 60.9265 27.2686 61.0963 26.9492 60.8094C26.6399 60.6354 26.2959 60.5329 25.9421 60.5093C25.5883 60.4856 25.2337 60.5415 24.9042 60.6728C24.501 60.8679 23.8954 60.6396 23.572 60.548C23.3578 60.4309 20.9272 59.0143 20.8122 58.87C20.6885 58.7574 20.5494 58.6628 20.3994 58.5889C19.8424 58.4075 19.2854 58.2183 18.7245 58.0486C18.5297 57.9861 18.2902 57.9061 18.1206 58.0797C17.6727 58.5343 17.1819 59.0553 17.1469 59.668C17.121 60.0695 16.9557 60.4492 16.6795 60.7412C16.6152 61.0728 16.3367 62.8054 16.3016 63.0689C16.2081 63.7713 16.2159 64.4795 16.5451 65.137C16.7145 65.5117 17.3728 66.8385 17.5617 67.0882C17.6357 67.1506 17.7312 67.1701 17.8071 67.2247C18.2804 67.5468 18.6913 67.6404 18.9757 66.9847C19.0458 66.8248 19.7157 67.1214 19.9105 67.1995C20.1546 67.2698 20.4153 67.2561 20.6506 67.1604C20.7877 67.0746 20.9295 66.9965 21.0752 66.9263C21.8347 66.5692 22.6781 66.3155 23.2663 65.7048C23.7921 65.1585 24.24 64.9439 24.9412 65.3926C25.4027 65.6853 25.1749 65.5488 25.4476 65.7204C25.9987 65.6424 26.2266 65.6775 26.8343 65.3771C27.0777 65.2561 27.2121 65.3966 27.399 65.4999C28.4702 66.0853 29.372 66.9438 30.5289 67.3731C30.8794 67.5136 31.2826 67.4082 31.6059 67.537C32.7394 67.9857 33.5671 67.7125 34.0833 66.6395C34.051 66.5172 34.056 66.3882 34.0977 66.2689C34.1392 66.1496 34.2157 66.0455 34.3169 65.9702C35.0376 65.3653 35.2071 64.4951 35.2673 63.6483C35.386 62.4367 35.2493 61.2135 34.8662 60.0582L34.8623 60.0699Z" fill="#249B46"/>
</svg>
