<svg width="138" height="60" viewBox="0 0 138 60" fill="none" xmlns="http://www.w3.org/2000/svg">
<g clip-path="url(#clip0_569_7594)">
<mask id="mask0_569_7594" style="mask-type:luminance" maskUnits="userSpaceOnUse" x="0" y="0" width="138" height="60">
<path d="M138 0H0V60H138V0Z" fill="white"/>
</mask>
<g mask="url(#mask0_569_7594)">
<path d="M38.2721 29.9966C38.4818 30.2497 38.7981 30.3651 39.0456 30.2032C39.4925 29.9036 39.5612 30.1292 39.4959 30.7198C39.7761 30.2032 39.9359 29.8864 40.1147 29.5833C40.3244 29.2269 40.5358 28.8721 41.0085 28.7912C41.1049 28.7844 41.1953 28.7418 41.2621 28.6717C41.3288 28.6017 41.3671 28.5092 41.3694 28.4124C41.3591 28.2057 41.1976 28.1627 41.0085 28.1782C40.6647 28.2074 41.1082 27.8028 40.761 27.7305C40.6011 27.696 40.8641 27.6134 40.9329 27.5583C41.3333 27.2724 41.3849 27.1054 41.1872 26.6491C41.1322 26.5199 41.2302 26.4597 41.2938 26.3839C41.7235 25.8845 41.9813 25.3507 41.7407 24.6757C41.6548 24.4346 41.7545 24.3313 41.9607 24.3881C42.2701 24.4622 42.2632 24.2814 42.2615 24.0782C42.3505 24.1047 42.4312 24.1538 42.4957 24.2208C42.5601 24.2878 42.6062 24.3704 42.6293 24.4605C42.6895 24.7394 42.595 24.8565 42.2443 24.7411C42.9731 25.4299 43.1037 26.2479 43.0487 27.1416C43.0109 27.715 42.9886 28.2815 42.705 28.7981C42.595 28.9996 42.9594 29.0288 42.8304 29.2975C42.7507 29.4623 42.6296 29.6036 42.4789 29.7074C42.3282 29.8113 42.1532 29.8741 41.971 29.8898C42.0157 30.3375 42.6345 30.3375 42.6001 30.83C42.5795 31.1055 42.3371 31.2329 42.2804 31.4671C41.6702 31.3156 41.3626 31.7943 40.9466 32.1146C41.1572 32.0981 41.3691 32.1121 41.5757 32.1559C41.8335 32.2523 42.4214 32.044 42.1773 32.7242C42.1429 32.8189 42.3835 33.01 42.5211 33.1942C42.0535 33.2545 42.2203 34.1069 41.5413 33.883C41.5138 34.1792 41.8301 34.2171 41.8284 34.4409C41.6771 34.6579 41.3437 34.6855 41.2611 34.9799C41.2371 35.0557 41.1065 35.0832 41.2268 35.221C41.5533 35.5947 41.4966 35.7806 41.0549 35.9511C40.8022 36.0458 40.6544 36.2869 40.4791 36.5951C40.3966 36.7432 40.1353 36.7845 39.9462 36.8758C40.5272 37.2305 40.5135 38.9594 39.9256 39.135C39.5818 39.2418 39.2037 39.29 38.8359 39.4105C39.159 39.5035 39.5114 39.5087 39.7211 39.8238C39.6815 40.0511 39.4976 39.8531 39.3773 39.9185C39.2054 40.0098 39.0335 39.9047 39.2192 40.2285C39.3911 40.5109 39.6145 41.0274 38.8582 40.9172C38.8926 41.1273 38.3426 40.9345 38.597 41.3718C38.8324 41.7817 38.5454 42.1226 38.004 42.1932C37.9352 42.2035 37.8802 42.2225 37.8699 42.2621C37.7375 42.7408 37.1686 43.0094 37.2408 43.6397C37.0449 43.4778 37.1755 43.266 37.0689 43.1231C36.5051 43.4916 35.986 44.0254 35.2126 43.7326C35.0923 43.6879 35.0648 43.7326 35.0269 43.8015C34.7863 44.1976 34.2122 44.17 33.9956 44.6625C33.8891 44.9001 33.8238 44.3749 33.5212 44.5626L33.1878 45.4098C32.6326 44.9397 32.4023 44.957 31.9399 45.4994C31.8248 45.3961 31.7818 45.2135 31.6082 45.1722L31.548 45.2462C31.8488 45.508 31.5601 45.8059 31.4329 45.7628C30.955 45.6285 30.9516 46.0297 30.8828 46.2312C30.6972 46.7943 29.9976 47.0405 30.0062 47.7035C29.5078 47.7035 29.3531 48.2373 28.9491 48.3923C28.7773 48.4611 28.6621 48.3458 28.5658 48.258C28.351 48.0651 28.1619 47.8447 27.923 47.5916C27.8302 48.0944 27.9832 48.5903 27.8474 49.069C27.5466 49.1275 27.6617 48.7143 27.4245 48.7039C27.287 48.8279 27.4108 49.4926 26.9381 48.9485C26.4809 49.6372 26.2385 49.0518 25.924 48.7849C25.7315 48.6213 25.6627 48.7022 25.4908 49.3152L24.8961 48.5404L24.6864 49.422C24.408 49.2326 24.3169 48.9295 24.1433 48.6058C23.9594 49.1826 23.4867 49.639 23.026 49.4926C22.6135 49.3635 21.9535 50.0953 21.8108 49.1758C21.5014 49.2412 21.5152 49.8129 21.2092 49.6304C20.7795 49.3721 19.9132 49.527 20.1779 48.4112L19.4646 49.329C19.3237 49.1224 19.4509 48.778 19.2171 48.7298C18.9833 48.6816 18.8733 48.9829 18.7238 49.1327C18.6721 49.1954 18.5999 49.2378 18.52 49.2523C18.4401 49.2668 18.3576 49.2525 18.2872 49.2119C18.1463 49.1517 18.0981 48.8055 17.7956 49.131C17.653 49.2825 17.6925 48.8245 17.5464 48.7005C17.3092 48.7126 17.4158 49.0449 17.1339 49.1C16.9895 48.6144 17.1081 48.1064 17.0772 47.5502C16.7162 47.8653 16.5168 48.4543 16.0923 48.3527C15.8688 48.301 15.2019 48.2717 15.3875 47.5468C14.896 47.9325 14.743 47.8223 14.5402 47.3402C14.1276 46.3535 13.1926 45.8369 12.3676 45.2394C12.3187 45.1992 12.2587 45.1751 12.1957 45.1705C11.9173 45.1729 11.6444 45.0923 11.4118 44.939C11.1792 44.7857 10.9974 44.5666 10.8894 44.3095C10.6831 45.2566 10.2293 44.7142 9.834 44.5334C9.86838 44.2475 9.56414 44.3061 9.45586 44.1649C9.23241 43.6483 8.59644 43.5932 8.3094 43.1317C8.27158 43.0697 8.20283 43.0628 8.17189 43.1317C7.90547 43.7946 7.57889 43.1782 7.53248 43.0766C7.3606 42.6977 6.96183 42.8493 6.69713 42.6048C5.94084 41.9074 5.55067 40.9551 4.87173 40.2181C4.84476 40.1748 4.82809 40.1259 4.82302 40.0752C4.81796 40.0244 4.82462 39.9732 4.84251 39.9254C4.99205 39.581 5.01439 39.333 4.56062 39.2366C4.48499 39.2194 4.36639 39.0713 4.37842 39.0093C4.51249 38.398 4.05184 37.7936 4.3578 37.184C4.44374 37.0118 4.47812 36.8224 4.28561 36.7621C3.92465 36.6468 3.83183 36.2697 3.52932 36.0871C2.93288 35.7204 2.68193 34.9197 2.86929 34.2136C2.88304 34.162 2.88648 34.1069 2.89679 34.0535C2.38114 34.0535 2.41551 33.5197 2.1491 33.2958C1.94627 33.1236 1.89127 33.0617 2.10956 32.8998C2.18863 32.8395 2.33645 32.7706 2.28145 32.669C1.97206 32.118 2.5513 32.1421 2.75413 31.8804C2.38973 31.9355 1.82595 31.7375 1.90158 31.5756C2.07347 31.2312 1.82595 30.9695 1.86205 30.6716C1.92737 30.1205 2.48083 30.384 2.53927 30.0344C1.83455 29.8192 1.78298 29.5523 2.21269 28.9324C2.30723 28.8032 2.13019 28.4502 2.01846 28.2264C1.98409 28.1575 1.86377 28.0542 1.87752 27.9888C2.06144 27.1278 1.80877 26.2668 2.00128 25.4058C2.21543 24.4453 2.71241 23.5713 3.42791 22.8969C3.20446 22.8539 3.01539 22.4664 3.08414 22.1823C3.47947 22.2219 3.47947 22.2219 3.97793 21.9636C4.09825 22.1995 3.77167 22.308 3.81636 22.5491H4.83907C4.20006 22.8834 3.61954 23.3196 3.12024 23.8406C2.77647 24.2022 2.38114 24.7532 2.54099 25.0804C2.79881 25.6107 2.36911 25.8553 2.36911 26.2272C2.36911 26.377 2.0855 26.8609 2.69225 26.6611C2.80053 26.6267 2.88648 26.9711 2.86413 27.1433C2.79194 27.6461 2.95867 28.0043 3.33165 28.3487C3.59292 28.5966 3.61182 29.0374 3.62042 29.399C3.62042 29.6177 3.5912 29.8898 3.7923 29.9449C4.62937 30.1653 4.27701 30.8817 4.27357 31.3053C4.27357 32.3298 4.69641 33.0927 5.72943 33.4302C5.78177 33.4238 5.83452 33.4383 5.87631 33.4705C5.9181 33.5027 5.9456 33.55 5.95287 33.6024C6.03882 34.2257 6.41008 34.2446 6.8948 34.0638C6.18148 33.8228 6.08694 33.6299 6.61291 33.177C6.99105 32.8499 6.92917 32.5089 6.9223 32.1439C6.9137 31.4172 6.90511 31.3982 7.67171 31.3225C8.10829 31.2794 8.47097 31.1847 8.63426 30.706C8.69613 30.5166 8.90411 30.4649 9.10865 30.5424C9.49539 31.4378 10.2293 32.0836 10.9306 32.6777C11.2744 32.9601 11.9052 33.0117 12.5119 33.0909C12.8479 33.1311 13.1596 33.2869 13.3937 33.5317C13.5432 34.1568 14.0159 32.9497 14.4422 32.6139C14.5317 32.5507 14.6372 32.5139 14.7466 32.5078C14.8561 32.5017 14.965 32.5265 15.061 32.5795C15.1125 32.6243 15.2328 32.7 15.2328 32.7655C15.0197 32.8602 14.4594 34.391 14.468 34.6596C14.4852 35.0763 14.468 35.4931 14.0829 35.7737C14.0555 35.7901 14.0322 35.8126 14.0149 35.8395C13.9976 35.8664 13.9868 35.8969 13.9833 35.9287C14.052 36.707 13.4298 36.7725 12.9313 36.8896C12.5051 36.9894 12.2318 37.1789 12.0839 37.5887C12.0152 37.7815 11.833 37.9159 11.7006 38.076C11.3277 38.5237 11.5064 39.1178 12.0754 39.1867C12.4569 39.2332 12.5137 39.4312 12.5222 39.7239C12.5429 40.4213 12.7938 41.055 13.0688 41.6835C13.1678 41.8934 13.3224 42.0721 13.5157 42.2001C13.7443 42.3723 14.1517 42.424 13.9334 42.8751C13.899 42.944 13.985 43.0594 14.0537 43.0766C14.5694 43.2195 14.6209 43.7361 14.8788 44.0805C15.1675 44.4628 15.5285 44.895 16.1335 44.5971C16.2624 44.5334 16.3484 44.5798 16.4773 44.6349C17.1923 44.9587 17.8523 45.4322 18.7461 45.1515C19.0899 45.0431 19.2824 45.5734 19.5093 45.8231C19.982 46.3397 20.0679 46.3862 20.5887 45.9505C20.6919 45.8644 20.8809 45.675 20.9153 45.8851C21.027 46.5739 21.7919 46.462 22.0738 47.0336C22.3437 46.3449 22.5809 46.5687 22.8645 46.9269C23.0879 47.211 23.3664 47.2713 23.65 46.9475C23.9594 46.6032 24.2911 46.4895 24.6349 46.9252C24.678 46.9863 24.7375 47.034 24.8066 47.0627C24.8756 47.0913 24.9514 47.0998 25.025 47.087C25.6438 46.8666 26.4001 46.9906 26.8401 46.3362C26.8745 46.2846 26.9054 46.2209 26.9639 46.1985C27.8835 45.8662 28.1877 44.9931 28.6432 44.263C28.6621 44.2199 28.6904 44.1816 28.7261 44.151C28.7618 44.1204 28.8039 44.0982 28.8493 44.0862C28.8947 44.0741 28.9423 44.0724 28.9884 44.0813C29.0346 44.0901 29.0781 44.1093 29.1159 44.1373C29.262 44.3095 29.1743 44.6195 29.4596 44.7124C29.3016 44.5578 29.1836 44.3669 29.1159 44.1562C29.0987 43.7171 29.4699 43.7258 29.7347 43.6052C29.9994 43.4847 30.3483 43.4434 30.0784 43.0198C30.1043 42.8792 30.1651 42.7475 30.2553 42.6368C30.3454 42.526 30.4619 42.4398 30.5941 42.3861C31.1819 42.1037 31.7526 41.7903 31.6254 40.9689C31.609 40.8973 31.62 40.8222 31.6563 40.7584C31.6926 40.6946 31.7515 40.6468 31.8213 40.6245C31.8393 40.6291 31.8567 40.6361 31.8729 40.6452C31.8866 40.6555 31.8901 40.6796 31.8987 40.6968C32.0362 40.2543 32.3696 39.8927 32.4143 39.414C32.4143 39.3726 32.4143 39.3055 32.4349 39.2934C33.2428 38.9215 32.6068 38.5358 32.447 38.1535C32.4175 38.0865 32.4022 38.0141 32.4022 37.9408C32.4022 37.8676 32.4175 37.7952 32.447 37.7282C32.4966 37.6147 32.516 37.4903 32.503 37.3671C32.49 37.2439 32.4452 37.1262 32.3731 37.0256C32.2685 36.8391 32.237 36.6203 32.2847 36.4118C32.3323 36.2033 32.4557 36.0201 32.6309 35.8977C32.7598 35.8065 33.0004 35.7669 32.9196 35.5619C32.8389 35.357 32.5931 35.4552 32.4178 35.4448C32.1479 35.4139 31.9605 35.1556 31.6718 35.1728C31.4174 35.0006 31.646 34.7044 31.5119 34.4978C31.3882 34.1758 31.5291 33.8813 31.6065 33.58C31.8648 33.3756 32.1636 33.2289 32.4831 33.1495C32.9127 33.1579 33.3385 33.0658 33.7264 32.8805C34.1143 32.6952 34.4537 32.4217 34.7175 32.0819C34.9616 31.7943 35.2848 31.5894 35.4738 31.2209C35.5942 30.997 35.7403 30.8214 35.6801 30.5493C35.6475 30.4504 35.643 30.3443 35.6673 30.243C35.6916 30.1417 35.7437 30.0492 35.8176 29.9759C35.8864 29.907 36.0239 29.8123 35.9173 29.7279C35.5288 29.4232 35.9568 29.2406 35.9981 29.0013C35.974 28.6569 36.2387 28.4193 36.3418 28.1162C36.3626 28.0976 36.3873 28.0839 36.4141 28.0761C36.4409 28.0684 36.4691 28.0668 36.4965 28.0714C36.5344 28.2557 36.6684 28.2178 36.8025 28.2161C37.0173 28.3883 36.9228 28.6465 36.94 28.8532C36.995 29.6108 37.1119 29.752 37.9197 29.7366C38.1312 29.7366 38.291 29.709 38.2773 29.9862" fill="#AEB0AC"/>
<path d="M39.6541 17.564C39.551 17.5054 39.3516 17.4503 39.3447 17.3918C39.2966 16.4964 38.5713 16.3896 37.9473 16.2329C37.6208 16.1502 37.8958 16.0831 37.8786 16.0021C37.8442 15.8041 37.8047 15.5665 37.5228 15.5062C37.294 15.443 37.069 15.3665 36.849 15.2772C37.0209 15.1791 37.2787 15.1739 37.1928 14.8932C37.1686 14.803 37.1154 14.7232 37.0415 14.6662C36.9676 14.6093 36.877 14.5783 36.7837 14.5781C36.348 14.5257 35.9063 14.5668 35.4877 14.6986C35.8521 14.337 36.3093 14.0408 35.5599 13.8376C35.5399 13.8339 35.5213 13.825 35.5058 13.8118C35.4903 13.7987 35.4785 13.7817 35.4716 13.7626C35.4647 13.7435 35.4628 13.7229 35.4662 13.7028C35.4697 13.6828 35.4782 13.6639 35.4911 13.6482C35.8641 13.1799 35.5049 12.8269 35.2797 12.4859C35.1594 12.3137 35.0133 12.2655 35.3141 12.1243C35.486 12.0451 35.3725 11.7592 35.2556 11.6938C34.5165 11.2805 34.1212 10.3335 33.2102 10.2474C32.466 10.175 31.6977 9.6705 30.9139 10.3162C31.2353 9.33472 31.1287 8.44963 30.3587 7.87105C29.6711 7.35446 28.8289 7.01007 27.8629 7.18227C28.2634 6.6829 28.064 6.47971 26.9795 6.2128C26.7801 6.36778 27.1788 6.46593 27.0241 6.61919C26.1922 6.27479 26.1922 6.2748 26.1647 6.79999C25.6078 5.88735 24.5748 5.85291 23.8701 5.28467C24.6882 5.39315 25.5889 5.15036 26.359 6.07677C26.2386 5.60151 26.1733 5.35355 26.6512 5.54641C27.545 5.91318 28.4697 6.19731 29.3841 6.51759C29.6316 6.45216 29.7399 6.65018 29.8791 6.78966C30.2968 7.04796 30.7145 7.30625 31.1287 7.55766C31.9228 8.05014 32.7032 8.565 33.5763 8.918C33.6674 8.95244 33.817 9.05232 33.8084 9.0902C33.6606 9.75488 34.2209 9.74454 34.5819 9.90297C34.9428 10.0614 35.2694 10.2129 35.3038 10.6658C35.3033 10.7079 35.3126 10.7496 35.331 10.7875C35.3494 10.8254 35.3763 10.8586 35.4096 10.8843C35.443 10.91 35.4818 10.9276 35.5231 10.9357C35.5644 10.9438 35.607 10.9422 35.6475 10.931C35.6986 10.9158 35.7522 10.9115 35.8051 10.9183C35.8579 10.925 35.9087 10.9427 35.9543 10.9703C35.9999 10.9978 36.0393 11.0346 36.0699 11.0782C36.1006 11.1219 36.1218 11.1714 36.1322 11.2237C36.1924 11.8987 36.782 12.2397 37.0432 12.7804C37.1739 13.0438 37.4626 13.1041 37.7136 13.2332C37.4214 13.4192 37.0432 13.4054 36.8318 13.7843C37.1139 13.7591 37.3981 13.792 37.6671 13.8808C37.9361 13.9697 38.1841 14.1126 38.396 14.3009L38.506 14.4352C38.506 14.7692 38.4974 15.0843 38.8875 15.2617C39.0715 15.3426 39.0457 15.3995 38.9425 15.7783C38.891 15.978 39.2072 15.9505 39.1625 16.1451C38.9735 16.1451 38.7913 15.9729 38.5524 16.1037C39.0123 16.3391 39.4149 16.673 39.7315 17.0818C39.881 17.2798 39.8621 17.4159 39.6662 17.5467" fill="#AEB0AD"/>
<path d="M13.8719 9.52942C13.806 9.56265 13.75 9.61286 13.7099 9.67489C13.6697 9.73693 13.6467 9.80856 13.6433 9.88243C13.6038 10.399 13.6141 10.4059 13.0881 10.4679C13.0314 10.6401 13.2892 10.7434 13.1912 10.9294C12.7684 10.6539 12.3593 10.4989 12.0328 11.0585C12.0031 11.1255 11.955 11.1825 11.8941 11.2231C11.8332 11.2637 11.7621 11.286 11.689 11.2875C11.2507 11.3048 11.096 11.5424 11.2352 11.9539C11.2971 12.1261 11.2352 12.3087 11.084 12.2725C10.6921 12.1778 10.5683 12.7151 10.1386 12.5997C9.86869 12.5256 10.075 12.827 10.1077 12.9527C10.1472 13.1077 10.2795 13.2592 10.13 13.4142C9.98042 13.5691 9.88072 13.3453 9.75181 13.3332C9.6229 13.3212 9.45961 13.3126 9.31523 13.3057C9.21042 13.2888 9.10295 13.3055 9.00819 13.3534C8.91342 13.4014 8.8362 13.4781 8.78755 13.5726C8.6741 13.8257 8.9199 13.9342 9.0574 14.072C9.13223 14.1402 9.21147 14.2035 9.2946 14.2614C8.92333 14.6058 8.49362 14.6574 8.05704 14.7039C8.10345 14.9071 8.38362 14.9174 8.38706 15.1551L7.43139 15.4134C7.77515 15.62 8.13267 15.5305 8.42143 15.8697C7.31279 15.6751 6.39837 15.8284 5.9085 16.9252C6.05976 16.9803 6.35883 16.9339 6.57025 17.1267C6.54619 17.1474 6.52384 17.187 6.5015 17.187C5.19518 17.187 5.41863 17.0785 4.90298 18.4268C4.77923 18.7454 4.7311 19.0863 4.43374 19.3222C4.31342 19.4186 4.13466 19.5908 4.33061 19.856C4.49562 20.0713 4.4303 20.3726 4.21545 20.5792C3.68605 20.0885 3.9284 19.4979 4.07794 18.9727C4.2017 18.5422 4.49046 18.1599 4.7225 17.7673C4.95455 17.3747 5.34128 17.0785 5.10065 16.5619C5.09273 16.511 5.09806 16.4589 5.11613 16.4106C5.13419 16.3623 5.16438 16.3196 5.20378 16.2864C5.93772 15.9799 5.96006 15.2188 6.24711 14.6402C6.51181 14.1098 6.98965 13.8309 7.43654 13.5209C7.6428 13.3763 7.88344 13.2747 7.99173 13.0439C8.20486 12.5876 8.9113 12.777 9.03506 12.2208L9.32038 12.424C9.21038 11.5734 9.96323 11.0981 10.1042 10.3577C10.1472 10.1252 10.448 10.0563 10.7196 10.034C11.2558 9.99091 11.8024 9.93064 12.3782 9.52942H11.5927C12.0138 9.1747 12.5123 9.20225 13.0245 9.17642C13.3958 9.1592 13.6897 9.12476 13.8633 9.52081" fill="#AFB0AE"/>
<path d="M16.243 6.31104C16.5352 6.51767 16.8309 6.36269 17.1489 6.34203C16.8618 6.5435 16.7759 6.99982 16.2774 6.93094C16.1055 6.90855 15.8872 7.12036 15.9336 7.21851C16.133 7.7351 15.6483 7.72304 15.4524 7.79192C14.9969 7.95378 14.7339 8.23274 14.6755 8.68734C14.617 9.14194 14.354 9.26764 13.9707 9.29691C13.627 9.0524 13.3124 8.76826 12.7676 8.56851L13.3623 8.52203H13.6029C13.431 8.27407 13.7026 8.20347 13.761 8.0571C14.22 6.90339 15.3767 6.81729 16.2534 6.31792L16.243 6.31104ZM27.4876 37.0222V38.572C27.0115 38.1552 26.4564 38.4514 25.9871 38.2844C25.8804 38.2392 25.7623 38.2282 25.6491 38.2529C25.5358 38.2775 25.433 38.3367 25.3546 38.4221C25.2102 38.553 25.1019 38.572 25.0108 38.398C24.9197 38.2241 24.8389 38.2844 24.7324 38.3688C24.5243 38.5621 24.2664 38.6931 23.9878 38.747C23.7092 38.8009 23.4211 38.7754 23.1562 38.6735C23.1175 38.6582 23.0746 38.6574 23.0354 38.6714C22.9962 38.6853 22.9634 38.713 22.9431 38.7493C22.4532 39.3399 21.9736 38.8389 21.5027 38.7149C21.4288 38.6977 21.4099 38.4635 21.3308 38.2362C20.9784 38.6426 20.6089 38.7183 20.2307 38.3705C20.119 38.2672 20.0313 38.2448 19.9471 38.4101C19.8784 38.5444 19.7495 38.5823 19.6446 38.4617C19.5618 38.353 19.4456 38.2745 19.3139 38.2384C19.1822 38.2023 19.0423 38.2106 18.9158 38.262C18.4603 38.4635 17.9189 38.0812 17.472 38.6357C17.4514 38.1191 17.3001 37.711 17.6783 37.3855C18.2008 37.6524 18.2386 37.6145 18.383 36.5969C18.5428 36.85 18.5205 37.2753 18.8591 37.2168C18.9906 37.2022 19.1178 37.1612 19.233 37.0961C19.3482 37.031 19.449 36.9431 19.5294 36.8379C19.6738 36.6365 20.0451 36.6279 20.0795 36.2766C20.1139 36.0183 20.0571 35.7324 20.3167 35.4449C20.3734 35.9873 20.3511 36.4781 20.5745 36.9258C20.8908 36.8224 20.7979 36.4987 20.9698 36.2852C21.4253 36.7708 21.6316 37.5646 22.448 37.4906C22.6955 37.4682 23.0634 37.3494 23.0496 36.9171C23.0893 37.0978 23.1393 37.276 23.1992 37.451C23.2081 37.4862 23.2248 37.5189 23.2481 37.5467C23.2714 37.5745 23.3006 37.5967 23.3337 37.6116C23.3667 37.6265 23.4027 37.6337 23.439 37.6328C23.4752 37.6318 23.5107 37.6226 23.5429 37.6059C24.0019 37.4027 24.8716 37.4596 25.3082 37.6662C25.7035 37.8522 26.0937 37.8591 26.3653 37.4251C26.8809 37.7402 27.1387 37.4079 27.3622 37.0067C27.3698 36.9993 27.3791 36.9938 27.3892 36.9906C27.3994 36.9874 27.4101 36.9867 27.4206 36.9883C27.4311 36.99 27.441 36.9941 27.4497 37.0002C27.4584 37.0064 27.4655 37.0145 27.4705 37.0239" fill="#AEAFAD"/>
<path d="M27.3697 24.7239C27.3353 25.1889 27.8682 25.6934 27.2803 26.1635L27.6585 25.9775C27.3491 26.3667 27.2735 26.6835 27.6791 26.9349C27.5296 27.0865 27.5897 27.3086 27.5279 27.4515C27.3388 27.8992 27.3869 28.1799 27.8372 28.4434C28.0435 28.5639 28.0813 29.0064 27.9919 29.2596C27.9743 29.4097 28.0044 29.5615 28.0779 29.6935C28.6314 30.3582 29.0026 31.1916 29.8311 31.6101C30.0188 31.6927 30.2183 31.745 30.4224 31.765C30.8074 31.8305 31.213 31.8907 31.0377 32.471C30.9604 32.7259 31.2921 32.6983 31.3574 32.8671C31.2646 33.1495 31.0308 33.2218 30.773 33.2494C30.4121 33.2976 30.0459 33.394 29.728 33.1116C29.7795 32.4745 29.1023 32.4969 28.829 32.1404C28.5895 31.8276 28.2574 31.5985 27.8802 31.4861C27.3525 31.3552 27.4247 30.694 26.928 30.5769C26.8472 30.5597 27.1549 30.5528 27.1222 30.2566C27.0449 29.5506 26.7355 29.1597 25.8984 29.0064C26.2903 28.8515 26.5773 29.1563 26.7131 28.8515C26.8128 28.6276 26.5842 28.5364 26.4502 28.4141C26.3608 28.3314 26.402 28.2281 26.4158 28.1214C26.5017 27.3706 26.3298 26.6095 26.7045 25.8484C26.818 25.6176 26.8885 25.194 26.9967 24.8617C27.0655 24.6378 27.1961 24.6258 27.3749 24.7119" fill="#AFB0AE"/>
<path d="M19.7531 31.6461C19.76 31.5887 19.7809 31.5339 19.8138 31.4865C19.8468 31.439 19.8909 31.4004 19.9422 31.3741C20.2997 31.0727 20.879 31.319 21.1798 30.8747C21.3259 31.3 21.8261 30.978 22.022 31.3689L22.1131 30.749C22.3194 30.7834 22.3778 30.6009 22.4878 30.4941C22.6202 30.7576 22.8625 30.8644 23.1238 30.9591C23.385 31.0538 23.2682 30.7008 23.4676 30.7214C23.5088 30.9866 23.4676 31.2001 23.9007 31.3413C24.3338 31.4825 24.6295 32.087 24.6965 32.6673C24.4318 32.6845 24.3012 32.1507 23.9746 32.4951C23.5277 31.9957 22.8711 32.4434 22.3589 32.1507C22.187 32.0508 21.9567 32.347 21.7625 32.4004C21.4703 32.4813 21.4187 33.1718 20.9202 32.7327C20.8515 32.6707 20.7621 32.8412 20.7484 32.9393C20.7174 33.1356 20.7088 33.3354 20.6916 33.5368C20.3376 33.468 20.4166 33.1408 20.2361 32.8911C20.078 33.5162 19.5795 33.666 19.033 33.8967C19.1051 33.5868 19.4111 33.4714 19.3595 33.1787C19.1498 33.0065 18.9917 33.3629 18.7236 33.2768C19.2048 32.8033 19.7807 32.4055 19.7411 31.6444" fill="#AEB0AD"/>
<path d="M27.3612 24.0902C27.5752 23.8978 27.8441 23.7774 28.13 23.7458C28.2615 23.8727 28.3433 24.0425 28.3605 24.2246C28.1885 24.4277 28.0062 24.6103 27.9873 24.8996C27.9873 25.0201 27.9013 25.1785 27.7877 25.1751C27.6157 25.1751 27.6157 24.9857 27.5951 24.8479C27.5744 24.7102 27.669 24.4897 27.3852 24.5035C27.3061 24.3692 27.5228 24.2177 27.3594 24.0902" fill="#B8ABB2"/>
<path d="M17.6532 39.5191C18.5865 40.38 19.5095 41.2582 20.6543 41.8385C20.6886 41.8558 20.7437 41.8764 20.7574 41.9074C20.9396 42.3827 21.2799 42.424 21.7234 42.3121C21.7737 42.2951 21.8271 42.2895 21.8798 42.2955C21.9325 42.3016 21.9832 42.3192 22.0284 42.3472C22.0735 42.3751 22.1119 42.4127 22.1409 42.4573C22.1699 42.5018 22.1887 42.5522 22.1961 42.6048C22.2683 42.9595 22.3473 43.3969 21.9795 43.5657C21.4346 43.8171 20.931 44.3319 20.2263 44.022C20.02 43.9307 19.9513 44.2028 19.7845 44.2458C19.4923 44.3147 19.1314 44.5214 19.2173 43.9187C18.9148 43.8928 18.5057 44.6195 18.3167 43.7981C18.3102 43.7912 18.3021 43.7859 18.2931 43.7829C18.2841 43.7799 18.2744 43.7792 18.2651 43.7809C17.5346 44.1546 17.0482 43.4796 16.4328 43.3607C16.3778 43.3521 16.3125 43.3917 16.2609 43.4072C15.9911 43.235 15.9051 42.7185 15.3843 42.9458C15.3431 42.963 14.9151 42.653 14.9718 42.3017C15.3156 41.7369 14.6005 41.5699 14.5146 41.0757C15.0131 41.4304 15.3499 41.9367 15.9584 41.966C16.2798 41.9832 16.6889 42.3104 16.7886 41.6474C16.8144 41.4752 17.1324 41.2686 17.3386 41.3977C17.5793 41.5596 17.8199 41.4873 18.0554 41.5355C18.2273 41.5699 18.5848 41.6508 18.5195 41.4976C18.3734 41.1704 18.8753 40.8605 18.4645 40.5677C18.1868 40.3552 17.928 40.119 17.691 39.8617C17.6051 39.7756 17.4401 39.6516 17.6618 39.5173" fill="#B0AFAE"/>
<path d="M25.7482 40.931C25.8565 41.2581 25.5523 41.7058 26.2364 41.8488C26.6953 41.9452 25.9958 42.1346 26.0817 42.3654C26.0989 42.3877 26.1401 42.4463 26.147 42.4428C26.6902 42.1398 27.3364 42.4325 27.883 42.1398C27.9273 42.1101 27.9803 42.0963 28.0333 42.1007C28.0864 42.1051 28.1364 42.1274 28.1752 42.1639C28.5826 42.5978 28.7081 42.2982 28.8112 41.8539C28.9143 42.1639 28.7889 42.5083 29.1206 42.6495C28.8404 43.4502 28.0171 43.4984 27.4258 43.8669C27.3099 43.9068 27.1865 43.9198 27.0649 43.9048C26.893 43.9048 26.7211 43.5776 26.5612 44.0494C26.4581 44.3594 26.0456 44.0494 25.7671 43.8359C25.7809 44.0942 25.8393 44.4661 25.4578 44.2957C24.8012 44.0064 24.0655 44.0942 23.4244 43.7877C22.974 43.5724 23.103 43.1643 23.0806 42.8027C23.0583 42.4411 23.2834 42.3946 23.5653 42.3946C24.191 42.3946 24.399 41.7403 24.906 41.5095C25.1879 41.3821 25.456 41.1169 25.7431 40.9241" fill="#AFB0AE"/>
<path d="M17.8471 24.3192C17.713 24.8771 18.2424 25.3059 18.1513 25.8586C18.1547 25.8776 18.1627 25.8954 18.1747 25.9105C18.1867 25.9255 18.2023 25.9373 18.22 25.9447C18.9505 26.0188 18.7958 26.5698 18.7735 27.0537C19.0348 26.9228 19.0176 26.6507 19.2084 26.4166C19.2541 26.7796 19.229 27.148 19.1345 27.5014C19.0141 27.9043 18.7907 28.2763 18.911 28.7619C18.9345 28.8386 18.9404 28.9196 18.9283 28.9989C18.9162 29.0782 18.8864 29.1537 18.8411 29.2199C18.7959 29.2861 18.7363 29.3412 18.6669 29.3811C18.5974 29.4211 18.5199 29.4449 18.4401 29.4506C18.364 29.4641 18.2916 29.4929 18.227 29.5353C18.1624 29.5776 18.1071 29.6326 18.0643 29.697C18.0216 29.7614 17.9923 29.8338 17.9783 29.9099C17.9643 29.9859 17.9659 30.064 17.9828 30.1394C17.9914 30.2286 17.9666 30.3178 17.9132 30.3897C17.8599 30.4616 17.7818 30.5111 17.6941 30.5286C17.4998 30.5561 17.1956 30.6732 17.5359 30.9815C17.6322 31.0676 17.5961 31.1433 17.3434 31.1881C16.5218 31.3259 16.0663 31.8941 15.6418 32.5416C15.3891 32.9204 14.9543 32.7999 14.5589 32.7413C14.6019 33.0857 14.8735 32.9445 15.0058 33.0461C14.9884 33.1443 14.9473 33.2367 14.886 33.3153C14.8248 33.394 14.7453 33.4564 14.6544 33.4971C14.5635 33.5379 14.4641 33.5557 14.3648 33.5492C14.2654 33.5426 14.1692 33.5118 14.0845 33.4594C13.9924 33.3046 13.8567 33.1805 13.6943 33.1029C13.4503 32.545 13.8559 31.6909 14.442 31.6186C15.3754 31.5084 15.8979 30.8816 16.3551 30.1722C16.6473 29.721 16.8501 29.201 17.3984 28.9874C17.5531 28.9272 17.5102 28.8531 17.4895 28.7464C17.4517 28.5518 17.3727 28.7464 17.3177 28.7257C17.1973 28.7033 17.0426 28.7171 16.9979 28.5879C16.9533 28.4588 17.0839 28.371 17.1836 28.2987C17.2833 28.2263 17.3658 28.1953 17.4517 28.1402C17.9158 27.8303 17.9278 27.7373 17.5102 27.3912C17.2816 27.2018 17.1251 27.0227 17.328 26.7024C17.4998 26.4269 17.3537 26.0997 17.328 25.8311C17.3078 25.5283 17.3671 25.2256 17.4998 24.9529C17.5136 24.9357 17.3692 24.9012 17.438 24.9529C17.4319 24.9587 17.4272 24.9657 17.4242 24.9736C17.3486 25.2353 17.1217 25.3799 17.0117 25.1061C16.7642 24.5086 16.2898 24.1591 15.8429 23.763C15.8234 23.7393 15.8094 23.7116 15.802 23.6818C15.7946 23.652 15.7939 23.6209 15.7999 23.5908C16.5448 23.5934 17.2669 23.8482 17.8488 24.314" fill="#B0B0AF"/>
<path d="M28.3612 24.2177C28.2688 24.1827 28.1933 24.1135 28.1505 24.0245C28.1076 23.9354 28.1005 23.8332 28.1307 23.739C28.4988 23.6185 28.8531 23.3602 29.2659 23.5909L28.3612 24.2177Z" fill="#AFB0AE"/>
<path d="M44.7553 7.92109C45.0991 9.02315 44.9788 10.1476 44.7553 11.2359C44.6522 11.7525 44.1623 12.2346 44.2981 12.7856C44.47 13.4744 44.0025 13.6294 43.6793 14.0254C43.2462 14.542 42.8371 14.9846 42.1771 15.1551C42.1771 15.1757 42.1857 15.1947 42.1943 15.2119C42.2115 15.2687 42.2544 15.3272 42.1599 15.3841C41.6683 14.8451 41.0014 14.6953 40.3087 14.5816C40.8622 14.8089 40.7814 15.5149 41.2369 15.7991C41.2541 15.7991 41.2575 15.837 41.2541 15.8559C41.2197 16.6067 41.2936 16.8891 41.7078 17.6261C41.7138 17.6426 41.7167 17.6601 41.7164 17.6777C41.5892 17.7914 41.3555 17.552 41.2902 17.7897C41.2455 17.9618 41.4277 18.0135 41.536 18.1065C41.823 18.3562 41.8625 18.6782 41.9347 19.0536C42.086 19.8388 42.459 20.5758 42.6996 21.3472C42.8818 21.9327 43.2325 22.4286 43.2032 23.1381C43.186 23.5513 43.4043 24.2487 43.9561 24.5638C44.0105 24.5934 44.0682 24.6165 44.128 24.6327C43.6295 25.5884 44.152 26.26 44.7914 27.0435L44.1039 26.6991C44.0695 27.1554 44.2981 27.536 44.3566 27.9423C44.0936 28.0112 44.03 27.7133 43.8065 27.7529C43.7068 28.1266 44.073 28.3556 44.1503 28.6793C43.8925 28.8119 43.7447 28.5622 43.5109 28.5691C43.4765 29.2097 43.7172 29.7745 43.9303 30.3669C44.0678 30.7577 44.5285 31.202 43.8959 31.5895C43.8839 31.5895 43.8959 31.6273 43.8959 31.648C43.8272 32.4642 43.492 33.2666 43.7412 34.0984C43.8134 34.3394 43.6656 34.3446 43.5436 34.3876C43.0915 34.5495 42.844 34.8095 42.8045 35.3416C42.7598 35.9443 42.2888 36.3972 42.0069 36.9138C41.9725 36.9826 41.7388 36.7295 41.615 37.005C41.4225 37.4355 41.3452 37.7937 41.9038 38.0261C41.6288 38.2758 41.3056 38.0899 40.9894 38.2672C41.505 38.5117 40.6164 39.2074 41.4621 39.3245C41.187 39.5828 40.8828 39.5208 40.5201 39.5656C40.967 39.9272 40.5201 40.5127 41.0255 40.8794C40.932 40.9184 40.8337 40.9444 40.7333 40.9569C40.1145 40.9259 40.0028 41.2221 40.2176 41.7404C40.2692 41.8661 40.2692 42.0641 40.1231 42.0159C39.4699 41.799 39.298 42.7254 38.6483 42.6134C38.528 42.5928 38.2616 43.1541 37.9986 43.4004C37.7356 43.6466 38.5246 43.4004 38.1499 43.7017C37.9833 43.826 37.8048 43.9333 37.617 44.022C37.3076 44.1822 38.1052 44.239 37.648 44.3836C37.4454 44.4236 37.239 44.4409 37.0326 44.4353C37.1701 44.9519 36.3623 44.4646 36.4877 44.9588C36.3898 44.7297 36.1182 44.7866 35.9721 44.666C35.8741 44.5713 35.8518 44.5386 35.759 44.6436C35.5871 44.8503 35.5252 45.3324 35.0714 44.957C34.8755 45.4908 34.2258 45.3703 33.9095 45.756L33.8098 45.2394C33.6242 45.7732 33.5176 46.264 32.818 46.2726C32.7923 46.2554 32.9555 46.078 32.818 45.9282C32.7321 46.0746 32.6462 46.2037 32.5843 46.3346C32.3471 46.7892 32.1838 46.8512 31.7558 46.5171C31.6475 46.4345 31.553 46.4035 31.5186 46.4793C31.2539 47.0578 30.4873 47.323 30.5045 48.0583C30.5217 48.6007 29.8341 48.3786 29.7895 48.7987C29.7482 49.1776 29.7602 49.5839 29.1793 49.4531C29.0641 49.4272 28.9386 49.4823 28.9507 49.6012C29.0332 50.4863 28.2631 50.2968 27.885 50.302C27.56 50.3026 27.2449 50.4137 26.9912 50.6171C26.5701 50.9219 26.1438 51.1991 25.5989 51.2233C25.4546 51.2233 25.3016 51.3696 25.3617 51.039C25.3892 50.8771 25.1624 50.9942 25.0953 51.0562C24.8977 51.2491 24.724 51.4626 24.5659 51.6382C24.0812 51.3283 23.5226 51.3386 22.964 51.3972C22.6941 51.423 22.4053 51.4902 22.1819 51.3352C22.0839 51.2663 22.1475 51.0252 21.8845 51.1923C21.5923 51.3817 21.2795 51.3335 20.9736 51.1354C20.4579 50.8031 19.901 50.519 19.3802 50.1884C19.0227 49.9593 18.6514 50.0506 18.2887 50.085C17.5154 50.1879 16.7311 50.0042 16.0835 49.5684C15.6538 49.2895 15.298 49.1827 15.0075 48.6558C14.8356 48.3321 14.5915 47.9842 14.3767 47.6433C14.1286 47.2331 13.8313 46.8549 13.4915 46.5171C13.3987 46.431 13.2955 46.3346 13.2113 46.5275C13.1271 46.7203 12.9999 46.7427 12.9569 46.5275C12.8297 45.8731 12.5135 46.3208 12.3089 46.4293C12.137 46.5206 12.0339 46.722 11.819 46.958C12.0012 46.2692 11.5406 46.0591 11.0628 45.8301C10.7671 46.0315 10.719 46.4586 10.5471 46.8426C10.5299 46.0298 10.0315 45.4926 9.58453 44.926C9.36968 45.0776 9.58453 45.248 9.4814 45.434C9.21155 45.1688 9.13764 44.7625 8.74574 44.5937L8.68386 45.038C8.62199 44.9966 8.53948 44.9725 8.52917 44.9295C8.42948 44.4921 7.81929 44.4646 7.78319 43.9514C7.76085 43.6311 7.24692 43.9755 7.15238 43.5261C7.04925 43.0336 6.7433 43.5915 6.51642 43.514C6.40985 43.3659 6.50266 43.2006 6.48719 43.0457C6.48502 42.9254 6.46887 42.8058 6.43907 42.6892C5.86154 42.6617 5.56934 42.0521 5.02447 42.0004C4.86977 41.9867 4.65664 42.0314 4.73742 41.842C5.0915 41.0292 4.63085 40.9001 3.83675 40.9294C4.53632 40.5678 3.90551 39.8962 4.52429 39.5914C4.12895 39.4933 3.83675 39.5914 3.5669 39.3589C4.22005 39.1695 3.60815 38.5841 3.94504 38.2621C3.77316 38.0899 3.54627 38.2173 3.36407 38.145C3.11828 38.0485 2.66279 38.0451 3.11141 37.6008C3.22829 37.4854 3.28329 37.2254 3.00828 37.2564C2.73326 37.2874 2.80717 36.9327 2.5906 36.9516C2.71779 36.3903 2.26746 36.392 1.93744 36.2766C2.22449 35.8668 1.38742 35.7773 1.67446 35.364C1.67878 35.3465 1.67868 35.3282 1.67418 35.3108C1.66968 35.2934 1.66091 35.2773 1.64868 35.2641C1.13303 35.0334 1.30491 34.4376 1.01271 34.0932C0.794414 33.8349 1.20866 33.8228 1.18459 33.5249C1.11584 32.7501 0.780663 32.0268 0.806446 31.2433C0.806446 30.9747 0.290796 31.1521 0.335485 30.7681C0.49018 30.6475 0.689565 31.1004 0.813321 30.7681C0.832327 30.7243 0.840971 30.6767 0.838578 30.629C0.836184 30.5812 0.822818 30.5347 0.799522 30.4931C0.776227 30.4514 0.743633 30.4157 0.704284 30.3887C0.664935 30.3617 0.619897 30.3442 0.572684 30.3376C0.483305 30.3169 0.38705 30.2102 0.521119 30.1137C0.916451 29.8382 0.761756 29.5386 0.486743 29.3423C0.170477 29.1443 0.3733 28.7637 -0.0117188 28.5226C0.892388 28.595 0.607061 27.9372 0.761756 27.5824C0.801204 27.437 0.801204 27.2836 0.761756 27.1382C0.558934 26.5648 1.10553 26.093 0.933639 25.5368C0.890669 25.399 0.950828 25.337 1.1399 25.2509C1.48367 25.1011 1.53524 24.6603 1.51461 24.3176C1.46992 23.5324 1.77243 22.8126 1.87213 22.055C1.88594 21.8287 1.94655 21.6077 2.05011 21.4062C2.15367 21.2046 2.29793 21.0268 2.47372 20.884C2.72811 20.6774 2.79342 20.011 3.03234 19.5857C3.0839 19.4961 3.10453 19.367 3.18016 19.3153C3.73019 18.9365 3.48955 18.2821 3.73362 17.7862C3.83675 17.5796 3.66143 17.4418 3.41908 17.4814L2.60779 17.5968C2.72879 17.4498 2.90063 17.3539 3.08906 17.3282C3.56518 17.2386 4.00004 16.6394 3.97254 16.5188C3.82988 15.8903 4.57757 15.6579 4.48819 15.0948C4.45725 14.8778 4.29053 14.957 4.2424 14.8503C4.05333 15.0845 3.65799 14.9484 3.58237 15.0225C3.12688 15.5046 2.80202 15.0397 2.47544 14.9019C2.07826 14.7217 1.74545 14.4243 1.52148 14.0496C1.00583 13.2695 0.868324 12.3276 0.309703 11.5803C0.161883 11.384 0.371581 11.167 0.368143 10.938C0.364706 9.81525 -0.0426577 8.72181 0.158446 7.58876C0.189385 7.41656 0.130944 7.21509 0.216886 7.03773C0.577841 7.03773 0.619093 7.32702 0.595029 7.55432C0.481586 8.65465 0.85973 9.70505 0.85973 10.7847C0.849274 10.8902 0.866628 10.9966 0.91006 11.0933C0.953492 11.19 1.02149 11.2736 1.10725 11.3357C1.54383 11.5975 1.6229 12.0039 1.64008 12.4619C1.64008 12.8821 1.74665 13.242 2.19699 13.4124C2.36241 13.5032 2.4858 13.6553 2.54075 13.836C2.60366 13.9919 2.70669 14.1282 2.83934 14.2311C2.97199 14.334 3.12951 14.3999 3.29584 14.4219C3.46218 14.444 3.63137 14.4215 3.78618 14.3567C3.94099 14.2918 4.07587 14.1871 4.17708 14.053C4.40569 13.7775 4.73227 13.7086 4.97806 13.5364C5.44558 13.2058 6.12108 13.2437 6.43907 12.6754C6.5422 12.486 6.74846 12.5032 6.92722 12.443C7.37755 12.3 7.50303 11.9556 7.18848 11.5958C6.89971 11.2651 6.92722 10.9827 7.22286 10.7348C7.5185 10.4868 7.50474 10.2561 7.43771 9.95129C7.37068 9.6465 7.26583 9.34171 7.32427 9.02143C7.38271 8.70114 7.52021 8.49795 7.8296 8.46351C7.96547 8.44487 8.10362 8.47329 8.22116 8.54407C8.3387 8.61484 8.42857 8.72373 8.47589 8.85268C8.83684 9.60345 8.84028 9.58623 9.67907 9.42437C10.2979 9.30383 10.927 9.38993 11.5526 9.36754C11.6557 9.36134 11.759 9.36134 11.862 9.36754C12.0339 9.38476 12.2883 9.25734 12.3553 9.49497C12.4224 9.7326 12.1731 9.85141 11.9875 9.92201C11.6031 10.0782 11.1976 10.1758 10.7843 10.2113C10.4852 10.2285 10.2343 10.3439 10.1483 10.6246C10.0005 11.0895 9.68079 11.4735 9.55188 11.9212C9.50974 12.0905 9.43006 12.248 9.31877 12.3822C9.20747 12.5163 9.06742 12.6236 8.90903 12.6961C8.2215 12.9888 7.74022 13.5571 7.12488 13.9359C6.85576 14.0958 6.62705 14.3157 6.45654 14.5785C6.28602 14.8413 6.17829 15.1399 6.14171 15.4512C6.09702 15.7784 5.88388 15.9678 5.65528 16.14C5.50746 16.2554 5.2737 16.3535 5.31151 16.5481C5.42324 17.2369 4.91618 17.6571 4.64804 18.1788C4.55351 18.3648 4.4521 18.5456 4.35584 18.7298C4.19545 19.0021 4.10602 19.3104 4.09581 19.6264C4.0856 19.9424 4.15492 20.2558 4.2974 20.5379C4.15474 21.2439 3.62706 21.7261 3.2661 22.2995C3.56518 22.9159 3.2661 23.3568 2.87764 23.8148C2.12995 24.7016 2.03885 25.7916 2.06635 26.8885C2.08011 27.443 2.05432 28.0129 2.31559 28.5416C2.37077 28.6311 2.39403 28.7367 2.38154 28.8412C2.36905 28.9457 2.32156 29.0428 2.24683 29.1167C1.98041 29.3957 2.07495 29.6574 2.37574 29.8399C2.67654 30.0225 2.5906 30.1723 2.37574 30.3565C1.78447 30.9024 1.88416 31.4672 2.62669 31.772C2.86046 31.8684 2.84155 31.9442 2.70576 32.1301C2.11104 32.9257 2.13339 33.2115 2.85702 33.9107C2.91532 33.9677 2.95762 34.0391 2.97964 34.1177C3.00167 34.1963 3.00265 34.2793 2.98249 34.3584C2.93027 34.68 2.97116 35.0099 3.10032 35.309C3.22948 35.6081 3.44151 35.8638 3.71128 36.0459C3.97426 36.2353 4.13583 36.5418 4.39881 36.745C4.45179 36.7828 4.49101 36.8369 4.51055 36.899C4.5301 36.9612 4.52888 37.028 4.5071 37.0894C4.22693 37.6266 4.56726 38.1536 4.5071 38.6839C4.48846 38.7668 4.49814 38.8535 4.5346 38.9302C5.19979 39.9375 5.49715 41.1515 6.32906 42.0469C6.7794 42.5291 7.39474 42.7529 7.88633 43.1662C8.74574 42.8993 9.04138 43.6449 9.51234 44.0754C9.61559 44.2397 9.76346 44.3711 9.93861 44.4542C10.2223 44.6023 10.4955 44.7745 10.7465 44.3853C10.8599 44.2132 10.9785 44.3113 11.0903 44.437C11.434 44.8331 11.795 45.2084 12.3966 45.1258C12.4808 45.1329 12.5599 45.1695 12.62 45.2291C13.3935 45.806 14.2495 46.2933 14.6603 47.2369C14.6775 47.2748 14.6947 47.3351 14.7222 47.3437C15.255 47.4883 15.5816 47.9842 16.111 48.1254C16.3946 48.2029 16.5372 47.9188 16.7126 47.7466C16.8157 47.6467 16.9068 47.4969 17.0735 47.5744C17.1405 47.6087 17.1934 47.6652 17.2232 47.7344C17.253 47.8035 17.2578 47.8809 17.2368 47.9533C17.0752 48.6885 17.5978 48.7867 18.0962 48.9348C18.2973 48.9916 18.4795 49.107 18.6806 48.9348C18.9213 48.7281 19.1653 48.4871 19.4661 48.8659C19.4774 48.879 19.4918 48.8891 19.5079 48.8952C19.5241 48.9013 19.5415 48.9033 19.5587 48.9009C19.5758 48.8985 19.592 48.8918 19.6059 48.8815C19.6197 48.8712 19.6308 48.8575 19.638 48.8418C20.0454 48.308 20.188 48.6696 20.3995 49.0312C20.5473 49.286 20.9736 49.4737 21.1489 49.3756C21.8106 49.0002 22.4414 49.3756 23.0808 49.3343C23.2158 49.3229 23.3465 49.2815 23.4634 49.2129C23.5803 49.1444 23.6804 49.0505 23.7563 48.9382C24.0915 48.3958 24.3167 48.4802 24.5814 49.076C24.7533 48.599 24.9252 48.3579 25.3136 48.8091C25.5267 49.0588 25.7571 48.4388 26.0561 48.7505C26.2572 48.9571 26.4893 49.1586 26.8245 48.9468C26.962 48.8607 27.1459 48.8711 27.28 48.7574C27.4518 48.6076 27.5825 48.7057 27.7062 48.8435C27.7578 48.7023 27.7062 48.5628 27.7062 48.4233C27.732 48.1375 27.5997 47.7518 27.8609 47.6002C28.1583 47.4281 28.2838 47.8362 28.4711 47.9997C28.538 48.0566 28.6155 48.0994 28.6993 48.1255C28.783 48.1517 28.8711 48.1607 28.9583 48.152C29.0456 48.1434 29.1302 48.1172 29.2071 48.075C29.2841 48.0329 29.3518 47.9757 29.4062 47.9068C29.8702 47.2868 30.4632 46.7599 30.8053 46.0522C30.9892 45.6699 31.4928 45.5787 31.5959 45.1292C32.0257 45.36 32.3935 44.8537 32.8198 45.0294C32.9349 45.0759 33.0948 45.1206 33.1549 44.9777C33.4574 44.2717 34.2842 44.3234 34.7448 43.8515C34.9563 43.6363 35.1969 43.6277 35.484 43.6552C35.9188 43.6983 36.2849 43.483 36.6407 43.2489C36.7782 43.1628 36.8917 43.025 37.079 43.0353C37.1409 43.0353 37.1392 43.1731 37.2028 43.0956C37.5242 42.7099 37.6222 42.1347 38.2341 41.9935C38.4541 41.9419 38.4885 41.6629 38.4197 41.4528C38.3166 41.1257 38.3922 40.9363 38.7463 40.8708C39.1004 40.8054 39.1932 40.6005 39.0557 40.275C38.9182 39.9496 38.9749 39.7791 39.3616 39.8066C39.3444 39.7137 39.2757 39.7378 39.2344 39.7206C39.0626 39.6396 38.7497 39.6964 38.7704 39.4158C38.7875 39.1678 39.0557 39.1609 39.2619 39.123C39.4589 39.0895 39.6445 39.0077 39.8023 38.8849C39.96 38.7622 40.0851 38.6022 40.1662 38.4193C40.2474 38.2365 40.2821 38.0363 40.2674 37.8367C40.2527 37.6372 40.1889 37.4443 40.0818 37.2754C39.8653 36.943 39.9374 36.8225 40.1334 36.5521C40.374 36.225 40.4943 35.8289 40.9928 35.7687C41.1939 35.7445 41.2936 35.5448 41.1561 35.3296C41.1215 35.2826 41.0967 35.2291 41.0834 35.1722C41.07 35.1154 41.0684 35.0564 41.0785 34.9989C41.0886 34.9414 41.1103 34.8865 41.1423 34.8377C41.1743 34.7889 41.2158 34.7471 41.2644 34.7148C41.4827 34.5426 41.6081 34.3876 41.4741 34.0846C41.3881 33.89 41.5978 33.8228 41.7491 33.7402C41.8918 33.6774 42.0078 33.566 42.0763 33.4257C42.1449 33.2854 42.1617 33.1254 42.1238 32.9739C42.0447 32.6054 41.9107 32.2851 41.4535 32.2851C41.3062 32.2903 41.1595 32.2633 41.0237 32.2059C40.9275 32.1594 40.8175 32.0199 40.9292 31.9821C41.273 31.8529 41.2386 31.2623 41.7371 31.3449C41.8594 31.3783 41.99 31.3619 42.1004 31.2994C42.2108 31.2368 42.2921 31.1331 42.3266 31.0109C42.4521 30.7078 42.3163 30.5425 42.1238 30.36C41.8488 30.0982 41.7457 29.8606 42.2046 29.6712C42.5002 29.5472 42.5776 29.2975 42.6257 28.9721C42.746 28.1524 42.9471 27.3465 42.8698 26.5062C42.8639 26.1925 42.7986 25.8828 42.6773 25.5936C42.5054 25.232 42.0808 24.9341 42.3851 24.4399C42.416 24.3848 42.2647 24.2797 42.1891 24.2108C42.0567 24.1097 41.9124 24.0253 41.7594 23.9594C41.3916 23.7993 41.1922 23.6581 41.7113 23.3912C41.9657 23.2603 42.1513 22.2547 41.9829 22.024C41.4466 21.2749 41.0616 20.376 40.0921 20.0368C39.9443 19.9852 39.5249 19.9163 39.9203 19.5943C40.0578 19.4806 39.9374 19.3739 39.8824 19.2705C39.7759 19.0742 39.6349 18.9124 39.7965 18.6472C39.9581 18.382 39.6538 18.2408 39.5043 18.1134C39.1605 17.8327 39.2912 17.6571 39.5799 17.4763C39.5971 16.9424 39.1416 16.7582 38.8305 16.4775C38.5194 16.1968 38.5177 16.2192 38.8305 15.9782C38.9165 15.9127 38.8305 15.4151 38.6758 15.2894C38.3561 15.0311 38.1997 14.7624 38.5108 14.3939C39.4338 14.3078 39.5249 14.1873 39.4252 13.2058C39.3909 12.8614 39.2791 12.4481 39.7948 12.3586C40.2589 12.2794 40.6542 12.6737 40.6542 13.1955C40.6497 13.3625 40.6365 13.5292 40.6147 13.6948C40.6044 13.8326 40.5459 14.0048 40.7419 14.0651C40.8136 14.0864 40.8904 14.0827 40.9597 14.0545C41.0291 14.0263 41.0868 13.9754 41.1234 13.9101C41.4277 13.3849 41.8711 13.4365 42.3782 13.5278C43.2479 13.6879 43.4782 13.4675 43.4095 12.5842C43.3823 12.4194 43.3981 12.2503 43.4553 12.0935C43.5125 11.9366 43.6092 11.7972 43.7361 11.6887C44.3136 11.2118 44.4236 10.5781 44.3806 9.88585C44.3525 9.40641 44.3525 8.92573 44.3806 8.44629C44.3944 8.20522 44.3978 7.9297 44.7588 7.92109H44.7553ZM11.5956 9.5449C10.7981 9.61034 9.9919 9.42092 9.1892 9.75498C8.80074 9.91857 8.4776 9.60689 8.40369 9.16952C8.33838 8.79585 8.1665 8.49795 7.76773 8.61504C7.39474 8.72181 7.42396 9.09719 7.48068 9.41576C7.52458 9.68083 7.58195 9.94348 7.65256 10.2027C7.67685 10.2592 7.68971 10.3199 7.6904 10.3814C7.69109 10.4429 7.67959 10.504 7.65657 10.561C7.63355 10.618 7.59946 10.6699 7.55629 10.7136C7.51311 10.7573 7.46171 10.792 7.40505 10.8157C7.10082 10.9879 6.74846 11.2875 7.41708 11.5045C7.546 11.5493 7.70413 11.6595 7.58897 11.8351C7.41708 12.0969 7.60616 12.5928 7.07332 12.6186C6.72955 12.6358 6.4236 12.6823 6.38578 13.1266C6.38578 13.192 6.2689 13.316 6.23453 13.2988C5.80138 13.1851 5.57793 13.5502 5.28573 13.6604C4.83368 13.8326 4.44006 13.8894 4.13927 14.3492C3.92613 14.6798 3.45173 14.5214 3.08219 14.5627C2.58372 14.6144 2.41184 14.3905 2.39465 13.9204C2.38746 13.8489 2.36306 13.7802 2.32354 13.7202C2.28402 13.6602 2.23057 13.6108 2.16777 13.576C1.30835 13.39 1.46992 12.6944 1.43554 12.1123C1.41835 11.8541 1.36335 11.6646 1.1124 11.5785C0.693003 11.4287 0.65347 11.062 0.639719 10.7176C0.596748 9.60345 0.295952 8.50828 0.416271 7.38384C0.41789 7.30991 0.396842 7.23725 0.355966 7.17567C0.31509 7.11409 0.25635 7.06655 0.187666 7.03945C0.502212 5.33988 1.39085 3.88482 2.16948 2.39016C2.25027 2.23518 2.41872 2.24034 2.50466 2.18352C2.9739 1.8839 3.23688 1.40864 3.60471 0.948874C3.75597 0.966093 3.66315 1.202 3.71987 1.36214C4.18911 0.432285 5.064 0.483944 5.89935 0.380627C7.50424 0.166765 9.13704 0.383045 10.6313 1.00742C10.731 1.05047 10.8032 1.18823 10.8771 0.952318C10.951 0.716409 11.037 0.838668 11.0765 0.986757C11.1009 1.13327 11.1727 1.26771 11.2807 1.36942C11.3888 1.47114 11.5272 1.53452 11.6747 1.54984C12.4086 1.63594 12.5066 2.25584 12.7232 2.78104C12.7919 3.30968 12.5994 3.70746 12.1044 3.91237C12.0148 3.93597 11.9371 3.99197 11.8864 4.06956C11.8356 4.14715 11.8153 4.24083 11.8294 4.33253C11.8397 4.56844 11.9669 4.62182 12.1731 4.67692C12.8091 4.84912 12.8332 4.97826 12.7403 5.66877C12.6682 6.20774 12.6286 6.73294 12.0614 7.098C12.4791 7.27019 12.938 6.86725 13.1666 7.28741C13.3822 7.66238 13.4669 8.09865 13.4072 8.52723C13.3813 8.56358 13.347 8.59308 13.3072 8.61318C13.2673 8.63328 13.2232 8.64337 13.1786 8.6426C13.5352 8.74418 13.8489 8.95938 14.0724 9.25561C14.1824 9.51046 14.32 9.78426 13.8215 9.62584C13.5035 9.20912 13.0394 9.36065 12.6303 9.34688C12.276 9.33032 11.9227 9.39757 11.599 9.54318L11.5956 9.5449ZM44.7553 7.92109C44.4734 8.06746 44.5388 8.33437 44.5181 8.58061C44.4494 9.35205 44.6213 10.1218 44.4786 10.9053C44.43 11.1579 44.289 11.3832 44.0833 11.5372C43.6845 11.8816 43.4679 12.2381 43.5676 12.8184C43.6914 13.5071 43.3218 13.8274 42.6223 13.7413C42.4364 13.7302 42.2528 13.6955 42.0757 13.638C41.7182 13.4968 41.4672 13.5588 41.3228 13.9307C41.2949 14.0025 41.2529 14.0679 41.1992 14.1231C41.1456 14.1783 41.0815 14.2221 41.0106 14.2519C40.9398 14.2818 40.8636 14.2971 40.7868 14.297C40.7099 14.2968 40.6338 14.2812 40.5631 14.251C40.2967 14.158 40.4514 13.8429 40.4806 13.6173C40.5408 13.1404 40.6697 12.653 39.9649 12.5101C39.5816 12.4326 39.5181 12.5962 39.5352 12.8958C39.5453 13.077 39.5654 13.2576 39.5954 13.4365C39.7398 14.3147 39.3754 14.6505 38.5057 14.4404C38.3922 14.4525 38.3338 14.3802 38.308 14.2889C38.308 13.6569 38.1877 13.0939 37.5792 12.7391C37.3094 12.579 37.2578 12.2673 37.2183 11.9694C37.1547 11.4873 37.0842 11.0258 36.5754 10.7641C36.3296 10.6366 36.2918 10.3577 36.4035 10.0977C36.6356 9.58107 36.3382 9.52941 35.9394 9.55007C35.8144 9.55368 35.6903 9.57277 35.5699 9.60689C34.7191 9.86519 34.7191 9.86519 34.2808 9.09719C34.2521 9.0293 34.2098 8.96801 34.1566 8.91707C34.1034 8.86614 34.0404 8.82665 33.9714 8.80102C33.3904 8.66326 33.3354 8.2431 33.3285 7.74545C33.3285 7.30808 33.2082 6.88447 33.2013 6.43676C33.2013 6.28695 33.1429 6.10959 32.9727 6.10443C32.763 6.09582 32.8008 6.30245 32.7837 6.4316C32.7712 6.5777 32.7712 6.7246 32.7837 6.8707C32.7837 7.24953 32.7183 7.60253 32.256 7.6628C31.8521 7.71446 31.4361 7.74029 31.2934 7.22026C31.2247 6.97229 31.0047 6.87586 30.8465 6.714C30.5165 6.36961 30.5612 6.11476 31.0064 5.91501C31.4086 5.74281 31.6561 5.35537 32.0549 5.15735C32.2955 5.03681 32.2268 4.70447 32.2268 4.45823C32.2268 3.94164 32.2783 3.44572 32.8627 3.22875C32.939 3.19424 33.0002 3.13301 33.0346 3.05655C33.1893 2.73627 33.3062 2.36777 33.7393 2.3385C34.4406 2.28684 35.1453 2.1663 35.8501 2.3385C36.0666 2.38499 36.1079 2.53824 36.0219 2.71733C35.8019 3.19431 36.0615 3.20981 36.4173 3.15126C36.6035 3.12521 36.7932 3.14898 36.9673 3.22014C37.0997 3.2718 37.2561 3.37856 37.3403 3.17193C37.3726 3.09323 37.3746 3.00535 37.346 2.92522C37.3175 2.8451 37.2603 2.7784 37.1856 2.73799C37.1325 2.70417 37.0745 2.67862 37.0137 2.66223C36.297 2.42115 36.1921 2.28339 36.2334 1.64627C36.278 0.957484 36.5771 0.583818 37.2097 0.471891C37.4159 0.437451 37.6153 0.385793 37.8233 0.361685C38.5538 0.268699 38.6483 0.327246 38.6827 1.05047C38.6964 1.33459 38.7944 1.43274 39.0694 1.35526C39.1485 1.33115 39.0471 1.35526 39.1296 1.33804C40.4668 1.13657 40.9258 1.51023 40.9653 2.85336C41.1716 2.89641 41.1716 2.69494 41.2627 2.60023C41.7199 2.12325 42.3404 2.18696 42.6377 2.78621C42.7733 3.06997 42.9995 3.30027 43.2806 3.44055C43.4428 3.5132 43.5776 3.63598 43.6651 3.79091C43.7526 3.94585 43.7884 4.12479 43.767 4.30153C43.7412 4.74063 43.4456 4.77852 43.131 4.84223C42.8165 4.90594 42.7615 5.12291 42.7701 5.41048C42.7873 5.92706 42.9162 6.44365 42.8388 6.96024C42.8388 7.04117 42.966 6.97057 42.8835 6.98263C42.8663 6.98263 42.8663 6.96541 42.8663 6.93097C42.8438 6.77368 42.8792 6.61356 42.9658 6.48048C43.0525 6.3474 43.1845 6.25045 43.3373 6.20774C43.6604 6.10443 43.9423 6.22496 44.1967 6.44021C44.5405 6.72778 44.5525 7.1841 44.7691 7.53365C44.7691 7.65936 44.7519 7.78334 44.7467 7.90904L44.7553 7.92109ZM44.776 7.54226C44.4786 7.53193 44.4889 7.26158 44.4322 7.08594C44.3605 6.86834 44.2345 6.67273 44.0661 6.5177C43.9714 6.40728 43.8421 6.33245 43.6993 6.30554C43.5565 6.27862 43.4088 6.30122 43.2806 6.36961C43.0176 6.51253 42.8509 6.77255 43.0485 7.10661C43.131 7.24953 43.1603 7.41139 42.966 7.451C42.935 7.45383 42.9038 7.45029 42.8742 7.44059C42.8446 7.4309 42.8173 7.41526 42.794 7.39462C42.7707 7.37398 42.7518 7.34879 42.7385 7.32058C42.7252 7.29238 42.7178 7.26175 42.7168 7.23059C42.7477 6.52458 42.6102 5.8358 42.5707 5.14185C42.5535 4.80951 42.8698 4.67692 43.1895 4.65281C43.3614 4.63904 43.6484 4.72169 43.6054 4.4324C43.5676 4.17411 43.7945 3.81766 43.3992 3.65752C42.9351 3.47155 42.5294 3.25458 42.4366 2.676C42.4252 2.62402 42.4018 2.57541 42.3685 2.53399C42.3351 2.49257 42.2926 2.45946 42.2443 2.43727C42.196 2.41508 42.1432 2.4044 42.0901 2.40609C42.037 2.40777 41.985 2.42177 41.9382 2.44698C41.7388 2.56752 41.34 2.37121 41.3435 2.82581C41.3435 3.1702 41.0856 3.18742 40.8587 3.10477C40.6319 3.02212 40.6284 2.8327 40.7384 2.58818C40.9206 2.18869 40.5253 1.52057 40.0904 1.48613C39.7467 1.4603 39.4029 1.32598 39.0591 1.50679C38.6053 1.74786 38.4678 1.54639 38.4953 1.09352C38.5332 0.463281 38.3957 0.353075 37.7562 0.456393C36.6785 0.628589 36.2952 1.02808 36.3812 1.92695C36.4087 2.2369 36.4104 2.58129 36.9226 2.44354C37.1839 2.37466 37.4383 2.59851 37.5276 2.78793C37.617 2.97734 37.5276 3.27352 37.4623 3.50082C37.4073 3.67302 37.2612 3.55765 37.1615 3.48704C36.9658 3.32872 36.7183 3.24894 36.4671 3.26319C36.223 3.28558 35.9687 3.54559 35.7349 3.21153C35.5011 2.87747 35.9446 2.76382 35.9583 2.51586C35.3 2.25068 34.628 2.49864 33.9679 2.44698C33.5623 2.41598 33.2804 2.57613 33.246 3.02728C33.2357 3.15815 33.1893 3.30624 33.0621 3.3269C32.2543 3.45605 32.3746 4.08457 32.3746 4.61837C32.3849 5.06608 32.323 5.40531 31.8022 5.47935C31.3828 5.53962 31.3037 6.12681 30.7984 6.12681C30.6832 6.12681 30.7468 6.49875 30.96 6.62101C31.0875 6.6842 31.1985 6.77621 31.2844 6.88976C31.3703 7.00332 31.4287 7.13532 31.455 7.27536C31.5547 7.69552 31.9707 7.51643 32.2594 7.5216C32.5482 7.52677 32.6032 7.29774 32.6307 7.04462C32.6651 6.75877 32.4588 6.43849 32.6599 6.20774C32.7665 6.09065 32.5121 5.7342 32.8954 5.84958C33.1085 5.91157 33.3887 5.95289 33.3629 6.2594C33.3113 6.82765 33.5228 7.37351 33.4953 7.93487C33.4781 8.27926 33.5124 8.52722 33.9422 8.5961C34.0912 8.60841 34.2304 8.67558 34.3329 8.78465C34.4355 8.89371 34.494 9.03696 34.4973 9.18674C34.5145 9.83075 35.0542 9.73088 35.2708 9.54835C35.6146 9.25562 35.979 9.42781 36.3159 9.36238C36.6528 9.29694 36.8865 9.60345 36.6476 9.93062C36.3038 10.4093 36.4929 10.6194 36.9346 10.826C37.4709 11.0706 37.2647 11.625 37.3609 12.0314C37.3971 12.2983 37.5358 12.5405 37.7477 12.7064C38.3389 13.1249 38.5503 13.6397 38.3836 14.2992C37.868 14.2734 37.4417 13.9204 36.914 13.886C36.6768 13.8739 36.7215 13.6552 36.8625 13.5175C37.0014 13.3667 37.1913 13.2728 37.3953 13.254C36.8822 12.8547 36.4623 12.3482 36.1646 11.7697C36.1165 11.6784 36.1199 11.5286 36.0443 11.4856C35.398 11.1239 35.1419 10.3267 34.4372 10.0322C34.0746 9.88854 33.7715 9.62561 33.5778 9.28661C33.2512 8.75625 32.5602 8.6271 32.0308 8.31198C31.2694 7.8591 30.4839 7.451 29.7963 6.86898C29.7413 6.57624 29.6794 6.29729 29.2979 6.59002C28.4092 6.44193 27.5876 6.08376 26.7488 5.7807C26.6234 5.73765 26.4515 5.47935 26.3587 5.85302C26.314 6.02522 26.1008 5.98217 25.9857 5.8909C25.3411 5.37431 24.5659 5.51896 23.8337 5.44664C23.3971 5.44664 22.9605 5.42942 22.5171 5.45697C22.4105 5.62916 22.7818 5.78758 22.5343 5.92879C22.3452 6.03555 22.1733 5.91501 22.0186 5.80136C21.8949 5.7101 21.8467 5.38809 21.6009 5.68599C21.5666 5.73076 21.429 5.70665 21.3603 5.66877C20.3634 5.15218 19.3785 5.55512 18.4108 5.76003C17.7061 5.90984 17.0495 6.27662 16.3379 6.43676C15.5953 6.65718 14.9731 7.11177 14.3096 7.48716C13.9831 7.67141 13.8799 8.0313 13.7596 8.34814C13.6685 8.60127 13.5877 8.71492 13.3368 8.52034C13.3883 8.16389 13.0704 7.89699 13.1425 7.49921C13.1872 7.2547 12.8796 7.15482 12.5753 7.25814C12.3519 7.34079 12.0425 7.58015 11.8792 7.19443C11.7503 6.88792 12.0511 6.85004 12.2453 6.7295C12.4395 6.60896 12.7472 5.24344 12.651 5.06436C12.5478 4.85256 12.1645 4.76646 11.6884 4.84912C11.5629 4.6597 11.7537 4.47028 11.6764 4.26021C11.5784 3.9933 11.6042 3.7815 12.0202 3.74362C12.5702 3.70573 12.4842 3.09788 12.7077 2.7621C13.4124 2.9343 12.9724 3.50254 13.0515 3.87104C13.2697 4.79746 13.5155 5.72732 13.5671 6.62618C14.4265 6.93269 14.7995 6.15436 15.3581 5.71354C15.6452 5.48969 16.2175 5.58095 16.1488 4.9731C16.7469 5.41736 17.1921 4.73719 17.7353 4.75441C18.6084 4.78196 19.4129 4.42379 20.2585 4.28431C20.482 4.24643 20.8429 4.4875 21.0148 4.31359C21.6233 3.73673 22.3796 4.64937 22.8608 3.99502C22.9292 3.94492 23.0079 3.91079 23.0912 3.89515C23.4349 3.79183 23.4487 4.22749 23.7013 4.22577C23.7099 4.22577 23.7323 4.38074 23.8732 4.39796C24.7945 4.47373 25.721 4.54261 26.6371 4.66831C27.2335 4.75096 27.8712 4.79229 28.3456 5.23139C28.6894 5.54134 29.0727 5.28305 29.4388 5.42081C29.9397 5.58584 30.4595 5.68652 30.9858 5.72043C31.1198 5.73765 31.4275 5.76348 31.357 5.3416C31.2934 4.95588 31.62 4.58393 31.73 4.18272C31.9621 3.32174 32.7613 2.68805 32.739 1.69793C32.739 1.52573 34.2172 0.881717 34.4406 0.836946C35.0938 0.709521 35.7401 0.571764 36.3881 0.435729C36.9828 0.315192 37.6256 0.404734 38.1756 0.0431223C38.3475 -0.0636393 38.5486 0.139552 38.7652 0.149884C39.5043 0.180879 40.209 0.32208 40.6731 1.01947C41.0616 1.59978 41.8591 1.63938 42.3112 2.1508C42.6841 2.57441 43.3115 2.77071 43.4336 3.41472C44.6608 4.00019 44.2294 5.24 44.482 6.19052C44.6024 6.6279 44.9702 7.04117 44.7691 7.55087L44.776 7.54226ZM8.89356 10.4214C9.31639 10.4386 9.43671 10.7279 9.45046 11.0533C9.46421 11.3788 9.16514 11.5355 8.90559 11.5183C8.54464 11.5045 8.38994 11.1739 8.36244 10.857C8.31775 10.4782 8.64433 10.4644 8.89528 10.4197L8.89356 10.4214ZM9.4539 44.1822C9.69454 44.0823 9.83204 44.3199 10.028 44.3664C10.0624 44.3664 10.1999 44.4559 10.0624 44.5265C9.98669 44.5494 9.90745 44.5582 9.82861 44.5524C9.66532 44.4663 9.46765 44.4181 9.4539 44.1839V44.1822ZM43.9853 5.16596C44.0538 5.17101 44.118 5.20123 44.1656 5.25081C44.2131 5.30039 44.2408 5.36584 44.2431 5.43458C44.2534 5.59645 44.1434 5.64122 44.0076 5.64122C43.8272 5.64122 43.6639 5.5689 43.6931 5.35882C43.7068 5.23139 43.8306 5.16423 43.9853 5.16423V5.16596ZM29.8702 6.79149C29.6827 6.74729 29.5105 6.65331 29.3718 6.51942C29.4835 6.38166 29.5024 6.0631 29.7018 6.12853C29.9992 6.22669 29.8324 6.55902 29.8737 6.78804L29.8702 6.79149ZM17.6528 39.5191C17.4809 39.3122 17.3543 39.0715 17.2808 38.8126C17.2074 38.5537 17.1889 38.2823 17.2265 38.0158C17.3022 37.0942 17.5457 36.1943 17.945 35.3605C17.9347 36.0493 17.6253 36.6951 17.6871 37.389C17.7181 37.6542 17.5703 37.9194 17.67 38.2224C17.9622 38.1536 18.2715 38.2448 18.5294 38.1467C19.1533 37.9125 19.7188 38.2534 20.3135 38.2793C20.5713 38.2913 20.8292 38.4067 21.0939 38.2793C21.3001 38.1863 21.4376 38.2965 21.5855 38.4377C21.9584 38.7959 22.3641 39.0059 22.8626 38.6512C22.9922 38.5825 23.1407 38.5583 23.2854 38.5823C23.736 38.5684 24.181 38.4787 24.602 38.3172C25.0884 38.157 25.6333 37.9418 26.1902 38.0933C26.3105 38.1284 26.4336 38.1532 26.558 38.1673C27.2851 38.2328 27.2886 38.2362 27.3418 37.5096C27.3424 37.3201 27.3973 37.1348 27.5 36.9757C27.5306 36.9694 27.5624 36.9708 27.5924 36.9798C27.6224 36.9889 27.6497 37.0052 27.6719 37.0274C28.1462 38.0468 27.9812 39.0662 27.2078 39.8428C26.7906 40.2515 26.3461 40.6312 25.8774 40.9793C25.3102 41.427 24.6742 41.7921 24.1586 42.3138C23.9962 42.4462 23.8016 42.533 23.5948 42.5652C23.4929 42.5905 23.4038 42.6523 23.3443 42.7389C23.2847 42.8255 23.2589 42.931 23.2716 43.0353C23.258 43.1487 23.2776 43.2635 23.3279 43.366C23.3783 43.4684 23.4572 43.5539 23.5552 43.6122C24.1259 43.9566 24.8134 43.8016 25.3978 44.0719C25.7021 43.5967 26.2779 44.0719 26.6663 43.6931C26.8382 43.5313 27.2748 43.7241 27.6031 43.5726C28.105 43.3401 28.6808 43.2454 28.8991 42.6289C28.9249 42.5601 29.0366 42.5497 29.1225 42.5377C30.2226 42.2226 31.1559 41.718 31.4945 40.5006C31.6441 39.9668 31.8624 39.4502 31.9311 38.8372C32.4726 39.3538 32.433 39.8187 31.8624 40.6401C31.498 40.9156 32.1271 41.4219 31.6252 41.6646L31.07 42.4016C30.6231 42.4154 30.3825 42.746 30.1074 43.0319C29.3632 43.3642 28.5605 43.6087 27.885 44.0651C27.1235 44.5679 26.2693 44.6781 25.4408 44.8744C25.0764 44.9605 24.6811 44.9054 24.3476 45.1499C24.3301 45.167 24.3091 45.1802 24.286 45.1885C24.263 45.1968 24.2384 45.2001 24.214 45.1981C24.1896 45.1962 24.1659 45.189 24.1445 45.1771C24.1231 45.1653 24.1044 45.1489 24.0898 45.1292C23.5226 44.5472 22.8282 44.7848 22.1578 44.8675C21.4875 44.9501 20.8825 44.8193 20.2413 44.7125C19.6999 44.6264 19.1413 44.4887 18.5827 44.5128C17.5514 44.5575 16.8243 43.9583 16.0508 43.4331C16.0769 43.3781 16.1165 43.3307 16.166 43.2953C16.6524 43.0302 16.9601 43.5485 17.3829 43.5777C17.9329 43.6174 18.452 43.9394 19.0296 43.7964C19.0708 43.7861 19.1155 43.7672 19.1499 43.7861C19.9955 44.2683 20.7742 43.8619 21.5562 43.5967C21.6984 43.5591 21.8238 43.4746 21.9121 43.3568C22.0004 43.239 22.0464 43.0948 22.0427 42.9475C22.0427 42.6858 21.9052 42.4309 21.6525 42.4964C21.0973 42.6341 20.8498 42.2208 20.4751 41.9798C19.5815 41.4124 18.7541 40.7464 18.0086 39.9943C17.8659 39.8531 17.6648 39.7533 17.6425 39.5122L17.6528 39.5191ZM9.08607 30.62C9.24077 30.3927 9.3439 30.1551 9.01216 30.0087C8.87809 29.9484 8.64089 30.0207 8.6684 29.7848C8.68558 29.5989 8.91934 29.6023 9.06373 29.53C9.11818 29.4983 9.17097 29.4638 9.22186 29.4267C9.0156 29.2269 8.68043 29.3165 8.51714 29.0478C8.66839 28.8963 8.88497 29.0737 9.07232 28.979C8.8884 28.7723 8.57042 28.7 8.6048 28.3659C9.08607 28.2867 9.29233 28.6466 9.52094 28.9514C9.8647 29.437 10.0813 30.0018 10.3288 30.5408C10.6742 31.419 11.2628 32.1801 12.0253 32.7346C12.1972 32.8654 12.4516 32.9377 12.4636 33.2201C12.1095 33.3545 11.752 33.5267 11.5423 33.0032C11.5251 32.9567 11.3223 32.9257 11.2553 32.9687C10.8685 33.2098 10.7224 32.8775 10.5505 32.676C10.3219 32.4005 9.88361 31.9976 9.65672 31.9218L9.53641 31.8874C9.81486 31.3122 8.79731 31.1986 9.08951 30.62H9.08607ZM36.1371 29.022C36.1938 29.053 36.3777 28.9152 36.309 29.1012C36.2282 29.313 35.9566 29.2734 35.7641 29.3802C35.8329 29.5765 36.0254 29.5386 36.1491 29.6144C36.3554 29.7401 36.4173 29.914 36.1199 29.9691C35.6851 30.05 35.7315 30.2653 35.8363 30.5976C35.9223 30.8628 35.6902 31.1211 35.6301 31.338C35.398 32.1301 34.3547 32.1525 34.255 32.986C34.2206 33.2563 34.0917 32.986 34.0075 32.998C33.7737 33.029 33.4695 32.7156 33.3199 33.2322C33.277 33.3872 32.7596 33.37 32.4605 33.2098C32.4508 33.1494 32.4649 33.0876 32.5001 33.0376C33.2288 32.4918 33.9697 31.9614 34.408 31.1159C34.5977 30.7484 34.763 30.3687 34.903 29.9794C34.9511 29.8158 35.0749 29.6953 35.1264 29.5317C35.2725 28.9979 35.6249 28.8636 36.1268 29.0151L36.1371 29.022ZM36.4706 28.1369C36.8143 27.7581 37.2904 27.672 37.7666 27.6117C37.99 27.5824 38.2478 27.6358 38.2616 27.2932C38.5314 27.6238 38.5452 27.8442 38.0278 27.8373C37.5637 27.8373 37.1684 28.0439 36.7628 28.2437C36.6596 28.2265 36.474 28.4383 36.4706 28.1404V28.1369ZM31.0511 33.9451L31.6406 33.6386C31.7953 33.921 31.4 34.2017 31.6406 34.4858C31.7025 34.6356 31.6234 34.658 31.5031 34.6339C31.5238 34.3997 31.3794 34.3015 31.1851 34.2671C30.9548 34.2258 31.0133 34.0846 31.0562 33.9451H31.0511ZM13.3505 33.6524C13.6118 33.5973 13.7029 33.8762 13.9057 33.9348C13.9263 34.2396 13.5912 34.3962 13.5001 34.3308C13.3976 34.2525 13.3263 34.1401 13.2989 34.014C13.2715 33.8878 13.2898 33.7559 13.3505 33.642V33.6524ZM12.9947 35.6051C13.103 35.2435 13.3901 35.0885 13.201 34.8164C13.1374 34.7217 13.201 34.5495 13.2697 34.5409C13.4101 34.5321 13.549 34.5736 13.6616 34.658C13.782 34.7579 13.5723 34.8078 13.5688 34.8818C13.5551 35.2176 13.2766 35.3054 12.9947 35.6051ZM31.498 34.6339L31.6355 34.4858C31.9999 34.6408 31.5547 34.9456 31.7558 35.1315L31.9621 35.4759C31.5392 35.3967 31.4292 35.023 31.2659 34.7527C31.1594 34.5805 31.4034 34.6563 31.498 34.6408V34.6339ZM13.1872 23.3568C12.7644 23.7494 12.2333 23.9216 11.7004 24.0886C11.8294 23.1553 12.1989 22.9745 13.1872 23.355V23.3568ZM11.7125 24.0765C11.5268 24.5587 11.1504 24.8514 10.719 25.0925C10.5471 24.7998 10.4062 24.588 10.8513 24.3124C11.1103 24.1551 11.4079 24.0734 11.7108 24.0765H11.7125ZM34.4802 25.8639L34.0229 25.1063C34.4183 25.1063 34.7861 25.1063 34.7534 25.6969C34.7363 25.9965 34.9253 26.2135 35.2966 25.907L35.0044 26.3891L34.4784 25.8622L34.4802 25.8639ZM27.4879 37.0222C27.4515 37.0275 27.4143 37.0215 27.3814 37.005C27.3298 36.6227 27.3367 36.1991 27.0135 35.9374C26.8417 35.7962 26.8932 35.6567 26.8795 35.5104C26.8795 35.4759 26.9517 35.3898 26.986 35.3933C27.1992 35.4105 27.1923 35.6102 27.2611 35.748C27.2917 35.7988 27.3261 35.8472 27.3642 35.8926L27.5962 37.0257H27.5447L27.4897 37.0154L27.4879 37.0222ZM33.9989 25.0822C33.6964 24.9823 33.5657 24.7119 33.4007 24.4743C33.8889 24.3882 34.1054 24.5776 33.9989 25.0822ZM10.468 25.1975C10.7293 25.4472 10.6949 25.5419 10.224 25.8347C10.413 25.6625 9.99705 25.2612 10.4646 25.1975H10.468ZM14.9628 42.3018C15.212 42.5119 15.3616 42.9389 15.8222 42.6754C15.9202 42.6203 16.0405 42.6444 16.0628 42.8339C16.1048 43.0301 16.1664 43.2217 16.2468 43.4056L16.0525 43.4348C15.4561 43.2867 14.772 43.3005 14.5056 42.5738C13.9315 42.734 13.818 42.0349 13.3643 41.9367C13.2719 41.8566 13.2025 41.7533 13.1632 41.6373C13.1239 41.5214 13.1162 41.3971 13.1408 41.2772C13.1832 41.1255 13.1932 40.9666 13.1701 40.8109C13.147 40.6551 13.0913 40.5059 13.0068 40.3732C12.8893 40.1696 12.8169 39.943 12.7943 39.7089C12.7718 39.4748 12.7997 39.2386 12.8761 39.0163C13.2543 39.9702 13.0944 41.2307 14.3028 41.8162C14.4093 42.1261 14.7428 42.1382 14.9559 42.3104L14.9628 42.3018ZM12.7197 32.8775C13.1271 32.7053 13.4468 33.1289 13.8404 33.0497C13.9504 33.1702 14.356 33.122 14.0845 33.4664C13.5688 33.4251 13.146 33.1392 12.7197 32.8809" fill="#000105"/>
<path d="M28.8249 27.0865C28.8472 26.1945 29.7754 25.8226 31.6025 25.9569C30.6572 26.5183 29.4196 25.9913 28.8266 27.0882L28.8249 27.0865ZM30.6125 27.8648C30.2034 28.2902 29.3818 28.3711 28.9916 27.9923C28.9351 28.0048 28.8776 28.0117 28.8197 28.0129C28.6822 28.0009 28.5207 27.9991 28.5138 27.8028C28.5165 27.7743 28.5257 27.7468 28.5406 27.7224C28.5555 27.6979 28.5757 27.6771 28.5997 27.6616C28.7372 27.5876 28.8197 27.7185 28.9091 27.7787C28.9641 27.8132 28.9744 27.9131 29.0054 27.9854L28.9968 27.9923L29.0071 27.9836C29.2993 27.9836 29.5915 28.0078 29.8768 27.9836C30.3925 27.932 30.7586 27.6393 30.7981 27.1227C30.8325 26.7094 31.0267 26.6698 31.3602 26.6577C31.1109 27.0882 30.9391 27.5187 30.6108 27.8631L30.6125 27.8648ZM34.76 27.5893C34.76 27.3827 34.4369 27.3569 34.5022 27.1158C34.4856 27.0341 34.4506 26.9572 34.4 26.891C34.3494 26.8248 34.2844 26.7709 34.21 26.7335C34.0381 26.613 34.3303 26.6646 34.2616 26.5785C34.2547 26.4666 34.2444 26.3547 34.2358 26.2341C33.6136 24.643 32.4087 23.7683 30.7758 23.4239C30.6212 23.4371 30.4684 23.4671 30.3203 23.5134C29.9679 23.2431 29.6087 23.3757 29.2495 23.4618C28.8472 23.5651 28.5825 23.8682 28.2869 24.1247C28.0853 24.2888 27.9296 24.5024 27.8349 24.7446C27.663 24.6999 27.7077 24.2556 27.3828 24.5001L27.3656 24.7205C27.2708 25.3472 27.2363 25.9815 27.2625 26.6147C27.2625 26.8144 27.4344 27.0107 27.3312 27.2518C27.1215 27.7064 27.2522 28.1128 27.5891 28.44C27.7542 28.5985 27.8588 28.8099 27.8847 29.0375C27.951 29.6334 28.1753 30.2006 28.5344 30.6802C28.8935 31.1599 29.3742 31.5345 29.9267 31.7651C30.4526 32.001 30.9717 32.0681 31.0491 32.7604C31.0611 32.8637 31.221 32.9326 31.3241 33.0014C31.7813 33.1082 32.1319 32.8051 32.5273 32.6829C33.201 31.9476 34.1086 31.4 34.3922 30.3531C34.3843 30.072 34.4558 29.7945 34.5985 29.5524C34.7085 28.991 34.485 28.3986 34.736 27.8476H34.7566C34.7896 27.8117 34.8079 27.7647 34.8079 27.7159C34.8079 27.6671 34.7896 27.6201 34.7566 27.5842L34.76 27.5893ZM16.4579 27.8614C16.3444 28.0646 16.1657 28.0336 15.9852 27.9819V27.9888H15.9629C15.5968 28.3676 14.8061 28.2867 14.3729 27.8562C14.0292 27.5118 13.8676 27.0882 13.6132 26.6302C13.8264 26.7335 14.055 26.613 14.1547 26.8936C14.5328 27.9699 14.6583 28.0474 15.7996 27.9819C15.854 27.9786 15.9085 27.9786 15.9629 27.9819L15.9749 27.9699H15.9852C15.999 27.7167 16.1571 27.6255 16.3805 27.6496C16.4579 27.6668 16.5009 27.7822 16.4579 27.8614ZM13.5152 25.95C13.9793 26.0309 14.4331 25.9328 14.8903 25.95C15.5778 25.9741 16.1915 26.5303 16.1588 27.2122C15.5572 25.9793 14.3317 26.5062 13.517 25.9483L13.5152 25.95ZM17.0732 28.5726C17.3218 28.4159 17.5601 28.2433 17.7865 28.056C18.1939 27.6823 18.1303 27.5394 17.6147 27.3069C17.5631 27.2845 17.2142 27.0624 17.3104 26.9625C17.6129 26.6491 17.6886 26.3684 17.2726 25.9466L17.704 26.1739C17.044 25.7055 17.833 25.0167 17.4634 24.4915C17.3001 24.7378 17.5029 25.0598 17.1196 25.2199C17.0096 24.4106 16.3977 24.0145 15.8065 23.5978C15.8003 23.6014 15.7935 23.6036 15.7864 23.6044C15.7794 23.6052 15.7723 23.6045 15.7655 23.6024C15.7587 23.6003 15.7524 23.5968 15.7471 23.5922C15.7417 23.5875 15.7373 23.5818 15.7343 23.5754C15.528 23.5754 15.3166 23.5754 15.1086 23.5754C14.4456 23.5876 13.7918 23.7329 13.1859 24.0027C12.5799 24.2725 12.0342 24.6614 11.581 25.1463C11.1277 25.6312 10.7762 26.2022 10.5472 26.8256C10.3182 27.4491 10.2164 28.1122 10.2477 28.7758C10.2911 29.2327 10.36 29.6869 10.454 30.1361L10.4884 30.3393C11.0831 31.3208 11.5919 32.3764 12.7229 32.8844C12.9687 33.0273 13.2815 32.9756 13.517 33.1771C13.5432 33.2028 13.5762 33.2204 13.6122 33.228C13.6481 33.2355 13.6854 33.2325 13.7198 33.2195C13.7541 33.2065 13.784 33.1839 13.8059 33.1544C13.8278 33.1249 13.8409 33.0898 13.8435 33.0531C13.7645 32.9773 13.462 32.9791 13.706 32.7896C13.8487 32.6812 14.0154 32.6174 13.9209 32.4211C13.6803 31.9046 14.2647 31.8081 14.3919 31.8012C15.4403 31.7392 16.0368 31.0177 16.4837 30.2515C16.6177 30.0276 17.1368 29.8554 16.9013 29.418C17.5201 29.3578 17.6301 28.7861 17.955 28.3849C17.6353 28.3849 17.3964 28.6862 17.0784 28.5743L17.0732 28.5726Z" fill="#000105"/>
<path d="M35.0127 30.031C34.9566 29.9768 34.9236 29.9031 34.9204 29.8252C34.9172 29.7473 34.9441 29.6711 34.9955 29.6125C35.0986 29.0271 35.8429 28.2453 36.4084 28.1316C35.9495 28.2642 35.2997 29.5953 35.0127 30.0258V30.031ZM21.4855 28.0937C21.3531 27.7872 21.0661 27.4256 21.635 27.4394C22.1043 27.4497 22.5976 27.1295 23.0101 27.6116C22.742 27.499 22.4429 27.4849 22.1654 27.5719C21.888 27.6589 21.6502 27.8413 21.4941 28.0869L21.4855 28.0937ZM34.9749 26.389C35.1296 26.7851 35.5937 26.8832 35.7862 27.2672C35.8773 27.4497 36.0784 27.2552 36.2228 27.1932C36.5385 27.0385 36.8881 26.9665 37.2391 26.9836C37.5902 27.0008 37.9311 27.1066 38.2304 27.2913C38.3386 27.5444 38.251 27.7184 37.9811 27.7166C37.4272 27.7188 36.8858 27.8815 36.4221 28.185C36.4221 28.185 35.4699 29.1218 35.0093 29.6711C34.8847 29.6543 34.7706 29.5925 34.6883 29.4974C34.606 29.4023 34.5612 29.2803 34.5624 29.1545C34.5452 28.8015 34.4592 28.4433 34.497 28.0903C34.5037 28.022 34.5211 27.9552 34.5486 27.8923C34.4833 27.1863 34.681 27.8372 34.54 27.5823C34.4833 27.3636 34.1962 26.7799 34.1395 26.5664C34.0961 26.4408 34.0769 26.3082 34.0828 26.1755C34.1052 25.9654 34.1636 25.7829 34.4266 25.757C34.7703 25.8208 34.815 26.1583 34.9869 26.377L34.9749 26.389ZM19.7529 31.6462C19.1772 32.4529 18.4001 33.0942 17.4994 33.5057C16.5987 33.9173 15.606 34.0848 14.6204 33.9915C14.6044 33.957 14.5872 33.9249 14.5689 33.895C14.868 33.5644 15.3424 33.8434 15.6603 33.5799C15.8363 33.509 16.0173 33.4515 16.2018 33.4077C18.0237 32.9669 19.2269 31.8459 19.8629 30.0912C19.9569 29.6956 20.0145 29.2921 20.0348 28.8859C20.4009 28.3951 20.7808 28.2212 21.3806 27.9043C21.6763 27.9422 21.3686 28.3469 21.2981 28.4984C20.8461 29.4593 19.8646 31.5807 19.7512 31.6599L19.7529 31.6462ZM32.474 33.1391C32.474 33.1735 31.4135 33.759 31.013 33.8055C29.9524 33.883 28.9504 34.0431 27.9191 33.6471C27.4792 33.4483 27.0541 33.2181 26.6471 32.9583C26.4237 32.8326 26.0387 32.3315 26.1418 32.1094C26.6231 32.4796 27.5375 33.0668 28.1064 33.2631C28.9666 33.52 29.8829 33.52 30.7431 33.2631C31.1505 33.1425 31.5682 32.9307 32.0288 32.9652C32.2007 32.9755 32.4705 32.9101 32.4705 33.1374L32.474 33.1391ZM16.0402 33.4508C15.7308 33.9226 14.9986 33.8468 14.6204 33.9915C14.397 33.9777 13.5204 33.7728 13.3485 33.6471L12.4599 33.2131C11.4698 32.5588 10.6207 31.7839 10.2254 30.6199C10.3113 30.5114 10.4488 29.5626 10.6138 29.6969C10.7148 30.1852 10.8886 30.6554 11.1295 31.0917C11.5117 31.8079 12.0949 32.3964 12.8071 32.7844C13.2408 33.049 13.7063 33.2573 14.1925 33.4043C14.7511 33.6161 15.6397 33.4904 16.0385 33.4456L16.0402 33.4508ZM21.2534 28.0679C20.8443 28.5501 20.6862 29.1906 20.2479 29.6521C19.887 29.1924 20.0932 28.6499 20.0417 28.1454C20.0224 27.9157 20.0299 27.6846 20.064 27.4566C20.2874 26.9504 20.2874 26.9504 20.7343 27.3671C20.975 27.5272 21.0214 27.3085 21.152 27.1828C21.4528 26.897 21.7192 26.8247 22.2521 26.7592C22.2761 26.7764 23.1871 26.6094 23.799 27.1174C24.172 27.4222 24.215 27.4153 24.4144 27.1053C24.6327 27.2001 24.6137 27.3877 24.6103 27.5754C24.5931 28.4123 24.5536 29.2526 24.8269 30.0637C24.8269 30.2186 24.8269 30.3736 24.6137 30.3736C24.4126 29.8811 24.2047 29.3921 24.0122 28.8962C23.8222 28.3718 23.466 27.9242 22.998 27.6219C22.2074 27.2948 21.7158 27.4497 21.3308 27.9835C21.3049 28.0134 21.2761 28.0405 21.2448 28.0645L21.2534 28.0679ZM10.4849 30.3323C10.4592 30.4873 10.4076 30.6216 10.2168 30.625C9.97272 30.1515 9.73552 29.6728 9.48286 29.2027C9.29641 28.826 8.98103 28.529 8.59422 28.3658C8.22983 27.9749 7.57151 28.1368 7.25353 27.6529C7.23819 27.6436 7.22097 27.6379 7.20313 27.6361C7.18529 27.6343 7.16727 27.6365 7.1504 27.6426C6.92179 28.0214 6.7035 27.8148 6.64678 27.5737C6.57803 27.2879 6.84273 27.1312 7.10055 27.0847C7.66778 26.9539 8.26048 26.988 8.80907 27.1828C8.92939 27.231 9.05487 27.4239 9.19065 27.2689C9.32644 27.114 9.64786 26.5526 9.89881 26.3528C10.1309 26.1944 10.2426 26.3287 10.3062 26.525C10.3876 26.7423 10.3937 26.9807 10.3234 27.2018C9.93319 28.1764 10.1309 29.1063 10.4952 30.031C10.5173 30.0778 10.5273 30.1295 10.5243 30.1812C10.5213 30.233 10.5054 30.2831 10.4781 30.3271L10.4849 30.3323ZM10.4557 30.1343C10.0655 29.8639 10.0363 29.3835 10.0054 29.0202C9.95382 28.4295 9.46051 27.0916 9.79396 26.4889C9.89709 26.2995 10.0896 26.253 10.2271 25.8397C10.4162 25.6675 10.6328 25.1268 10.7187 25.0993C10.9765 24.686 11.3633 24.4105 11.7122 24.0799L11.7002 24.0919C12.1127 23.6855 12.6747 23.5753 13.1869 23.3618C13.6112 23.1864 14.0694 23.1087 14.5276 23.1345C15.0956 23.1315 15.6631 23.1689 16.2258 23.2464C16.1794 23.5702 16.0368 23.5392 15.8718 23.7045C14.8095 23.7561 13.5857 23.9163 12.6369 24.4966C11.1123 25.4264 10.0123 27.8923 10.564 29.5626C10.6396 29.7899 10.6809 29.9242 10.454 30.1343H10.4557ZM15.7274 23.5736L16.2258 23.2464C17.9447 23.5357 19.1736 24.4966 20.0073 25.9912C20.2617 26.4424 20.4885 26.909 20.7257 27.3688C20.5539 27.5117 20.162 27.1966 20.0262 27.7717C20.0131 27.4634 19.9444 27.1601 19.8234 26.8763C19.416 25.8691 18.7036 25.0151 17.7865 24.4346C17.2009 24.0567 16.5418 23.8078 15.8529 23.7045C15.7966 23.6779 15.7498 23.6346 15.7188 23.5805L15.7274 23.5736ZM34.1533 26.5319C34.0553 25.9465 33.5311 25.2026 33.0635 24.7618C32.3983 24.1367 32.101 23.6425 31.0233 23.5392C30.9717 23.4875 30.5076 23.5392 30.2962 23.4978C30.0848 23.4565 30.1243 23.2344 30.1501 23.119C30.5699 23.0713 30.9937 23.0713 31.4135 23.119C31.7459 23.2053 32.0731 23.3111 32.3932 23.4358C32.8122 23.7114 33.2104 24.0176 33.5843 24.3519C33.8262 24.5145 34.017 24.7427 34.1344 25.0097C34.1344 25.0097 34.4094 25.4574 34.65 25.8707C34.3922 25.8828 34.1739 26.3873 34.1344 26.5371L34.1533 26.5319ZM24.7513 30.1171C24.3078 29.1476 24.6103 28.0972 24.4247 27.1036C24.7685 26.3017 25.2259 25.5536 25.7826 24.8823C25.8547 24.7962 26.4598 24.2245 26.6145 24.3485C26.7692 24.4725 26.1573 24.9925 26.0335 25.1234C25.5514 25.6288 25.1865 26.2345 24.9649 26.8973C24.7433 27.5602 24.6703 28.2638 24.7513 28.9582C24.7856 29.3473 24.8922 29.7331 24.9661 30.1171C24.9544 30.1348 24.9384 30.1494 24.9196 30.1595C24.9009 30.1695 24.88 30.1748 24.8587 30.1748C24.8374 30.1748 24.8165 30.1695 24.7977 30.1595C24.779 30.1494 24.763 30.1348 24.7513 30.1171ZM30.8909 23.212C30.6898 23.2499 31.0731 23.5047 30.7826 23.5168C30.4389 23.534 29.5967 23.5512 29.3044 23.6545C28.9607 23.6718 28.5516 23.8026 28.182 23.8439C27.9162 23.9509 27.6412 24.0333 27.3604 24.0902C27.0803 24.2624 26.7417 24.5413 26.4615 24.7049C26.3343 24.4983 26.1177 24.5672 26.2896 24.4552C27.1954 23.8095 28.5671 23.1982 29.6688 23.1293C29.9524 23.1121 30.9012 23.0329 30.8961 23.2154L30.8909 23.212ZM24.7513 30.1171H24.9661C25.181 31.0538 26.312 32.0973 26.5938 32.9238C25.7946 32.3556 24.9438 31.2742 24.6258 30.3667L24.7513 30.1153V30.1171ZM34.497 29.6056C34.5091 29.1924 34.5142 28.7791 34.5349 28.3658C34.5435 28.173 34.4489 27.9302 34.7411 27.8492C34.7411 28.2797 34.7411 28.7102 34.7583 29.1407C34.7583 29.3301 34.6724 29.5815 34.9955 29.6142C35.0012 29.752 35.007 29.8909 35.0127 30.031C34.8443 30.699 34.534 31.3229 34.103 31.8598C33.672 32.3968 33.1304 32.8343 32.5152 33.1425L31.9996 33.1253C31.9308 32.7327 32.3846 32.8223 32.4929 32.5915C32.6476 32.2678 32.957 32.087 33.1976 31.8476C33.6506 31.4371 34.012 30.9354 34.2581 30.3753C34.3598 30.1254 34.4442 29.8688 34.5108 29.6074L34.497 29.6056ZM34.7635 27.8544C34.7635 27.7683 34.7635 27.6822 34.7635 27.5892C34.956 27.6168 35.1313 27.7339 35.3479 27.6753C35.2934 27.7751 35.2017 27.8492 35.0928 27.8814C34.984 27.9137 34.8668 27.9015 34.7669 27.8475L34.7635 27.8544ZM32.5891 32.4176C32.5599 32.7207 32.0735 32.8653 31.9927 33.1236C31.5527 33.0478 31.2261 33.5248 30.7723 33.3733C30.8101 33.2941 30.8841 33.2769 30.9219 33.2011C31.0766 33.115 31.2656 33.0857 31.4203 32.9996C31.8191 32.9996 32.223 32.6845 32.5891 32.4262V32.4176ZM34.497 29.6056C34.5211 29.8984 34.5091 30.1739 34.2478 30.3736C34.3252 30.1153 34.4919 29.9604 34.4988 29.6039L34.497 29.6056ZM26.9221 59.4799C27.3381 59.4972 27.7472 59.4007 28.1528 59.6866C28.5138 59.9414 29.6259 59.5144 29.992 58.7343C29.9521 58.6496 29.9441 58.5534 29.9694 58.4633C29.9946 58.3731 30.0515 58.2951 30.1295 58.2436C30.7105 57.6374 30.8858 56.866 30.9889 56.0739C31.1161 55.0407 30.903 54.0299 30.7534 53.0157C31.4117 54.3192 31.3842 55.6933 31.0972 57.0675C30.9298 57.7823 30.6276 58.4585 30.2068 59.0598C29.5193 60.093 29.0449 60.2032 27.8606 59.7486C27.5684 59.6384 27.1851 59.7486 26.9204 59.473L26.9221 59.4799ZM22.7368 57.2207C23.0341 57.2087 22.931 56.8832 23.0805 56.7799C23.1923 56.7007 23.2352 56.4235 23.4467 56.5733C23.6082 56.6869 23.481 56.8075 23.4054 56.9349C23.3534 57.059 23.3198 57.1901 23.3057 57.324C23.1631 57.3585 22.9791 57.3826 22.9362 57.5238C22.7041 58.2539 22.2074 58.0232 21.8086 57.789C21.4098 57.5548 21.1606 57.6581 20.8461 57.9388C20.1885 58.5442 19.4021 58.9918 18.5463 59.2475C18.4259 59.2819 18.3056 59.3129 18.2025 59.2079C18.6391 58.7602 19.2544 58.619 19.7752 58.3124C20.064 58.1403 20.3682 58.0025 20.5659 57.7408C20.9406 57.2414 21.3772 57.1381 21.8602 57.5169C22.3432 57.8957 22.5477 57.603 22.7368 57.219V57.2207ZM18.2025 59.2079L18.5463 59.2457C17.8711 59.6657 17.0668 59.826 16.2826 59.6969C15.9629 59.6556 15.6088 59.616 15.4747 59.2268C15.5366 59.2268 15.6122 59.213 15.6552 59.2406C16.0986 59.5109 16.0815 58.9961 16.6865 59.0598C16.8811 59.0665 17.0741 59.0984 17.2606 59.1545C17.3578 59.1733 17.4529 59.2022 17.5442 59.2406L18.2025 59.2061" fill="#249B46"/>
<path d="M29.6362 55.7434C29.5586 55.7434 29.4829 55.7203 29.4184 55.6772C29.354 55.6341 29.3038 55.5728 29.2741 55.501C29.2444 55.4293 29.2367 55.3503 29.2518 55.2742C29.2669 55.198 29.3042 55.1281 29.359 55.0731C29.4139 55.0182 29.4837 54.9808 29.5597 54.9657C29.6357 54.9505 29.7145 54.9583 29.7861 54.988C29.8577 55.0178 29.9189 55.0681 29.962 55.1326C30.0051 55.1972 30.0281 55.2731 30.0281 55.3508C30.0281 55.4549 29.9868 55.5548 29.9133 55.6284C29.8398 55.702 29.7401 55.7434 29.6362 55.7434ZM28.7131 52.5199C28.7131 52.4422 28.7361 52.3663 28.7792 52.3017C28.8223 52.2372 28.8835 52.1869 28.9551 52.1571C29.0267 52.1274 29.1055 52.1197 29.1815 52.1348C29.2575 52.1499 29.3273 52.1873 29.3821 52.2422C29.437 52.2972 29.4743 52.3671 29.4894 52.4433C29.5045 52.5194 29.4968 52.5984 29.4671 52.6701C29.4374 52.7418 29.3872 52.8032 29.3228 52.8463C29.2583 52.8894 29.1825 52.9125 29.105 52.9125C29.0011 52.9125 28.9014 52.8711 28.8279 52.7975C28.7544 52.7238 28.7131 52.624 28.7131 52.5199ZM28.4158 59.1839C28.3384 59.1838 28.2628 59.1609 28.1984 59.1179C28.1341 59.0749 28.0838 59.0138 28.0541 58.9423C28.0243 58.8707 28.0163 58.792 28.0312 58.7159C28.046 58.6398 28.083 58.5699 28.1375 58.5148C28.1919 58.4598 28.2615 58.4221 28.3372 58.4066C28.413 58.3911 28.4917 58.3984 28.5634 58.4275C28.6351 58.4567 28.6965 58.5065 28.74 58.5706C28.7834 58.6347 28.807 58.7103 28.8077 58.7878C28.8081 58.8396 28.7983 58.8911 28.7788 58.9391C28.7593 58.9871 28.7306 59.0308 28.6941 59.0676C28.6577 59.1045 28.6143 59.1337 28.5666 59.1536C28.5188 59.1736 28.4675 59.1839 28.4158 59.1839ZM27.6337 56.4459C27.5561 56.4459 27.4803 56.4229 27.4158 56.3796C27.3513 56.3364 27.3011 56.275 27.2715 56.2032C27.2419 56.1313 27.2342 56.0523 27.2495 55.9761C27.2647 55.8999 27.3022 55.8299 27.3572 55.7751C27.4122 55.7203 27.4822 55.683 27.5583 55.6681C27.6345 55.6531 27.7133 55.6611 27.7849 55.6911C27.8565 55.7211 27.9175 55.7717 27.9604 55.8365C28.0033 55.9012 28.026 55.9773 28.0256 56.055C28.0261 56.1069 28.0163 56.1583 27.9968 56.2063C27.9773 56.2544 27.9485 56.2981 27.912 56.3349C27.8756 56.3717 27.8323 56.4009 27.7845 56.4209C27.7367 56.4408 27.6855 56.4511 27.6337 56.4511V56.4459ZM27.0356 58.2936C26.958 58.2939 26.882 58.2712 26.8174 58.2283C26.7527 58.1853 26.7022 58.1241 26.6723 58.0524C26.6423 57.9807 26.6343 57.9017 26.6493 57.8255C26.6642 57.7492 26.7014 57.6791 26.7561 57.624C26.8109 57.5689 26.8807 57.5313 26.9568 57.5161C27.0328 57.5008 27.1117 57.5084 27.1834 57.5381C27.2551 57.5678 27.3164 57.6181 27.3596 57.6827C27.4027 57.7473 27.4257 57.8233 27.4257 57.901C27.4262 57.9528 27.4164 58.0043 27.3969 58.0523C27.3774 58.1003 27.3486 58.144 27.3122 58.1808C27.2757 58.2177 27.2324 58.2469 27.1846 58.2668C27.1368 58.2868 27.0856 58.297 27.0338 58.297L27.0356 58.2936ZM25.4714 54.7687C25.3941 54.7681 25.3186 54.7445 25.2546 54.7009C25.1907 54.6574 25.141 54.5958 25.1118 54.524C25.0827 54.4522 25.0754 54.3734 25.0909 54.2975C25.1064 54.2215 25.144 54.1519 25.199 54.0973C25.2539 54.0428 25.3237 54.0057 25.3997 53.9908C25.4756 53.976 25.5542 53.9839 25.6256 54.0138C25.697 54.0436 25.758 54.0939 25.8009 54.1584C25.8439 54.2229 25.8668 54.2986 25.8668 54.3761C25.8672 54.4283 25.8573 54.48 25.8376 54.5282C25.8179 54.5765 25.7888 54.6203 25.752 54.6572C25.7152 54.6941 25.6714 54.7232 25.6233 54.743C25.5751 54.7627 25.5235 54.7726 25.4714 54.7722V54.7687ZM25.4714 57.1795C25.3941 57.1788 25.3186 57.1552 25.2546 57.1117C25.1907 57.0681 25.141 57.0066 25.1118 56.9348C25.0827 56.863 25.0754 56.7841 25.0909 56.7082C25.1064 56.6323 25.144 56.5626 25.199 56.5081C25.2539 56.4535 25.3237 56.4165 25.3997 56.4016C25.4756 56.3867 25.5542 56.3947 25.6256 56.4245C25.697 56.4543 25.758 56.5046 25.8009 56.5691C25.8439 56.6336 25.8668 56.7094 25.8668 56.7869C25.8641 56.8898 25.8211 56.9875 25.7472 57.059C25.6732 57.1305 25.5742 57.1701 25.4714 57.1692V57.1795ZM23.7973 54.965C23.7198 54.965 23.644 54.942 23.5796 54.8989C23.5151 54.8557 23.4649 54.7944 23.4352 54.7227C23.4056 54.6509 23.3978 54.572 23.4129 54.4958C23.428 54.4197 23.4654 54.3497 23.5202 54.2948C23.575 54.2399 23.6448 54.2025 23.7208 54.1874C23.7968 54.1722 23.8756 54.18 23.9473 54.2097C24.0189 54.2394 24.0801 54.2898 24.1231 54.3543C24.1662 54.4189 24.1892 54.4948 24.1892 54.5724C24.1878 54.6757 24.1459 54.7742 24.0726 54.8467C23.9992 54.9192 23.9003 54.9599 23.7973 54.9599V54.965ZM23.7973 57.0607C23.7198 57.0607 23.644 57.0376 23.5796 56.9945C23.5151 56.9514 23.4649 56.89 23.4352 56.8183C23.4056 56.7466 23.3978 56.6676 23.4129 56.5915C23.428 56.5153 23.4654 56.4454 23.5202 56.3904C23.575 56.3355 23.6448 56.2982 23.7208 56.283C23.7968 56.2679 23.8756 56.2756 23.9473 56.3053C24.0189 56.3351 24.0801 56.3854 24.1231 56.4499C24.1662 56.5145 24.1892 56.5904 24.1892 56.6681C24.1878 56.7713 24.1459 56.8698 24.0726 56.9423C23.9992 57.0149 23.9003 57.0555 23.7973 57.0555V57.0607ZM27.2349 53.5926C27.3125 53.5926 27.3882 53.6157 27.4527 53.6588C27.5171 53.702 27.5673 53.7633 27.597 53.835C27.6267 53.9067 27.6344 53.9857 27.6193 54.0618C27.6042 54.138 27.5669 54.208 27.5121 54.2629C27.4573 54.3178 27.3874 54.3552 27.3114 54.3703C27.2354 54.3855 27.1566 54.3777 27.085 54.348C27.0134 54.3183 26.9522 54.2679 26.9091 54.2034C26.866 54.1388 26.8431 54.0629 26.8431 53.9853C26.8426 53.9331 26.8525 53.8814 26.8722 53.8331C26.8919 53.7849 26.921 53.741 26.9578 53.7042C26.9946 53.6673 27.0384 53.6381 27.0866 53.6184C27.1347 53.5987 27.1863 53.5887 27.2384 53.5892L27.2349 53.5926ZM21.7347 54.9702C21.6572 54.9702 21.5814 54.9472 21.517 54.904C21.4525 54.8609 21.4023 54.7996 21.3726 54.7278C21.343 54.6561 21.3352 54.5772 21.3503 54.501C21.3654 54.4249 21.4028 54.3549 21.4576 54.3C21.5124 54.2451 21.5822 54.2077 21.6582 54.1925C21.7342 54.1774 21.813 54.1852 21.8846 54.2149C21.9563 54.2446 22.0175 54.2949 22.0605 54.3595C22.1036 54.424 22.1266 54.5 22.1266 54.5776C22.1239 54.6805 22.0809 54.7783 22.007 54.8498C21.933 54.9213 21.834 54.9608 21.7312 54.9599L21.7347 54.9702ZM21.7347 57.0658C21.6572 57.0658 21.5814 57.0428 21.517 56.9997C21.4525 56.9565 21.4023 56.8952 21.3726 56.8235C21.343 56.7517 21.3352 56.6728 21.3503 56.5966C21.3654 56.5205 21.4028 56.4505 21.4576 56.3956C21.5124 56.3407 21.5822 56.3033 21.6582 56.2882C21.7342 56.273 21.813 56.2808 21.8846 56.3105C21.9563 56.3402 22.0175 56.3905 22.0605 56.4551C22.1036 56.5197 22.1266 56.5956 22.1266 56.6732C22.1243 56.7765 22.0816 56.8746 22.0076 56.9465C21.9336 57.0184 21.8343 57.0582 21.7312 57.0572L21.7347 57.0658ZM19.8577 57.1864C19.7803 57.1864 19.7047 57.1634 19.6403 57.1204C19.576 57.0775 19.5257 57.0163 19.496 56.9448C19.4662 56.8733 19.4583 56.7945 19.4731 56.7184C19.488 56.6424 19.5249 56.5724 19.5794 56.5174C19.6339 56.4623 19.7034 56.4247 19.7792 56.4091C19.855 56.3936 19.9336 56.4009 20.0053 56.4301C20.077 56.4593 20.1384 56.509 20.1819 56.5731C20.2254 56.6373 20.2489 56.7128 20.2496 56.7903C20.246 56.8926 20.2027 56.9895 20.1288 57.0603C20.055 57.131 19.9565 57.1701 19.8543 57.1692L19.8577 57.1864ZM19.2321 54.3899C19.2321 54.3123 19.255 54.2364 19.2981 54.1718C19.3412 54.1072 19.4024 54.0569 19.474 54.0272C19.5456 53.9975 19.6244 53.9897 19.7004 54.0048C19.7764 54.02 19.8463 54.0574 19.9011 54.1123C19.9559 54.1672 19.9932 54.2372 20.0083 54.3133C20.0234 54.3895 20.0157 54.4684 19.986 54.5402C19.9563 54.6119 19.9061 54.6732 19.8417 54.7163C19.7772 54.7595 19.7015 54.7825 19.6239 54.7825C19.5713 54.783 19.5191 54.7729 19.4705 54.7527C19.4219 54.7325 19.3778 54.7027 19.3409 54.6651C19.304 54.6275 19.275 54.5829 19.2557 54.5338C19.2365 54.4847 19.2272 54.4323 19.2286 54.3796L19.2321 54.3899ZM18.0289 58.3056C17.9514 58.3056 17.8756 58.2826 17.8111 58.2395C17.7467 58.1963 17.6965 58.135 17.6668 58.0633C17.6371 57.9915 17.6294 57.9126 17.6445 57.8364C17.6596 57.7603 17.697 57.6903 17.7518 57.6354C17.8066 57.5805 17.8764 57.5431 17.9524 57.528C18.0284 57.5128 18.1072 57.5206 18.1788 57.5503C18.2505 57.58 18.3117 57.6304 18.3547 57.6949C18.3978 57.7595 18.4208 57.8354 18.4208 57.913C18.4181 58.016 18.3751 58.1137 18.3012 58.1852C18.2272 58.2567 18.1282 58.2963 18.0254 58.2953L18.0289 58.3056ZM17.2468 56.0671C17.2468 55.9895 17.2698 55.9135 17.3128 55.849C17.3559 55.7844 17.4171 55.7341 17.4887 55.7044C17.5603 55.6747 17.6391 55.6669 17.7151 55.682C17.7912 55.6972 17.861 55.7346 17.9158 55.7895C17.9706 55.8444 18.0079 55.9143 18.0231 55.9905C18.0382 56.0667 18.0304 56.1456 18.0008 56.2173C17.9711 56.2891 17.9209 56.3504 17.8564 56.3935C17.792 56.4367 17.7162 56.4597 17.6387 56.4597C17.5862 56.4602 17.5342 56.4501 17.4856 56.43C17.4371 56.41 17.3931 56.3803 17.3563 56.3429C17.3194 56.3055 17.2904 56.261 17.271 56.2122C17.2516 56.1633 17.2422 56.1111 17.2434 56.0585L17.2468 56.0671ZM16.4647 52.9228C16.3872 52.9252 16.3107 52.9044 16.245 52.8632C16.1792 52.822 16.1271 52.7621 16.0954 52.6912C16.0636 52.6203 16.0535 52.5416 16.0664 52.465C16.0793 52.3884 16.1147 52.3173 16.1679 52.2608C16.2212 52.2043 16.29 52.1649 16.3656 52.1476C16.4412 52.1303 16.5203 52.1359 16.5927 52.1636C16.6652 52.1914 16.7278 52.24 16.7726 52.3034C16.8175 52.3669 16.8425 52.4422 16.8446 52.5199C16.8446 52.6225 16.8045 52.7211 16.7329 52.7945C16.6612 52.8679 16.5637 52.9102 16.4613 52.9125L16.4647 52.9228ZM16.2292 58.6983C16.1517 58.6983 16.076 58.6752 16.0115 58.6321C15.9471 58.589 15.8968 58.5276 15.8672 58.4559C15.8375 58.3842 15.8298 58.3052 15.8449 58.2291C15.86 58.1529 15.8973 58.0829 15.9521 58.028C16.0069 57.9731 16.0768 57.9357 16.1528 57.9206C16.2288 57.9054 16.3076 57.9132 16.3792 57.9429C16.4508 57.9726 16.512 58.023 16.5551 58.0875C16.5982 58.1521 16.6211 58.228 16.6211 58.3056C16.6184 58.4086 16.5755 58.5063 16.5015 58.5778C16.4276 58.6493 16.3286 58.6889 16.2258 58.6879L16.2292 58.6983ZM15.5675 55.7537C15.49 55.7537 15.4142 55.7307 15.3498 55.6875C15.2853 55.6444 15.2351 55.5831 15.2054 55.5113C15.1758 55.4396 15.168 55.3607 15.1831 55.2845C15.1983 55.2083 15.2356 55.1384 15.2904 55.0835C15.3452 55.0286 15.415 54.9912 15.491 54.976C15.5671 54.9609 15.6459 54.9687 15.7175 54.9984C15.7891 55.0281 15.8503 55.0784 15.8933 55.143C15.9364 55.2075 15.9594 55.2834 15.9594 55.3611C15.9567 55.464 15.9137 55.5618 15.8398 55.6333C15.7659 55.7048 15.6668 55.7443 15.5641 55.7434L15.5675 55.7537ZM17.8123 53.5978C17.8898 53.5978 17.9656 53.6208 18.03 53.664C18.0945 53.7071 18.1447 53.7684 18.1744 53.8402C18.204 53.9119 18.2118 53.9908 18.1967 54.067C18.1815 54.1432 18.1442 54.2131 18.0894 54.268C18.0346 54.3229 17.9648 54.3603 17.8888 54.3755C17.8127 54.3906 17.7339 54.3829 17.6623 54.3531C17.5907 54.3234 17.5295 54.2731 17.4864 54.2085C17.4434 54.144 17.4204 54.0681 17.4204 53.9904C17.419 53.9384 17.428 53.8867 17.4467 53.8382C17.4655 53.7897 17.4937 53.7454 17.5297 53.7079C17.5657 53.6704 17.6087 53.6405 17.6563 53.6198C17.704 53.5991 17.7552 53.5881 17.8071 53.5875L17.8123 53.5978ZM30.7551 53.0261C30.6778 52.6817 30.432 52.4579 30.2223 52.1996C30.0951 52.0412 29.5347 51.5452 29.3732 51.404C29.2777 51.3376 29.1626 51.3054 29.0466 51.3128C28.8387 51.357 28.6359 51.4228 28.4416 51.5091C27.1078 52.0257 25.8203 52.6215 24.7065 53.541C24.7065 53.541 24.7065 53.5582 24.7065 53.5634C24.349 53.7821 24.0534 53.9319 23.7715 53.6787C23.4986 53.5252 23.195 53.4347 22.8827 53.4139C22.5705 53.393 22.2575 53.4423 21.9667 53.5582C21.6109 53.7304 21.0764 53.5289 20.791 53.448C20.602 53.3447 18.4569 52.0945 18.3554 51.9671C18.2462 51.8678 18.1235 51.7843 17.9911 51.7191C17.4995 51.559 17.0079 51.392 16.5129 51.2422C16.341 51.1871 16.1296 51.1165 15.98 51.2697C15.5847 51.6709 15.1515 52.1307 15.1206 52.6714C15.0978 53.0257 14.9519 53.3608 14.7081 53.6185C14.6514 53.9112 14.4056 55.4403 14.3746 55.6728C14.2921 56.2927 14.299 56.9177 14.5895 57.498C14.739 57.8287 15.32 58.9996 15.4867 59.22C15.552 59.2751 15.6363 59.2923 15.7033 59.3405C16.121 59.6247 16.4836 59.7073 16.7346 59.1287C16.7965 58.9875 17.3877 59.2493 17.5596 59.3182C17.775 59.3803 18.0051 59.3682 18.2128 59.2837C18.3338 59.208 18.4589 59.1391 18.5875 59.0771C19.2578 58.762 20.0021 58.5381 20.5212 57.9991C20.9853 57.517 21.3806 57.3276 21.9994 57.7236C22.4067 57.9819 22.2056 57.8614 22.4463 58.0129C22.9327 57.944 23.1338 57.975 23.6701 57.7099C23.8849 57.6031 24.0035 57.7271 24.1685 57.8183C25.1139 58.3349 25.9097 59.0926 26.9307 59.4714C27.2401 59.5954 27.5959 59.5024 27.8812 59.6161C28.8816 60.0121 29.6121 59.771 30.0676 58.824C30.0391 58.7161 30.0435 58.6022 30.0803 58.4969C30.117 58.3917 30.1845 58.2998 30.2738 58.2333C30.9098 57.6995 31.0594 56.9315 31.1126 56.1842C31.2173 55.1149 31.0967 54.0354 30.7586 53.0158L30.7551 53.0261Z" fill="#249B46"/>
<path d="M61.548 28.8979V24.0764C62.6481 24.0764 63.1981 23.6551 63.1981 22.8125C63.1981 22.0411 62.7782 21.6554 61.9382 21.6554C61.0983 21.6554 60.6726 22.1857 60.6611 23.2465V35.2485H55.209V23.8147C55.209 22.63 55.3276 21.6588 55.5648 20.9011C55.817 20.1175 56.231 19.3959 56.78 18.7831C57.4498 18.0386 58.2749 17.4507 59.1967 17.0612C60.1402 16.6447 61.1599 16.4295 62.1909 16.4292C64.053 16.4292 65.6171 17.0577 66.8833 18.3148C68.1495 19.5718 68.7826 21.1273 68.7826 22.9813C68.7826 24.7836 68.2143 26.2461 67.0775 27.3688C66.0394 28.402 64.4729 28.9186 62.3782 28.9186L61.548 28.8979ZM77.6913 26.0326V30.8765H76.1203V35.2502H70.6647V23.5753C70.6647 21.3138 71.2801 19.5574 72.5108 18.3061C73.7415 17.0549 75.4717 16.4292 77.7016 16.4292C79.8502 16.4292 81.439 16.9963 82.468 18.1305C83.497 19.2647 84.0126 21.0154 84.0149 23.3825V35.2502H78.5593V23.7475C78.5593 23.0301 78.4746 22.5324 78.305 22.2546C78.1354 21.9768 77.8317 21.8379 77.394 21.8379C76.5426 21.8379 76.1169 22.475 76.1169 23.7493V26.036L77.6913 26.0326ZM86.9438 35.2485V23.3291C86.9438 21.2398 87.5683 19.5672 88.8173 18.3113C90.0664 17.0554 91.7279 16.4275 93.802 16.4275C95.8646 16.4275 97.447 17.0371 98.5494 18.2562C99.6517 19.4754 100.2 21.2289 100.194 23.5168V35.2485H94.7422V23.5168C94.7422 22.3952 94.3411 21.8344 93.539 21.8344C92.769 21.8344 92.3839 22.3952 92.3839 23.5168V35.2485H86.9438ZM108.967 22.1616V35.2485H103.512V16.8855H110.616C113.732 16.8855 116.172 17.5938 117.934 19.0104C120.029 20.706 121.076 23.0065 121.076 25.912C121.076 28.6924 120.183 30.9614 118.395 32.719C116.607 34.4765 114.302 35.3559 111.478 35.357C111.146 35.357 110.605 35.3398 109.854 35.3053V29.9087H110.731C113.907 29.9087 115.495 28.5771 115.495 25.9138C115.495 23.4112 113.933 22.1599 110.808 22.1599L108.967 22.1616ZM130.288 26.0326V30.8765H128.717V35.2502H123.265V23.5753C123.265 21.3138 123.88 19.5574 125.111 18.3061C126.341 17.0549 128.072 16.4292 130.301 16.4292C132.45 16.4292 134.039 16.9963 135.068 18.1305C136.097 19.2647 136.612 21.0154 136.615 23.3825V35.2502H131.164V23.7475C131.164 23.0301 131.079 22.5324 130.91 22.2546C130.74 21.9768 130.437 21.8379 129.999 21.8379C129.148 21.8379 128.722 22.475 128.722 23.7493V26.036L130.288 26.0326ZM55.7934 39.915V46.7857H60.2967V46.0108H56.6734V43.5759H60.0423V42.8303H56.6734V40.6606H60.2194V39.915H55.7934ZM61.6787 46.7857H62.5793V42.8768C62.5793 42.3086 62.5793 41.7093 62.9025 41.2186C63.0487 41.0035 63.2465 40.8288 63.4778 40.7106C63.7091 40.5923 63.9664 40.5343 64.226 40.5418C64.4871 40.5308 64.7466 40.5873 64.9796 40.7058C65.2126 40.8243 65.4112 41.0009 65.5564 41.2186C65.8898 41.7351 65.8692 42.3671 65.8692 42.8682V46.7943H66.7699V42.9199C66.7699 42.2414 66.7991 41.3357 66.182 40.6124C65.9352 40.3393 65.6322 40.1231 65.2939 39.9786C64.9557 39.8342 64.5901 39.7649 64.2226 39.7756C63.8566 39.7634 63.4925 39.8317 63.1557 39.9757C62.819 40.1197 62.5178 40.3359 62.2734 40.609C61.646 41.3546 61.6752 42.219 61.6752 42.9164L61.6787 46.7857ZM70.7404 43.0146V43.7619H73.2499V43.8704C73.2702 44.403 73.1223 44.9285 72.827 45.3719C72.6401 45.6316 72.3919 45.8408 72.1045 45.9808C71.8172 46.1208 71.4997 46.1873 71.1804 46.1744C70.8539 46.1824 70.531 46.1047 70.2439 45.9488C69.9568 45.7929 69.7155 45.5643 69.5441 45.2858C69.1419 44.6659 69.0731 43.9083 69.0731 43.34C69.0731 42.8234 69.1315 41.9969 69.5441 41.377C69.718 41.1013 69.96 40.8754 70.2467 40.7209C70.5333 40.5664 70.855 40.4888 71.1804 40.4953C71.4554 40.4833 71.7296 40.5336 71.9826 40.6424C72.2355 40.7512 72.4607 40.9158 72.6414 41.1239C72.9184 41.4445 73.08 41.8489 73.1003 42.2724H73.9993C73.9269 41.702 73.6849 41.1667 73.3048 40.7359C72.9247 40.3051 72.424 39.9989 71.8678 39.857C71.3117 39.7151 70.7257 39.7441 70.1863 39.9403C69.6468 40.1364 69.1786 40.4906 68.8428 40.9568C68.3652 41.661 68.1243 42.4995 68.1552 43.3503C68.1552 44.0787 68.2721 44.9621 68.8428 45.7473C69.103 46.129 69.4546 46.4393 69.8653 46.6498C70.2761 46.8604 70.7329 46.9645 71.1941 46.9527C72.4403 46.963 73.1536 46.3534 73.5575 45.7473C74.0474 44.9897 74.1351 44.0891 74.1351 43.3813V43.0283L70.7404 43.0146ZM75.6081 39.915V46.7857H79.5271V46.0211H76.4882V39.915H75.6081ZM80.5635 39.915V46.7857H81.4659V39.915H80.5635ZM83.0421 44.5884C83.0441 44.9355 83.1221 45.2779 83.2706 45.5915C83.4191 45.9051 83.6345 46.1822 83.9015 46.4034C84.4515 46.8339 85.1047 46.9441 85.7131 46.9441C86.3043 46.9664 86.8893 46.8169 87.3976 46.5136C87.6539 46.3465 87.8645 46.1177 88.0101 45.8483C88.1557 45.5788 88.2317 45.2771 88.2312 44.9707C88.2466 44.6633 88.1782 44.3576 88.0335 44.0861C87.8888 43.8147 87.6731 43.5877 87.4096 43.4296C87.0177 43.1764 86.5158 43.0283 85.8421 42.8527C85.1373 42.6667 84.8107 42.5978 84.5701 42.4222C84.4385 42.3327 84.3304 42.2127 84.255 42.0724C84.1796 41.9321 84.1391 41.7757 84.137 41.6163C84.1314 41.4566 84.1621 41.2977 84.2267 41.1515C84.2913 41.0054 84.3882 40.8758 84.51 40.7726C84.8286 40.5718 85.1994 40.47 85.5756 40.4798C85.9705 40.4658 86.3613 40.5637 86.7032 40.7622C87.1363 41.0584 87.2738 41.5595 87.2927 42.0795H88.1762C88.1736 41.7421 88.0977 41.4092 87.9537 41.1042C87.8098 40.7991 87.6012 40.529 87.3426 40.3128C86.8507 39.9352 86.2431 39.7404 85.6238 39.7618C84.7643 39.7514 84.2487 39.9977 83.929 40.2336C83.7107 40.3894 83.5339 40.5965 83.4141 40.8367C83.2942 41.0768 83.235 41.3427 83.2415 41.6112C83.2327 41.8503 83.2793 42.0883 83.3778 42.3064C83.4762 42.5245 83.6237 42.7168 83.8087 42.8682C84.2504 43.2419 84.84 43.3848 85.4244 43.5363C86.3354 43.7826 86.5897 43.8704 86.7857 43.9875C86.9542 44.0778 87.0934 44.2144 87.1872 44.3813C87.2809 44.5481 87.3253 44.7382 87.3151 44.9294C87.3175 45.1191 87.2743 45.3065 87.189 45.4759C87.1037 45.6453 86.9789 45.7915 86.8252 45.9023C86.4932 46.1073 86.108 46.2092 85.7183 46.195C85.2724 46.2197 84.8322 46.0855 84.4756 45.8162C84.094 45.5011 83.9599 45.0792 83.9599 44.5884H83.0421ZM89.7111 39.9168V46.7874H90.5946V43.5587H94.0203V46.7874H94.902V39.9168H94.0203V42.7924H90.5912V39.9168H89.7111ZM98.8725 44.5902C98.8746 44.9372 98.9526 45.2796 99.1011 45.5932C99.2496 45.9068 99.4649 46.184 99.7319 46.4051C100.279 46.8356 100.935 46.9458 101.542 46.9458C102.133 46.968 102.718 46.8185 103.226 46.5153C103.483 46.3482 103.693 46.1195 103.839 45.85C103.984 45.5805 104.06 45.2789 104.06 44.9724C104.075 44.6647 104.006 44.3587 103.861 44.0873C103.715 43.8158 103.499 43.589 103.235 43.4313C102.845 43.1782 102.345 43.0301 101.671 42.8544C100.966 42.6684 100.639 42.5996 100.395 42.4239C100.264 42.3341 100.157 42.2139 100.082 42.0736C100.007 41.9333 99.9675 41.7771 99.9657 41.6181C99.96 41.4585 99.9904 41.2996 100.055 41.1535C100.119 41.0074 100.216 40.8777 100.337 40.7743C100.656 40.5664 101.03 40.4591 101.411 40.4661C101.806 40.4529 102.196 40.5514 102.537 40.7502C102.967 41.0429 103.104 41.5457 103.125 42.0658H104.007C104.004 41.728 103.929 41.3948 103.785 41.0894C103.641 40.784 103.432 40.5137 103.173 40.2973C102.681 39.9197 102.074 39.7249 101.454 39.7463C100.595 39.7377 100.079 39.9839 99.7595 40.2198C99.5412 40.3757 99.3644 40.5827 99.2445 40.8229C99.1247 41.063 99.0654 41.329 99.0719 41.5974C99.0632 41.8366 99.1098 42.0745 99.2082 42.2926C99.3066 42.5107 99.4541 42.703 99.6391 42.8544C100.081 43.2281 100.67 43.371 101.255 43.5225C102.166 43.7688 102.42 43.8566 102.616 43.9737C102.785 44.0641 102.924 44.2007 103.018 44.3675C103.111 44.5343 103.156 44.7244 103.146 44.9156C103.148 45.105 103.104 45.2921 103.019 45.4612C102.934 45.6302 102.809 45.7762 102.656 45.8868C102.324 46.0918 101.938 46.1937 101.549 46.1795C101.102 46.2033 100.662 46.0678 100.306 45.7973C99.9245 45.4839 99.7904 45.062 99.7904 44.5712L98.8725 44.5902ZM110.303 44.3542C110.295 44.826 110.111 45.2777 109.787 45.6199C109.61 45.801 109.398 45.9441 109.164 46.0403C108.93 46.1366 108.679 46.1839 108.426 46.1795C108.088 46.1827 107.756 46.0996 107.459 45.9381C107.162 45.7766 106.912 45.542 106.731 45.2566C106.387 44.7279 106.27 43.9823 106.27 43.3452C106.27 42.2741 106.563 41.6921 106.731 41.4304C106.911 41.1428 107.161 40.9061 107.457 40.7428C107.754 40.5794 108.087 40.4948 108.426 40.4971C108.684 40.4876 108.941 40.5355 109.179 40.6373C109.417 40.7391 109.629 40.8923 109.801 41.086C110.095 41.4285 110.261 41.8623 110.272 42.3137H111.183C111.147 41.6112 110.838 40.9507 110.321 40.4742C109.805 39.9977 109.122 39.7431 108.421 39.7652C107.957 39.756 107.498 39.8611 107.084 40.0713C106.671 40.2815 106.315 40.5903 106.049 40.9706C105.595 41.6861 105.354 42.5164 105.354 43.3641C105.354 44.2119 105.595 45.0421 106.049 45.7577C106.315 46.1378 106.671 46.4466 107.085 46.6568C107.498 46.867 107.957 46.9721 108.421 46.963C108.806 46.98 109.191 46.9117 109.548 46.7629C109.904 46.6141 110.224 46.3885 110.483 46.102C110.903 45.6189 111.163 45.0173 111.228 44.3801L110.303 44.3542ZM112.709 39.9185V46.7891H113.591V43.5604H117.029V46.7891H117.91V39.9185H117.029V42.7942H113.591V39.9185H112.709ZM119.378 43.3555C119.378 42.1501 119.732 41.3443 120.164 40.8139C120.43 40.486 120.766 40.2216 121.147 40.0401C121.528 39.8586 121.945 39.7644 122.367 39.7644C122.789 39.7644 123.206 39.8586 123.587 40.0401C123.968 40.2216 124.304 40.486 124.571 40.8139C125.001 41.3443 125.355 42.157 125.355 43.3555C125.355 44.554 125.002 45.3668 124.571 45.8971C124.304 46.2254 123.968 46.49 123.587 46.6717C123.206 46.8534 122.789 46.9477 122.366 46.9477C121.944 46.9477 121.527 46.8534 121.146 46.6717C120.765 46.49 120.428 46.2254 120.162 45.8971C119.72 45.3633 119.366 44.5506 119.366 43.3538L119.378 43.3555ZM120.301 43.3383C120.301 43.8273 120.339 44.6418 120.779 45.3013C120.947 45.5714 121.181 45.7943 121.459 45.9487C121.736 46.1032 122.049 46.1843 122.366 46.1843C122.684 46.1843 122.997 46.1032 123.274 45.9487C123.552 45.7943 123.786 45.5714 123.954 45.3013C124.396 44.6418 124.435 43.8273 124.435 43.3383C124.435 42.6891 124.346 41.9728 123.954 41.3839C123.786 41.1137 123.552 40.8909 123.274 40.7365C122.997 40.582 122.684 40.5009 122.366 40.5009C122.049 40.5009 121.736 40.582 121.459 40.7365C121.181 40.8909 120.947 41.1137 120.779 41.3839C120.377 41.9693 120.289 42.6874 120.289 43.3366L120.301 43.3383ZM126.637 43.3555C126.637 42.1501 126.989 41.3443 127.421 40.8139C127.687 40.4857 128.023 40.2211 128.404 40.0393C128.786 39.8576 129.203 39.7633 129.625 39.7633C130.047 39.7633 130.464 39.8576 130.846 40.0393C131.227 40.2211 131.563 40.4857 131.829 40.8139C132.259 41.3443 132.613 42.157 132.613 43.3555C132.613 44.554 132.261 45.3668 131.829 45.8971C131.563 46.2254 131.227 46.49 130.846 46.6717C130.464 46.8534 130.047 46.9477 129.625 46.9477C129.203 46.9477 128.786 46.8534 128.404 46.6717C128.023 46.49 127.687 46.2254 127.421 45.8971C126.979 45.3633 126.627 44.5506 126.627 43.3538L126.637 43.3555ZM127.558 43.3383C127.558 43.8273 127.598 44.6418 128.039 45.3013C128.207 45.5711 128.441 45.7935 128.719 45.9478C128.996 46.102 129.309 46.1829 129.626 46.1829C129.943 46.1829 130.255 46.102 130.533 45.9478C130.811 45.7935 131.044 45.5711 131.212 45.3013C131.654 44.6418 131.694 43.8273 131.694 43.3383C131.694 42.6891 131.604 41.9728 131.212 41.3839C131.044 41.1137 130.811 40.8909 130.533 40.7365C130.255 40.582 129.943 40.5009 129.625 40.5009C129.307 40.5009 128.995 40.582 128.717 40.7365C128.44 40.8909 128.206 41.1137 128.038 41.3839C127.637 41.9693 127.55 42.6874 127.55 43.3366L127.558 43.3383ZM134.09 39.9202V46.7908H138.009V46.0263H134.963V39.915L134.09 39.9202Z" fill="black"/>
</g>
</g>
<defs>
<clipPath id="clip0_569_7594">
<rect width="138" height="60" fill="white"/>
</clipPath>
</defs>
</svg>
