<svg width="30" height="30" viewBox="0 0 30 30" fill="none" xmlns="http://www.w3.org/2000/svg">
<path d="M8.91893 13.9862L4.163 5.47565C3.61614 4.49706 3.34271 4.00777 3.38879 3.60716C3.42899 3.25764 3.61463 2.94125 3.90013 2.73565C4.22735 2.5 4.78786 2.5 5.90888 2.5H8.70241C9.11903 2.5 9.32734 2.5 9.51419 2.56017C9.67952 2.61341 9.83195 2.70052 9.96174 2.81595C10.1084 2.9464 10.2142 3.12588 10.4256 3.48484L15.0001 11.25L19.5746 3.48484C19.7861 3.12588 19.8918 2.9464 20.0385 2.81595C20.1683 2.70052 20.3207 2.61341 20.4861 2.56017C20.6729 2.5 20.8812 2.5 21.2979 2.5H24.0914C25.2124 2.5 25.7729 2.5 26.1001 2.73565C26.3856 2.94125 26.5713 3.25764 26.6115 3.60716C26.6576 4.00777 26.3841 4.49706 25.8373 5.47565L21.0813 13.9862M13.1251 17.5L15.0001 16.25V22.5M13.4376 22.5H16.5626M20.7454 13.6298C23.9184 16.8028 23.9184 21.9472 20.7454 25.1202C17.5724 28.2933 12.4279 28.2933 9.25488 25.1202C6.08188 21.9472 6.08188 16.8028 9.25488 13.6298C12.4279 10.4567 17.5724 10.4567 20.7454 13.6298Z" stroke="#FAC017" stroke-width="2.5" stroke-linecap="round" stroke-linejoin="round"/>
</svg>
