<svg width="30" height="30" viewBox="0 0 30 30" fill="none" xmlns="http://www.w3.org/2000/svg">
<path d="M3.12393 11.25H26.8739M12.4989 3.75L9.99893 11.25L14.9989 25.625L19.9989 11.25L17.4989 3.75M15.7672 25.3281L26.9654 11.8902C27.1552 11.6624 27.2501 11.5486 27.2864 11.4215C27.3184 11.3094 27.3184 11.1906 27.2864 11.0785C27.2501 10.9514 27.1552 10.8376 26.9654 10.6098L21.5488 4.10982C21.4386 3.97755 21.3835 3.91142 21.3159 3.86388C21.256 3.82176 21.1893 3.79048 21.1186 3.77146C21.0388 3.75 20.9527 3.75 20.7806 3.75H9.21731C9.04514 3.75 8.95906 3.75 8.87929 3.77146C8.80861 3.79048 8.74182 3.82176 8.68197 3.86388C8.61441 3.91142 8.5593 3.97756 8.44909 4.10982L3.03242 10.6098C2.84263 10.8376 2.74774 10.9514 2.71148 11.0785C2.67951 11.1906 2.67951 11.3094 2.71148 11.4215C2.74774 11.5486 2.84263 11.6624 3.03242 11.8902L14.2307 25.3281C14.4945 25.6447 14.6264 25.803 14.7844 25.8607C14.9229 25.9114 15.0749 25.9114 15.2135 25.8607C15.3714 25.803 15.5033 25.6447 15.7672 25.3281Z" stroke="#D58CF7" stroke-width="2.5" stroke-linecap="round" stroke-linejoin="round"/>
</svg>
