<svg width="30" height="30" viewBox="0 0 30 30" fill="none" xmlns="http://www.w3.org/2000/svg">
<g clip-path="url(#clip0_569_7678)">
<path d="M9.95 9.07125C11.6962 7.7625 14.14 7.1825 16.51 7.6725C18.065 7.995 19.8725 8.6625 21.3062 10.1625C22.7612 11.6838 23.6938 13.9175 23.7488 17.0975C23.7963 19.8175 22.51 22.7475 20.7838 24.7625C19.9138 25.7787 18.8675 26.6413 17.7213 27.1125C16.55 27.5963 15.2275 27.6863 13.98 27.04C12.8638 26.4625 12.1287 25.71 11.7675 24.7725C11.42 23.8738 11.4888 22.9825 11.5988 22.2825L11.6488 21.9937L11.79 21.2812C11.8525 20.9688 11.9013 20.7075 11.9263 20.4662C11.9763 19.9875 11.9163 19.7375 11.8013 19.5588C11.5237 19.1287 11.1712 18.8713 10.6512 18.5337L9.965 18.09L9.6325 17.8625C8.845 17.2987 8.01 16.4962 7.665 15.0637C7.05875 12.5575 8.1775 10.4012 9.95 9.07125ZM16.0038 10.1213C14.3225 9.77375 12.6125 10.2 11.4488 11.0713C10.3138 11.9225 9.7675 13.1225 10.095 14.4775C10.25 15.1187 10.5788 15.4737 11.1438 15.8687L11.4887 16.0975L12.0775 16.4725C12.68 16.8688 13.39 17.41 13.9025 18.205C14.4587 19.0675 14.49 19.9825 14.4125 20.725C14.3865 20.966 14.3507 21.2057 14.305 21.4438L14.1075 22.4438C14.0936 22.5194 14.0807 22.5953 14.0688 22.6712C13.98 23.2362 13.9938 23.5962 14.0988 23.8725C14.19 24.1075 14.415 24.45 15.1287 24.82C15.5837 25.055 16.1163 25.0712 16.7663 24.8025C17.4412 24.5237 18.1838 23.955 18.885 23.1375C20.3013 21.4837 21.285 19.1275 21.2488 17.1413C21.2025 14.4488 20.4312 12.865 19.4987 11.89C18.5475 10.8938 17.2863 10.3863 16.0038 10.1213ZM6.25 4.375C6.91304 4.375 7.54893 4.63839 8.01777 5.10723C8.48661 5.57607 8.75 6.21196 8.75 6.875C8.75 7.53804 8.48661 8.17393 8.01777 8.64277C7.54893 9.11161 6.91304 9.375 6.25 9.375C5.58696 9.375 4.95107 9.11161 4.48223 8.64277C4.01339 8.17393 3.75 7.53804 3.75 6.875C3.75 6.21196 4.01339 5.57607 4.48223 5.10723C4.95107 4.63839 5.58696 4.375 6.25 4.375ZM23.125 5.625C23.4565 5.625 23.7745 5.7567 24.0089 5.99112C24.2433 6.22554 24.375 6.54348 24.375 6.875C24.375 7.20652 24.2433 7.52446 24.0089 7.75888C23.7745 7.9933 23.4565 8.125 23.125 8.125C22.7935 8.125 22.4755 7.9933 22.2411 7.75888C22.0067 7.52446 21.875 7.20652 21.875 6.875C21.875 6.54348 22.0067 6.22554 22.2411 5.99112C22.4755 5.7567 22.7935 5.625 23.125 5.625ZM11.875 2.5C12.1212 2.5 12.365 2.5485 12.5925 2.64273C12.82 2.73695 13.0267 2.87506 13.2008 3.04917C13.3749 3.22328 13.513 3.42998 13.6073 3.65747C13.7015 3.88495 13.75 4.12877 13.75 4.375C13.75 4.62123 13.7015 4.86505 13.6073 5.09253C13.513 5.32002 13.3749 5.52672 13.2008 5.70083C13.0267 5.87494 12.82 6.01305 12.5925 6.10727C12.365 6.2015 12.1212 6.25 11.875 6.25C11.3777 6.25 10.9008 6.05246 10.5492 5.70083C10.1975 5.34919 10 4.87228 10 4.375C10 3.87772 10.1975 3.40081 10.5492 3.04917C10.9008 2.69754 11.3777 2.5 11.875 2.5ZM18.125 2.5C18.3712 2.5 18.615 2.5485 18.8425 2.64273C19.07 2.73695 19.2767 2.87506 19.4508 3.04917C19.6249 3.22328 19.763 3.42998 19.8573 3.65747C19.9515 3.88495 20 4.12877 20 4.375C20 4.62123 19.9515 4.86505 19.8573 5.09253C19.763 5.32002 19.6249 5.52672 19.4508 5.70083C19.2767 5.87494 19.07 6.01305 18.8425 6.10727C18.615 6.2015 18.3712 6.25 18.125 6.25C17.6277 6.25 17.1508 6.05246 16.7992 5.70083C16.4475 5.34919 16.25 4.87228 16.25 4.375C16.25 3.87772 16.4475 3.40081 16.7992 3.04917C17.1508 2.69754 17.6277 2.5 18.125 2.5Z" fill="#FAC017"/>
</g>
<defs>
<clipPath id="clip0_569_7678">
<rect width="30" height="30" fill="white"/>
</clipPath>
</defs>
</svg>
