<svg width="30" height="30" viewBox="0 0 30 30" fill="none" xmlns="http://www.w3.org/2000/svg">
<path d="M6.25 12.5V20.0139C6.25 20.4626 6.25 20.687 6.31832 20.885C6.37873 21.0602 6.47733 21.2197 6.60698 21.3521C6.75358 21.5018 6.95425 21.6021 7.35557 21.8028L14.1056 25.1778C14.4335 25.3418 14.5975 25.4238 14.7695 25.456C14.9218 25.4846 15.0782 25.4846 15.2305 25.456C15.4025 25.4238 15.5665 25.3418 15.8944 25.1778L22.6444 21.8028C23.0458 21.6021 23.2464 21.5018 23.393 21.3521C23.5227 21.2197 23.6213 21.0602 23.6817 20.885C23.75 20.687 23.75 20.4626 23.75 20.0139V12.5M2.5 10.625L14.5528 4.59861C14.7168 4.51662 14.7988 4.47562 14.8848 4.45949C14.9609 4.4452 15.0391 4.4452 15.1152 4.45949C15.2012 4.47562 15.2832 4.51662 15.4472 4.59861L27.5 10.625L15.4472 16.6514C15.2832 16.7334 15.2012 16.7744 15.1152 16.7905C15.0391 16.8048 14.9609 16.8048 14.8848 16.7905C14.7988 16.7744 14.7168 16.7334 14.5528 16.6514L2.5 10.625Z" stroke="#0296E5" stroke-width="2.5" stroke-linecap="round" stroke-linejoin="round"/>
</svg>
