<svg width="30" height="30" viewBox="0 0 30 30" fill="none" xmlns="http://www.w3.org/2000/svg">
<path d="M21.25 18.125V14.368C21.25 14.1437 21.25 14.0315 21.2158 13.9325C21.1856 13.8449 21.1363 13.7651 21.0715 13.6989C20.9982 13.6241 20.8979 13.5739 20.6972 13.4736L15 10.625M5 11.875V20.3833C5 20.8482 5 21.0806 5.07252 21.2841C5.13664 21.464 5.24113 21.6269 5.37797 21.7601C5.53277 21.9109 5.74409 22.0077 6.16669 22.2014L14.1667 25.8681C14.4732 26.0086 14.6265 26.0788 14.7862 26.1065C14.9277 26.1311 15.0723 26.1311 15.2138 26.1065C15.3735 26.0788 15.5268 26.0086 15.8333 25.8681L23.8333 22.2014C24.2559 22.0077 24.4672 21.9109 24.622 21.7601C24.7589 21.6269 24.8634 21.464 24.9275 21.2841C25 21.0806 25 20.8482 25 20.3833V11.875M2.5 10.625L14.5528 4.59861C14.7168 4.51662 14.7988 4.47562 14.8848 4.45949C14.9609 4.4452 15.0391 4.4452 15.1152 4.45949C15.2012 4.47562 15.2832 4.51662 15.4472 4.59861L27.5 10.625L15.4472 16.6514C15.2832 16.7334 15.2012 16.7744 15.1152 16.7905C15.0391 16.8048 14.9609 16.8048 14.8848 16.7905C14.7988 16.7744 14.7168 16.7334 14.5528 16.6514L2.5 10.625Z" stroke="#0296E5" stroke-width="2.5" stroke-linecap="round" stroke-linejoin="round"/>
</svg>
